<svg width="33" height="33" viewBox="0 0 33 33" fill="none" xmlns="http://www.w3.org/2000/svg">
<path d="M21.6447 21.2856C21.4463 21.2856 21.2567 21.2719 21.0632 21.2651C21.07 21.4166 21.0856 21.5651 21.0856 21.7186C21.0856 22.4077 21.0143 23.0802 20.8794 23.7302C21.1218 23.7449 21.373 23.7546 21.6438 23.7546C26.5721 23.7546 30.5815 21.268 30.5815 18.2115V17.5645C28.9834 19.7608 25.5839 21.2856 21.6447 21.2856Z" fill="white"/>
<path d="M21.6445 24.7309C21.2828 24.7309 20.9515 24.7143 20.6299 24.6899C20.367 25.5256 19.9897 26.3085 19.5273 27.0328C20.2164 27.1393 20.9222 27.2097 21.6445 27.2097C26.5728 27.2097 30.5823 24.7182 30.5823 21.6559V21.0146C28.9832 23.209 25.5836 24.7309 21.6445 24.7309Z" fill="white"/>
<path d="M21.6443 17.8291C21.18 17.8291 20.7158 17.7988 20.2534 17.7548C20.6014 18.5485 20.8409 19.3979 20.9699 20.2834C21.1927 20.2942 21.4127 20.3069 21.6443 20.3069C26.5726 20.3069 30.5821 17.8154 30.5821 14.753V14.1118C28.983 16.3072 25.5834 17.8291 21.6443 17.8291Z" fill="white"/>
<path d="M21.6444 28.1875C20.7022 28.1875 19.7804 28.0926 18.8919 27.9235C18.3221 28.6312 17.6564 29.2548 16.9155 29.7836C18.3182 30.3447 19.9251 30.6555 21.6434 30.6555C26.5717 30.6555 30.5812 28.1689 30.5812 25.1124V24.4653C28.9831 26.6626 25.5835 28.1875 21.6444 28.1875Z" fill="white"/>
<path d="M21.6427 11.0336C24.9875 11.0336 27.699 9.61133 27.699 7.85688C27.699 6.10244 24.9875 4.68018 21.6427 4.68018C18.2979 4.68018 15.5864 6.10244 15.5864 7.85688C15.5864 9.61133 18.2979 11.0336 21.6427 11.0336Z" fill="white"/>
<path d="M11.1722 30.6549C16.0995 30.6549 20.109 26.6454 20.109 21.7181C20.109 16.7907 16.0995 12.7812 11.1722 12.7812C6.24484 12.7812 2.23535 16.7907 2.23535 21.7181C2.23535 26.6454 6.24484 30.6549 11.1722 30.6549ZM11.1722 14.267C15.2804 14.267 18.6232 17.6098 18.6232 21.7181C18.6232 25.8272 15.2804 29.1701 11.1722 29.1701C7.06394 29.1701 3.72107 25.8272 3.72107 21.7181C3.72107 17.6098 7.06394 14.267 11.1722 14.267Z" fill="white"/>
<path d="M13.7711 19.6096C13.7711 18.898 13.1924 18.3203 12.4818 18.3203H9.89844V20.8998H12.4818C13.1924 20.8988 13.7711 20.3202 13.7711 19.6096Z" fill="white"/>
<path d="M11.1724 28.1919C14.742 28.1919 17.646 25.2879 17.646 21.7173C17.646 18.1477 14.742 15.2437 11.1724 15.2437C7.60273 15.2437 4.69873 18.1486 4.69873 21.7183C4.69873 25.2879 7.60273 28.1919 11.1724 28.1919ZM8.08461 21.8756C7.81484 21.8756 7.59589 21.6567 7.59589 21.3869C7.59589 21.1171 7.81484 20.8982 8.08461 20.8982H8.92131V17.83C8.92131 17.5602 9.14025 17.3413 9.41003 17.3413H12.4821C13.7323 17.3413 14.7489 18.3588 14.7489 19.608C14.7489 20.8571 13.7323 21.8747 12.4821 21.8747H9.89875V22.4142H12.9337C13.2035 22.4142 13.4225 22.6332 13.4225 22.9029C13.4225 23.1727 13.2035 23.3917 12.9337 23.3917H9.89875V25.6056C9.89875 25.8754 9.67981 26.0943 9.41003 26.0943C9.14025 26.0943 8.92131 25.8754 8.92131 25.6056V23.3926H8.08461C7.81484 23.3926 7.59589 23.1737 7.59589 22.9039C7.59589 22.6341 7.81484 22.4152 8.08461 22.4152H8.92131V21.8756H8.08461Z" fill="white"/>
<path d="M21.6426 14.3837C19.8598 14.3837 18.1903 14.068 16.7437 13.5236C17.9547 14.3495 18.9673 15.4413 19.7131 16.7081C20.3495 16.8 20.9975 16.8518 21.6456 16.8518C26.5738 16.8518 30.5833 14.3652 30.5833 11.3087V10.6616C28.9842 12.8589 25.5827 14.3837 21.6426 14.3837Z" fill="white"/>
<path d="M12.7075 10.6675V11.9362C13.3458 12.0359 13.9626 12.1962 14.5539 12.4112C13.8013 11.904 13.1786 11.3136 12.7075 10.6675Z" fill="white"/>
<path d="M12.7075 7.88054C12.728 10.9292 16.7278 13.406 21.6424 13.406C26.5707 13.406 30.5802 10.9175 30.5802 7.85708C30.5802 4.79766 26.5707 2.30908 21.6424 2.30908C16.7209 2.30908 12.7153 4.79278 12.7065 7.8473C12.7065 7.84926 12.7075 7.85121 12.7075 7.85219V7.88054ZM21.6424 3.70292C25.5864 3.70292 28.6761 5.52782 28.6761 7.85708C28.6761 10.1863 25.5864 12.0112 21.6424 12.0112C17.6984 12.0112 14.6087 10.1863 14.6087 7.85708C14.6087 5.52782 17.6984 3.70292 21.6424 3.70292Z" fill="white"/>
</svg>
