<svg width="27" height="27" viewBox="0 0 27 27" fill="none" xmlns="http://www.w3.org/2000/svg">
<g clip-path="url(#clip0_331_2511)">
<path d="M26.3112 10.546C25.922 5.03213 21.3123 0.665039 15.7013 0.665039H11.1597C5.5486 0.665039 0.939041 5.03213 0.549642 10.546H0.522461V18.1139H3.63686V11.9706C3.63686 11.4869 3.67271 11.0112 3.74086 10.546H2.06666C2.45252 5.86707 6.38314 2.17773 11.1597 2.17773H15.7011C20.4777 2.17773 24.4083 5.86707 24.794 10.546H23.12C23.1881 11.0112 23.224 11.4869 23.224 11.9706V18.1139H26.3384V10.546H26.3112Z" fill="white"/>
<path d="M21.7109 13.3076C19.8825 12.9489 18.202 12.0663 16.8642 10.7632C15.0749 12.5042 12.6736 13.4882 10.1564 13.4882C8.38348 13.4882 6.64842 12.9952 5.14893 12.0815V18.2008C5.14893 22.767 8.86367 26.4817 13.4299 26.4817C16.3664 26.4817 18.9506 24.9452 20.4212 22.634H16.3767C16.0751 23.3977 15.331 23.9381 14.46 23.9381H12.3996C11.2615 23.9381 10.3389 23.0156 10.3389 21.8775C10.3389 20.7396 11.2615 19.817 12.3996 19.817H14.46C15.331 19.817 16.0751 20.3575 16.3767 21.1213H21.1785C21.5222 20.2126 21.7109 19.2283 21.7109 18.2008V13.3076Z" fill="white"/>
<path d="M13.4306 3.69043C9.41414 3.69043 6.05688 6.56473 5.30664 10.3644C6.70115 11.4061 8.40725 11.9759 10.1571 11.9759C12.5138 11.9759 14.7501 10.9523 16.2927 9.16722L16.8651 8.50523L17.4373 9.16722C18.5633 10.4701 20.0571 11.3716 21.7089 11.7603C21.5964 7.29114 17.9262 3.69043 13.4306 3.69043Z" fill="white"/>
</g>
<defs>
<clipPath id="clip0_331_2511">
<rect width="25.8166" height="25.8166" fill="white" transform="translate(0.522461 0.665039)"/>
</clipPath>
</defs>
</svg>
