<svg width="33" height="33" viewBox="0 0 33 33" fill="none" xmlns="http://www.w3.org/2000/svg">
<g clip-path="url(#clip0_331_2677)">
<path d="M24.8249 9.06832C24.9176 9.35795 24.8444 9.65705 24.628 9.8697L21.8736 12.5654C21.6843 12.7496 21.6055 12.9945 21.6503 13.2538L21.6824 13.4488C21.2641 13.4557 20.847 13.5687 20.4823 13.7794C20.3283 13.8671 20.1819 13.9744 20.0494 14.0981C19.9118 13.9675 19.7629 13.8564 19.6039 13.7655H19.602C19.2228 13.5453 18.7956 13.4418 18.3715 13.4469C17.9494 13.4538 17.531 13.5668 17.1625 13.7794C16.8565 13.9548 16.5845 14.1997 16.3776 14.5095C16.3473 14.4899 16.317 14.4716 16.2848 14.454V14.4559L16.2829 14.454C15.9037 14.2338 15.4765 14.1322 15.0524 14.1372C14.6429 14.1423 14.2334 14.2502 13.8718 14.4502C13.8611 14.4552 13.8504 14.4609 13.8396 14.4679C13.4983 14.6647 13.2011 14.9474 12.9846 15.3103L12.9651 15.2995H12.9632C12.9039 15.2654 12.8452 15.2352 12.7859 15.2068L13.1152 13.2538C13.16 12.9945 13.0812 12.7496 12.8919 12.5654L10.1375 9.8697C9.92109 9.65705 9.84789 9.35795 9.94065 9.06832C10.0353 8.78058 10.27 8.58181 10.5704 8.53701L14.3836 7.97541C14.6448 7.93629 14.8524 7.78611 14.9704 7.54948L16.6842 4.09535C16.8186 3.82338 17.0792 3.66248 17.3834 3.66248C17.6875 3.66248 17.9488 3.82338 18.0825 4.09535L19.7964 7.54948C19.9144 7.78548 20.122 7.93566 20.3832 7.97541L24.1964 8.53701C24.4967 8.58181 24.7315 8.77995 24.8261 9.06832H24.8249ZM7.80027 3.98618L5.40181 2.60175C4.9437 2.33673 4.35181 2.49448 4.08742 2.95385C3.8224 3.41197 3.98015 4.00574 4.43952 4.27014L6.83609 5.65267C7.29546 5.91896 7.88798 5.75995 8.15237 5.30057C8.4174 4.84246 8.25775 4.25058 7.80027 3.98618ZM6.83609 14.0514L4.43952 15.4339C3.98015 15.7002 3.8224 16.2927 4.08742 16.7502C4.35244 17.2102 4.94433 17.3673 5.40181 17.1023L7.80027 15.7179C8.25838 15.4529 8.4174 14.861 8.15237 14.4035C7.88735 13.9435 7.29546 13.7864 6.83609 14.0514ZM6.93263 9.85329C6.93263 9.32199 6.49976 8.88911 5.96845 8.88911H3.20148C2.67207 8.88911 2.2373 9.32199 2.2373 9.85329C2.2373 10.3846 2.67207 10.8156 3.20148 10.8156H5.96845C6.49976 10.8156 6.93263 10.3827 6.93263 9.85329ZM27.9282 5.65331L30.3247 4.27077C30.7847 4.00574 30.9418 3.41197 30.6768 2.95449C30.4118 2.49448 29.8199 2.33736 29.3624 2.60238L26.964 3.98681C26.5059 4.25184 26.3468 4.84372 26.6119 5.3012C26.8769 5.76121 27.4688 5.92022 27.9282 5.65331ZM30.3247 15.4339L27.9282 14.0514C27.4682 13.7864 26.8763 13.9441 26.6119 14.4035C26.3468 14.8616 26.5065 15.4535 26.964 15.7179L29.3624 17.1023C29.8205 17.3673 30.4124 17.2096 30.6768 16.7502C30.9418 16.2921 30.7841 15.7002 30.3247 15.4339ZM31.5628 8.88911H28.7939C28.2645 8.88911 27.8316 9.32199 27.8316 9.85329C27.8316 10.3846 28.2645 10.8156 28.7939 10.8156H31.5628C32.0922 10.8156 32.5269 10.3827 32.5269 9.85329C32.5269 9.32388 32.0922 8.88911 31.5628 8.88911ZM23.2063 20.6177L19.9131 19.7355C19.8809 19.7267 19.8487 19.7141 19.8184 19.6976L18.8883 19.449V21.5402L20.4823 22.8117C20.6899 22.9764 20.7328 23.2717 20.5857 23.4881L19.9989 24.5059C19.9062 24.6668 19.7377 24.7583 19.5623 24.7583V24.7602C19.0474 24.7602 18.5823 24.9697 18.2441 25.3073C17.9059 25.6449 17.6983 26.1106 17.6983 26.6255C17.6983 26.9044 17.4711 27.1297 17.1941 27.1297C16.9171 27.1297 16.688 26.9044 16.688 26.6255C16.688 25.831 17.0098 25.1123 17.5304 24.5936C17.9847 24.1393 18.5911 23.8352 19.2657 23.7658L19.5162 23.331L18.1803 22.2633C18.0996 22.2274 18.0302 22.1718 17.9784 22.1024L17.9677 22.0898C17.9532 22.0753 17.9393 22.0595 17.9267 22.0431L16.4974 20.4315C16.4293 20.4801 16.3599 20.5243 16.288 20.5672C16.2772 20.5722 16.2684 20.5779 16.2577 20.5836C15.8961 20.7855 15.4866 20.8928 15.0771 20.8985C14.653 20.9035 14.2258 20.8 13.8466 20.5798H13.8428L13.8251 20.5691C13.6106 20.9306 13.3115 21.2127 12.9682 21.4115C12.5997 21.6241 12.1795 21.7371 11.7573 21.7421C11.3333 21.7472 10.9061 21.6456 10.525 21.4253H10.5231C10.371 21.3376 10.2259 21.2304 10.094 21.1054C10.176 25.7793 10.8436 25.7112 12.7556 29.3495V32.7608H21.8421L21.5916 28.3286C24.3983 25.9654 24.6791 24.7653 24.6791 21.8589C24.6791 20.8107 23.785 20.8051 23.207 20.6177H23.2063ZM17.8977 18.6628C17.969 18.3946 18.2447 18.2337 18.5148 18.305L19.5395 18.5808V15.0446C19.4159 14.8673 19.2657 14.7335 19.0997 14.637C18.8814 14.5101 18.6328 14.4508 18.3842 14.4546C18.1318 14.4584 17.8812 14.5246 17.6636 14.6515C17.4957 14.748 17.3468 14.8805 17.2288 15.0452V19.7424L17.88 20.4757V18.794C17.88 18.7511 17.885 18.7063 17.8977 18.6634V18.6628ZM11.7447 15.9886C11.4942 15.9905 11.2437 16.0586 11.0253 16.1855C10.8556 16.2839 10.7035 16.4164 10.5868 16.5805V20.145C10.7086 20.3223 10.8607 20.458 11.0285 20.5546H11.0266C11.2468 20.6814 11.4955 20.7407 11.7441 20.7369C11.9946 20.7331 12.2432 20.6669 12.4634 20.54H12.4653C12.6332 20.4435 12.784 20.3091 12.902 20.1412V16.5798C12.7783 16.4025 12.6281 16.2669 12.4603 16.1703V16.1684C12.2419 16.0435 11.9933 15.9842 11.7447 15.988V15.9886ZM22.4195 14.6363C22.1992 14.5095 21.9525 14.4502 21.7039 14.454C21.4515 14.4578 21.201 14.524 20.9833 14.6508C20.8154 14.7474 20.6665 14.8799 20.5485 15.0446V18.8616L22.8593 19.4806V15.0427C22.7375 14.8673 22.5854 14.7335 22.4195 14.637V14.6363ZM15.0644 19.8914C15.308 19.8895 15.5472 19.827 15.7623 19.709C15.7693 19.704 15.7768 19.7002 15.7838 19.6945C15.9516 19.5979 16.1024 19.4654 16.2204 19.2995V15.7311C16.0968 15.5557 15.9466 15.4219 15.7806 15.3254C15.5623 15.1986 15.3137 15.1392 15.0651 15.143C14.8221 15.1468 14.5804 15.2093 14.3678 15.3254C14.3609 15.3304 14.3533 15.3361 14.3463 15.3399C14.1766 15.4383 14.0264 15.5709 13.9084 15.7387V19.3001C14.0321 19.4774 14.1823 19.6131 14.3501 19.7096L14.3482 19.7115C14.5685 19.8365 14.8171 19.8958 15.0657 19.892L15.0644 19.8914Z" fill="white"/>
</g>
<defs>
<clipPath id="clip0_331_2677">
<rect width="32.3076" height="32.3076" fill="white" transform="translate(0.151367 0.590332)"/>
</clipPath>
</defs>
</svg>
