<svg width="27" height="27" viewBox="0 0 27 27" fill="none" xmlns="http://www.w3.org/2000/svg">
<path fill-rule="evenodd" clip-rule="evenodd" d="M9.67614 1.19287C9.13448 1.19287 8.67083 1.5576 8.51879 2.05244C8.02396 2.20449 7.65922 2.66817 7.65922 3.20979V4.41994H2.81861C1.93169 4.41994 1.20508 5.14656 1.20508 6.03348V10.4707C1.20508 11.3576 1.93169 12.0842 2.81861 12.0842H9.67614C9.67614 11.4138 10.2159 10.8741 10.8863 10.8741H13.71C14.3804 10.8741 14.9201 11.4138 14.9201 12.0842H21.7777C22.6646 12.0842 23.3912 11.3576 23.3912 10.4707V6.03348C23.3912 5.14656 22.6646 4.41994 21.7777 4.41994H16.9371V3.20979C16.9371 2.66813 16.5723 2.20448 16.0775 2.05244C15.9254 1.55761 15.4618 1.19287 14.9201 1.19287H9.67614ZM8.58495 2.91827C8.78028 3.32677 9.19684 3.61317 9.67614 3.61317H14.9201C15.3994 3.61317 15.816 3.32681 16.0113 2.91827C16.0855 2.99052 16.1303 3.09264 16.1303 3.20977V4.41993H8.466V3.20977C8.466 3.09264 8.51075 2.99052 8.58495 2.91827ZM21.3742 22.5723V16.1182C21.3742 15.4548 21.9209 14.908 22.5844 14.908V12.7485C22.3313 12.8394 22.0604 12.8911 21.7776 12.8911H14.9201C14.9201 13.5616 14.3804 14.1013 13.7099 14.1013H10.8863C10.2158 14.1013 9.6761 13.5616 9.6761 12.8911H2.81857C2.53586 12.8911 2.26493 12.8394 2.01181 12.7485V20.959C2.01181 21.8459 2.73842 22.5725 3.62534 22.5725H10.0795V20.959C10.0795 20.2956 10.6262 19.7489 11.2896 19.7489H13.7099C14.3734 19.7489 14.9201 20.2956 14.9201 20.959V22.5725H15.7269V18.5387C15.7269 17.8753 16.2736 17.3286 16.937 17.3286H19.3573C20.0208 17.3286 20.5675 17.8753 20.5675 18.5387V22.5725L21.3742 22.5723ZM22.5844 15.7148C22.3539 15.7148 22.181 15.8877 22.181 16.1182V24.9926C22.181 25.2202 22.3568 25.396 22.5844 25.396H25.0047C25.2323 25.396 25.4081 25.2202 25.4081 24.9926V16.1182C25.4081 15.8877 25.2351 15.7148 25.0047 15.7148H22.5844ZM16.937 18.1351C16.7066 18.1351 16.5336 18.308 16.5336 18.5385V24.9926C16.5336 25.2202 16.7095 25.396 16.937 25.396H19.3573C19.5849 25.396 19.7607 25.2202 19.7607 24.9926V18.5385C19.7607 18.308 19.5878 18.1351 19.3573 18.1351H16.937ZM11.2896 20.5554C11.0592 20.5554 10.8863 20.7284 10.8863 20.9588V24.9926C10.8863 25.2202 11.0621 25.396 11.2896 25.396H13.7099C13.9375 25.396 14.1133 25.2202 14.1133 24.9926V20.9588C14.1133 20.7284 13.9404 20.5554 13.7099 20.5554H11.2896Z" fill="white"/>
</svg>
