<svg width="27" height="27" viewBox="0 0 27 27" fill="none" xmlns="http://www.w3.org/2000/svg">
<g clip-path="url(#clip0_331_2263)">
<path d="M5.72611 6.83468C7.24659 6.83468 8.44125 5.64002 8.44125 4.11955C8.44125 2.59907 7.24659 1.40441 5.72611 1.40441C4.20564 1.40441 3.01098 2.59907 3.01098 4.11955C3.01098 5.64002 4.20564 6.83468 5.72611 6.83468ZM20.9309 6.83468C22.4513 6.83468 23.646 5.64002 23.646 4.11955C23.646 2.59907 22.4513 1.40441 20.9309 1.40441C19.4104 1.40441 18.2157 2.59907 18.2157 4.11955C18.2157 5.64002 19.4104 6.83468 20.9309 6.83468ZM13.2199 5.74863C14.7404 5.74863 15.935 4.55397 15.935 3.03349C15.935 1.51302 14.7404 0.318359 13.2199 0.318359C11.6994 0.318359 10.5047 1.51302 10.5047 3.03349C10.5047 4.55397 11.6994 5.74863 13.2199 5.74863ZM8.00682 17.9124C7.4638 17.2608 7.24659 16.5006 7.24659 15.6317L8.00682 9.3326C8.00682 9.11539 8.11543 8.89818 8.11543 8.68097C8.11543 8.57236 8.11543 8.35515 8.11543 8.24655C8.00682 8.13794 7.89822 8.02934 7.78961 8.02934C7.4638 7.92073 7.24659 7.92073 7.02938 7.92073H4.42285C3.01098 7.92073 1.81632 8.89818 1.70772 10.3101L1.05608 15.8489C0.947478 16.2833 1.16469 16.8264 1.4905 17.1522C1.70772 17.478 2.03353 17.6952 2.46795 17.6952L3.01098 24.7546C3.01098 25.0804 3.22819 25.2976 3.55401 25.2976H7.89822C8.22404 25.2976 8.44125 25.0804 8.44125 24.7546L8.87567 18.8899C8.87567 18.6727 8.76706 18.4555 8.65846 18.3468C8.33264 18.3468 8.11543 18.1296 8.00682 17.9124ZM18.1071 15.7403L17.3469 9.44121C17.2383 7.92073 16.0436 6.83468 14.6318 6.83468H11.808C10.3961 6.83468 9.20148 7.92073 9.09288 9.44121L8.33264 15.7403C8.22404 16.2833 8.44125 16.8264 8.76706 17.1522C9.09288 17.478 9.41869 17.6952 9.85312 17.6952L10.5047 25.8406C10.5047 26.1664 10.722 26.3836 11.0478 26.3836H15.392C15.7178 26.3836 15.935 26.1664 15.935 25.8406L16.5866 17.6952C17.0211 17.6952 17.4555 17.478 17.6727 17.1522C17.9985 16.8264 18.2157 16.2833 18.1071 15.7403ZM25.7095 15.8489L25.0579 10.3101C24.8407 8.89818 23.646 7.92073 22.2341 7.92073H19.519C19.1932 7.92073 18.8674 7.92073 18.6501 8.02934C18.4329 8.13794 18.2157 8.35515 18.3243 8.68097C18.3243 8.89818 18.4329 9.11539 18.4329 9.3326L19.1932 15.6317C19.3018 16.5006 18.976 17.2608 18.4329 17.9124C18.3243 18.021 18.2157 18.1296 17.9985 18.3468C17.8899 18.4555 17.7813 18.6727 17.7813 18.7813L18.2157 24.7546C18.2157 25.0804 18.4329 25.2976 18.7588 25.2976H23.103C23.4288 25.2976 23.646 25.0804 23.646 24.7546L24.189 17.6952C24.6234 17.6952 25.0579 17.478 25.2751 17.1522C25.6009 16.8264 25.7095 16.2833 25.7095 15.8489Z" fill="white"/>
</g>
<defs>
<clipPath id="clip0_331_2263">
<rect width="26.0653" height="26.0653" fill="white" transform="translate(0.295898 0.318359)"/>
</clipPath>
</defs>
</svg>
