<svg width="27" height="27" viewBox="0 0 27 27" fill="none" xmlns="http://www.w3.org/2000/svg">
<g clip-path="url(#clip0_331_2365)">
<path d="M18.4097 26.4817H15.3843C14.9667 26.4817 14.6279 26.1431 14.6279 25.7254V11.6069C14.6279 11.1892 14.9667 10.8506 15.3843 10.8506H18.4097C18.8274 10.8506 19.166 11.1892 19.166 11.6069V25.7254C19.166 26.1431 18.8274 26.4817 18.4097 26.4817Z" fill="white"/>
<path d="M11.3164 26.4821H8.29101C7.87325 26.4821 7.53467 26.1435 7.53467 25.7257V15.6411C7.53467 15.2233 7.87325 14.8848 8.29101 14.8848H11.3164C11.734 14.8848 12.0727 15.2233 12.0727 15.6411V25.7257C12.0727 26.1435 11.734 26.4821 11.3164 26.4821Z" fill="white"/>
<path d="M25.5019 26.4819H22.4766C22.0588 26.4819 21.7202 26.1433 21.7202 25.7255V7.57324C21.7202 7.15548 22.0588 6.81689 22.4766 6.81689H25.5019C25.9197 6.81689 26.2583 7.15548 26.2583 7.57324V25.7255C26.2583 26.1433 25.9197 26.4819 25.5019 26.4819Z" fill="white"/>
<path d="M15.8013 3.36149L12.7759 0.840338C12.7755 0.839944 12.7749 0.83955 12.7745 0.839156C12.7696 0.835217 12.7643 0.831671 12.7594 0.827732C12.7464 0.81749 12.7334 0.807248 12.7198 0.79799C12.7125 0.793066 12.7048 0.788339 12.6971 0.783612C12.6855 0.776127 12.6737 0.76884 12.6619 0.762143C12.6534 0.757219 12.6446 0.752885 12.6359 0.748355C12.6243 0.742446 12.6124 0.736734 12.6006 0.731416C12.5916 0.72728 12.5823 0.723341 12.5729 0.719598C12.5606 0.714674 12.5482 0.710341 12.5358 0.706008C12.5266 0.702856 12.5175 0.699705 12.5083 0.696947C12.4923 0.69222 12.4761 0.688281 12.46 0.684539C12.4541 0.68316 12.4482 0.681387 12.4421 0.680205C12.4196 0.675675 12.3972 0.672327 12.3745 0.669766C12.3678 0.669175 12.3611 0.668781 12.3544 0.66819C12.3371 0.666812 12.32 0.665827 12.3026 0.66563C12.2989 0.66563 12.2953 0.665039 12.2918 0.665039C12.2877 0.665039 12.2837 0.66563 12.2798 0.66563C12.2628 0.665827 12.2461 0.666812 12.2293 0.66819C12.2219 0.668781 12.2146 0.669175 12.2073 0.669963C12.1884 0.67213 12.1697 0.675084 12.151 0.67863C12.1464 0.679417 12.1419 0.680008 12.1376 0.680796C12.1159 0.685326 12.0944 0.691038 12.073 0.697538C12.0641 0.700099 12.0554 0.703447 12.0468 0.706402C12.034 0.710735 12.0212 0.715265 12.0086 0.720386C11.9991 0.724129 11.9898 0.728462 11.9804 0.732598C11.969 0.737916 11.9575 0.743234 11.9461 0.749143C11.9371 0.75387 11.9278 0.758794 11.9187 0.763915C11.9077 0.770218 11.8969 0.776915 11.886 0.783809C11.8776 0.789127 11.8689 0.794445 11.8608 0.800354C11.8579 0.802324 11.8549 0.803899 11.8522 0.805869L8.32255 3.32702C7.98259 3.56988 7.904 4.0422 8.14686 4.38216C8.29439 4.58878 8.5268 4.69888 8.76297 4.69888C8.91502 4.69888 9.06865 4.65318 9.2018 4.55785L11.4206 2.97307C11.096 5.14697 10.0907 7.15148 8.50986 8.73232C6.55873 10.6835 3.96214 11.7581 1.19873 11.7581C0.780965 11.7581 0.442383 12.0967 0.442383 12.5144C0.442383 12.9322 0.780965 13.2708 1.19873 13.2708C4.36612 13.2708 7.34265 12.039 9.57938 9.80204C11.4511 7.93028 12.6186 5.54051 12.95 2.95456L14.833 4.52358C15.1539 4.79086 15.6307 4.74753 15.8982 4.42667C16.1657 4.10582 16.1224 3.62897 15.8013 3.36149Z" fill="white"/>
<path d="M2.71142 20.9357C2.29444 20.9357 1.95507 20.5963 1.95507 20.1793C1.95507 19.7624 2.29444 19.423 2.71142 19.423H4.22411C4.64187 19.423 4.98045 19.0844 4.98045 18.6667C4.98045 18.2489 4.64187 17.9103 4.22411 17.9103H3.46776V17.6582C3.46776 17.2404 3.12918 16.9019 2.71142 16.9019C2.29366 16.9019 1.95507 17.2404 1.95507 17.6582V18.0403C1.07464 18.3527 0.442383 19.1933 0.442383 20.1793C0.442383 21.4305 1.4603 22.4484 2.71142 22.4484C3.12839 22.4484 3.46776 22.7878 3.46776 23.2047C3.46776 23.6217 3.12839 23.9611 2.71142 23.9611H1.19873C0.780965 23.9611 0.442383 24.2997 0.442383 24.7174C0.442383 25.1352 0.780965 25.4738 1.19873 25.4738H1.95507V25.7259C1.95507 26.1436 2.29366 26.4822 2.71142 26.4822C3.12918 26.4822 3.46776 26.1436 3.46776 25.7259V25.3438C4.3482 25.0314 4.98045 24.1907 4.98045 23.2047C4.98045 21.9536 3.96254 20.9357 2.71142 20.9357Z" fill="white"/>
</g>
<defs>
<clipPath id="clip0_331_2365">
<rect width="25.8166" height="25.8166" fill="white" transform="translate(0.442383 0.665039)"/>
</clipPath>
</defs>
</svg>
