<svg width="39" height="52" viewBox="0 0 39 52" fill="none" xmlns="http://www.w3.org/2000/svg">
<path d="M4.0498 19.2969C4.0498 27.6972 10.8626 34.5313 19.2367 34.5313C27.6109 34.5313 34.4237 27.6972 34.4237 19.2969C34.4237 10.8966 27.6109 4.0625 19.2367 4.0625C10.8626 4.0625 4.0498 10.8966 4.0498 19.2969ZM19.2367 6.09375C26.4944 6.09375 32.3988 12.0165 32.3988 19.2969C32.3988 26.5773 26.4944 32.5 19.2367 32.5C11.979 32.5 6.07473 26.5773 6.07473 19.2969C6.07473 12.0165 11.979 6.09375 19.2367 6.09375Z" fill="#29A8DF"/>
<path d="M9.86004 17.4862L13.7845 21.365L12.8816 26.8165C12.8187 27.1962 12.9749 27.5786 13.2854 27.8047C13.5955 28.0309 14.0064 28.0614 14.3469 27.8845L19.2364 25.3375L24.1255 27.8845C24.4632 28.0602 24.8741 28.0329 25.187 27.8047C25.4974 27.5786 25.6537 27.1962 25.5908 26.8165L24.6879 21.365L28.6124 17.4862C28.8856 17.2164 28.9833 16.815 28.8647 16.4488C28.746 16.083 28.4316 15.816 28.0523 15.7585L22.606 14.936L20.1417 9.9924C19.9704 9.64844 19.6196 9.43103 19.2364 9.43103C18.8528 9.43103 18.5024 9.64844 18.3307 9.9924L15.8664 14.936L10.4201 15.7585C10.0408 15.8156 9.72636 16.083 9.60772 16.4488C9.48907 16.815 9.58715 17.2164 9.86004 17.4862ZM16.6878 16.8661C17.0137 16.8169 17.2953 16.6118 17.4428 16.3163L19.2364 12.7175L21.03 16.3163C21.1775 16.6118 21.4591 16.8169 21.785 16.8661L25.749 17.4648L22.8923 20.2875C22.6578 20.5196 22.5502 20.8517 22.604 21.1778L23.2613 25.1455L19.7027 23.292C19.5567 23.2158 19.3966 23.1777 19.2364 23.1777C19.0762 23.1777 18.916 23.2158 18.7697 23.292L15.2111 25.1455L15.8684 21.1778C15.9226 20.8517 15.815 20.5196 15.5801 20.2875L12.7238 17.4648L16.6878 16.8661Z" fill="#29A8DF"/>
<path d="M20.2495 1.01563C20.2495 1.5766 19.7963 2.03125 19.2371 2.03125C18.6778 2.03125 18.2246 1.5766 18.2246 1.01563C18.2246 0.454652 18.6778 0 19.2371 0C19.7963 0 20.2495 0.454652 20.2495 1.01563Z" fill="#29A8DF"/>
<path d="M14.4652 0.598621C5.94822 2.77944 0 10.4684 0 19.2969C0 24.7801 2.29821 29.9467 6.33264 33.6057L0.232945 44.3892C0.0367808 44.7363 0.0613015 45.1664 0.295433 45.4885C0.529565 45.8111 0.929805 45.9662 1.31937 45.8848L8.24643 44.4419L10.6811 51.324C10.8132 51.6985 11.1513 51.9608 11.546 51.9961C11.9407 52.0314 12.3192 51.8318 12.515 51.4863L19.2368 39.632L25.9582 51.4863C26.1393 51.8056 26.4763 51.9996 26.8378 51.9996C26.8674 51.9996 26.8975 51.9984 26.9272 51.9961C27.3219 51.9608 27.66 51.6981 27.7925 51.324L30.2268 44.4419L37.1538 45.8848C37.543 45.9658 37.9436 45.8107 38.1777 45.4885C38.4123 45.1664 38.4364 44.7363 38.2402 44.3892L32.1405 33.6057C36.175 29.9467 38.4732 24.7801 38.4732 19.2969C38.4732 10.4684 32.525 2.77944 24.0084 0.598621C23.4662 0.459766 22.9153 0.787861 22.7768 1.33138C22.6384 1.8749 22.9655 2.42794 23.5073 2.56679C31.1269 4.51791 36.4487 11.3976 36.4487 19.2969C36.4487 28.9108 28.665 36.5625 19.2368 36.5625C9.8019 36.5625 2.02493 28.9044 2.02493 19.2969C2.02493 11.3976 7.34629 4.51791 14.9659 2.56679C15.5077 2.42794 15.8348 1.8749 15.6967 1.33138C15.5583 0.787861 15.0074 0.459766 14.4652 0.598621ZM11.8494 48.5525L9.85965 42.928C9.69037 42.4496 9.19522 42.1699 8.69966 42.273L3.09829 43.4398L7.92568 34.9054C10.7404 36.958 14.0732 38.2085 17.5389 38.518L11.8494 48.5525ZM29.7735 42.273C29.2784 42.1699 28.7828 42.4496 28.6135 42.928L26.6242 48.5525L20.9342 38.518C24.4003 38.2085 27.7328 36.958 30.5479 34.9054L35.3753 43.4398L29.7735 42.273Z" fill="#29A8DF"/>
</svg>
