<svg width="29" height="30" viewBox="0 0 29 30" fill="none" xmlns="http://www.w3.org/2000/svg">
<g clip-path="url(#clip0_99_1535)">
<path d="M14.27 29.0449C22.0268 29.0449 28.315 22.7568 28.315 15C28.315 7.2432 22.0268 0.95507 14.27 0.95507C6.51323 0.95507 0.225098 7.2432 0.225098 15C0.225098 22.7568 6.51323 29.0449 14.27 29.0449Z" fill="#989898"/>
<path d="M13.5787 17.87C12.4903 17.7572 11.509 17.4893 10.6681 16.8314C10.5614 16.7532 10.459 16.6693 10.3613 16.5801C10.2023 16.4383 10.1006 16.2433 10.0754 16.0318C10.0503 15.8202 10.1034 15.6068 10.2248 15.4317C10.3462 15.2566 10.5275 15.1321 10.7345 15.0815C10.9414 15.0309 11.1597 15.0578 11.3482 15.1571C11.4325 15.1969 11.513 15.2446 11.5884 15.2994C12.3674 15.828 13.2852 16.1146 14.2266 16.1232C15.168 16.1317 16.0909 15.8618 16.8793 15.3474C17.0319 15.2255 17.2071 15.1351 17.3949 15.0813C17.5681 15.0309 17.7531 15.0399 17.9206 15.1069C18.0881 15.1739 18.2283 15.295 18.3189 15.4509C18.5499 15.8205 18.5462 16.1901 18.2635 16.4821C17.8289 16.9222 17.3036 17.2621 16.7241 17.4782C16.1604 17.6804 15.5738 17.8113 14.9777 17.8681C15.0682 17.9661 15.1107 18.0141 15.1625 18.0714C15.9719 18.8845 16.7832 19.6921 17.5889 20.5089C17.718 20.625 17.8058 20.7799 17.8391 20.9502C17.8725 21.1206 17.8495 21.2971 17.7737 21.4533C17.6952 21.6238 17.5681 21.7674 17.4084 21.8661C17.2486 21.9647 17.0633 22.014 16.8756 22.0077C16.6553 21.9893 16.4504 21.8875 16.3027 21.7231C15.691 21.1095 15.0701 20.5052 14.4713 19.8751C14.2976 19.6903 14.2145 19.7272 14.0611 19.8751C13.4451 20.5071 12.8229 21.1317 12.1946 21.749C12.0781 21.8777 11.9222 21.9642 11.7514 21.9949C11.5805 22.0257 11.4043 21.999 11.2502 21.919C11.0829 21.8414 10.9415 21.717 10.8432 21.561C10.7448 21.4049 10.6937 21.2238 10.6958 21.0393C10.7134 20.8111 10.8195 20.5989 10.9915 20.448C11.7911 19.6496 12.5919 18.8488 13.3939 18.0455C13.4531 18.0086 13.5011 17.9568 13.5787 17.87Z" fill="white"/>
<path d="M14.242 15.0869C13.5378 15.0828 12.8506 14.8697 12.2677 14.4745C11.6847 14.0794 11.2323 13.5201 10.9676 12.8675C10.703 12.2148 10.6381 11.4983 10.7812 10.8088C10.9243 10.1192 11.269 9.48772 11.7715 8.99431C12.274 8.50091 12.9117 8.16783 13.6037 8.03733C14.2958 7.90683 15.011 7.98477 15.6587 8.26127C16.3063 8.53778 16.8573 9.00039 17.2417 9.59045C17.6262 10.1805 17.8267 10.8714 17.8179 11.5756C17.8057 12.5143 17.423 13.4101 16.7532 14.0678C16.0834 14.7255 15.1807 15.0918 14.242 15.0869ZM16.0069 11.5294C16.0061 11.1852 15.9032 10.8489 15.7112 10.5632C15.5192 10.2774 15.2467 10.0551 14.9282 9.92442C14.6098 9.7937 14.2597 9.76044 13.9223 9.82886C13.5849 9.89728 13.2754 10.0643 13.033 10.3088C12.7906 10.5532 12.6263 10.8641 12.5607 11.2021C12.4952 11.54 12.5314 11.8898 12.6648 12.2072C12.7983 12.5245 13.0229 12.7951 13.3102 12.9847C13.5976 13.1743 13.9347 13.2743 14.279 13.2721C14.5069 13.2714 14.7325 13.2257 14.9428 13.1377C15.153 13.0497 15.3439 12.921 15.5044 12.7592C15.6649 12.5973 15.7919 12.4054 15.8781 12.1943C15.9643 11.9833 16.0081 11.7574 16.0069 11.5294Z" fill="white"/>
</g>
<defs>
<clipPath id="clip0_99_1535">
<rect x="0.225098" y="0.95507" width="28.0899" height="28.0899" rx="14.0449" fill="white"/>
</clipPath>
</defs>
</svg>
