<svg width="15" height="20" viewBox="0 0 15 20" fill="none" xmlns="http://www.w3.org/2000/svg">
<path d="M6.03286 11.0437C6.82587 12.305 7.87527 13.3676 9.10735 14.1569L11.2009 13.0236C11.2618 12.9959 11.3292 12.9882 11.3941 13.0014C11.459 13.0146 11.5184 13.0481 11.5643 13.0974L14.4747 16.0317C14.5863 16.1374 14.6726 16.2689 14.7268 16.4158C14.781 16.5628 14.8017 16.7212 14.7871 16.8784C14.7725 17.0357 14.7231 17.1876 14.6428 17.322C14.5625 17.4565 14.4535 17.5699 14.3243 17.6533L12.4418 18.9541C12.1722 19.1405 11.8631 19.2547 11.5421 19.2865C11.2211 19.3182 10.8982 19.2667 10.6022 19.1363C7.64795 17.8443 5.1082 15.7081 3.27327 12.9717C1.49323 10.223 0.519904 6.98783 0.47136 3.65875C0.46707 3.32727 0.544916 2.99957 0.697352 2.70741C0.849787 2.41524 1.07164 2.16852 1.34142 1.99116L3.28519 0.681962C3.40675 0.594329 3.54552 0.536374 3.6911 0.512438C3.83669 0.488502 3.98531 0.499205 4.12584 0.543745C4.26637 0.588286 4.39517 0.665509 4.5026 0.769634C4.61003 0.873758 4.69329 1.00208 4.74617 1.14501L6.30493 5.05163C6.33285 5.11368 6.34086 5.1836 6.32777 5.2511C6.31469 5.31859 6.2812 5.38009 6.23225 5.42652L4.40656 6.97271C4.65146 8.44127 5.207 9.83191 6.03286 11.0437Z" fill="#1776BA"/>
</svg>
