<svg width="17" height="14" viewBox="0 0 17 14" fill="none" xmlns="http://www.w3.org/2000/svg">
<path fill-rule="evenodd" clip-rule="evenodd" d="M1.77326 6.02691C6.06821 4.05119 8.93219 2.74867 10.3652 2.11936C14.4567 0.322542 15.3069 0.0104165 15.861 0.000109891C15.9829 -0.00215693 16.2554 0.0297341 16.4319 0.180964C16.581 0.30866 16.622 0.481158 16.6416 0.602228C16.6612 0.723297 16.6857 0.999097 16.6662 1.2146C16.4445 3.6743 15.4851 9.64335 14.9971 12.3983C14.7905 13.564 14.3839 13.9548 13.9902 13.9931C13.1346 14.0762 12.4849 13.3961 11.6563 12.8225C10.3596 11.9251 9.62704 11.3664 8.36837 10.4907C6.91376 9.47859 7.85672 8.92233 8.6857 8.01324C8.90265 7.77533 12.6723 4.15509 12.7453 3.82668C12.7544 3.7856 12.7629 3.6325 12.6767 3.55166C12.5906 3.47081 12.4634 3.49846 12.3717 3.52045C12.2416 3.55161 10.1701 4.99723 6.15723 7.8573C5.56925 8.2836 5.03667 8.49131 4.5595 8.48042C4.03346 8.46842 3.02156 8.16638 2.26932 7.90821C1.34667 7.59154 0.613361 7.42412 0.677216 6.88633C0.710475 6.60621 1.07582 6.31974 1.77326 6.02691Z" fill="#262626"/>
</svg>
