<svg width="17" height="18" viewBox="0 0 17 18" fill="none" xmlns="http://www.w3.org/2000/svg">
<path d="M13.7708 2.90107C12.2656 1.30732 10.2586 0.421906 8.14018 0.421906C3.736 0.421906 0.168053 4.19968 0.168053 8.86288C0.168053 10.3386 0.558298 11.8143 1.22729 13.0538L0.112305 17.4219L4.34924 16.2413C5.51997 16.8907 6.8022 17.2448 8.14018 17.2448C12.5444 17.2448 16.1123 13.467 16.1123 8.80385C16.0566 6.61982 15.2761 4.49482 13.7708 2.90107ZM11.9869 11.8733C11.8196 12.3455 11.0391 12.8177 10.6489 12.8768C10.3144 12.9358 9.8684 12.9358 9.42241 12.8177C9.14366 12.6997 8.75342 12.5816 8.30743 12.3455C6.30046 11.4601 5.01823 9.3351 4.90673 9.15802C4.79523 9.03996 4.07049 8.03649 4.07049 6.97399C4.07049 5.91149 4.57223 5.43927 4.73948 5.20315C4.90673 4.96704 5.12973 4.96704 5.29697 4.96704C5.40847 4.96704 5.57572 4.96704 5.68722 4.96704C5.79871 4.96704 5.96596 4.90802 6.13321 5.32121C6.30046 5.7344 6.6907 6.79691 6.74645 6.85593C6.8022 6.97399 6.8022 7.09204 6.74645 7.2101C6.6907 7.32816 6.63495 7.44621 6.52345 7.56427C6.41195 7.68232 6.30046 7.8594 6.24471 7.91843C6.13321 8.03649 6.02171 8.15454 6.13321 8.33163C6.24471 8.56774 6.63495 9.21704 7.24819 9.80732C8.02868 10.5157 8.64192 10.7518 8.86492 10.8698C9.08791 10.9879 9.19941 10.9288 9.31091 10.8108C9.42241 10.6927 9.81265 10.2205 9.92415 9.98441C10.0356 9.74829 10.2029 9.80732 10.3701 9.86635C10.5374 9.92538 11.5409 10.4566 11.7081 10.5747C11.9311 10.6927 12.0426 10.7518 12.0984 10.8108C12.1541 10.9879 12.1541 11.4011 11.9869 11.8733Z" fill="#262626"/>
</svg>
