<svg width="29" height="30" viewBox="0 0 29 30" fill="none" xmlns="http://www.w3.org/2000/svg">
<g clip-path="url(#clip0_99_1546)">
<path d="M14.393 29.0781C22.1681 29.0781 28.4711 22.7751 28.4711 15C28.4711 7.22489 22.1681 0.921909 14.393 0.921909C6.61792 0.921909 0.314941 7.22489 0.314941 15C0.314941 22.7751 6.61792 29.0781 14.393 29.0781Z" fill="#989898"/>
<path d="M19.825 12.1756C19.7615 11.9435 19.6363 11.7316 19.4619 11.5612C19.2876 11.3909 19.0702 11.2679 18.8316 11.2047C17.9531 10.9753 14.4418 10.9753 14.4418 10.9753C14.4418 10.9753 10.9305 10.9753 10.0521 11.2047C9.81342 11.2679 9.59606 11.3909 9.42172 11.5612C9.24739 11.7316 9.12219 11.9435 9.05867 12.1756C8.82373 13.0325 8.82373 14.8193 8.82373 14.8193C8.82373 14.8193 8.82373 16.6061 9.05867 17.463C9.12219 17.6951 9.24739 17.907 9.42172 18.0774C9.59606 18.2477 9.81342 18.3707 10.0521 18.4339C10.9305 18.6633 14.4418 18.6633 14.4418 18.6633C14.4418 18.6633 17.9531 18.6633 18.8316 18.4339C19.0702 18.3707 19.2876 18.2477 19.4619 18.0774C19.6363 17.907 19.7615 17.6951 19.825 17.463C20.0599 16.6061 20.0599 14.8193 20.0599 14.8193C20.0599 14.8193 20.0599 13.0325 19.825 12.1756Z" fill="white"/>
<path d="M13.5547 16.2977V13.3409L16.5116 14.8193L13.5547 16.2977Z" fill="#989898"/>
</g>
<defs>
<clipPath id="clip0_99_1546">
<rect x="0.314941" y="0.921909" width="28.1562" height="28.1562" rx="14.0781" fill="white"/>
</clipPath>
</defs>
</svg>
