<svg width="59" height="55" viewBox="0 0 59 55" fill="none" xmlns="http://www.w3.org/2000/svg">
<path d="M8.85303 37.684H30.5686" stroke="#29A8DF" stroke-width="1.81998" stroke-miterlimit="10" stroke-linejoin="round"/>
<path d="M29.6642 23.6075L19.2589 33.8449L16.5444 31.2856L9.7583 37.684" stroke="#29A8DF" stroke-width="1.81998" stroke-miterlimit="10" stroke-linecap="round"/>
<path d="M29.6638 29.5794V23.6075H23.3301" stroke="#29A8DF" stroke-width="1.81998" stroke-miterlimit="10" stroke-linecap="square"/>
<path d="M37.8074 12.0905V49.6276C37.8074 49.6276 37.8074 53.8932 33.2833 53.8932H6.13882C1.61475 53.8932 1.61475 49.6276 1.61475 49.6276V5.26558C1.61475 5.26558 1.61475 1 6.13882 1H25.5924" stroke="#2A2A2A" stroke-width="1.81998" stroke-miterlimit="10" stroke-linecap="round" stroke-linejoin="round"/>
<path d="M37.807 11.6639H31.0209C26.0444 11.6639 26.0444 7.39837 26.0444 7.39837V1L37.807 11.6639Z" stroke="#2A2A2A" stroke-width="1.81998" stroke-miterlimit="10" stroke-linecap="round" stroke-linejoin="round"/>
<path d="M29.2119 3.55933H52.7371C57.7136 3.55933 57.7136 7.82491 57.7136 7.82491V47.0682C57.7136 47.0682 57.7136 51.3338 53.1895 51.3338H37.8077" stroke="#2A2A2A" stroke-width="1.81998" stroke-miterlimit="10" stroke-linecap="round" stroke-linejoin="round"/>
<path d="M43.6885 18.4889H36.9023" stroke="#2A2A2A" stroke-width="1.81998" stroke-miterlimit="10" stroke-linejoin="round"/>
<path d="M51.3794 24.4607H36.9023" stroke="#2A2A2A" stroke-width="1.81998" stroke-miterlimit="10" stroke-linejoin="round"/>
<path d="M51.3794 27.8732H36.9023" stroke="#2A2A2A" stroke-width="1.81998" stroke-miterlimit="10" stroke-linejoin="round"/>
<path d="M41.4263 42.8027L42.7835 39.8168L44.1407 41.9496L46.4028 40.6699L48.2124 41.9496H51.3792" stroke="#2A2A2A" stroke-width="1.81998" stroke-miterlimit="10" stroke-linejoin="round"/>
<path d="M47.3077 31.2856H36.9023" stroke="#2A2A2A" stroke-width="1.81998" stroke-miterlimit="10" stroke-linejoin="round"/>
</svg>
