<svg width="63" height="51" viewBox="0 0 63 51" fill="none" xmlns="http://www.w3.org/2000/svg">
<path d="M59.756 36.7305C60.5499 36.4325 61.2408 35.9331 61.7522 35.2877C62.2636 34.6423 62.5755 33.8759 62.6533 33.0736C62.7311 32.2713 62.5719 31.4643 62.1931 30.7421C61.8144 30.0199 61.231 29.4107 60.5076 28.9819C60.0899 28.7421 59.746 28.4033 59.5102 27.9992C59.2745 27.5952 59.155 27.14 59.1638 26.6789V16.722C59.1378 13.403 57.7213 10.2282 55.2229 7.88993C52.7246 5.55162 49.3471 4.23941 45.8268 4.23941C42.3065 4.23941 38.929 5.55162 36.4307 7.88993C33.9323 10.2282 32.5157 13.403 32.4898 16.722V26.6789C32.4985 27.1401 32.379 27.5954 32.1431 27.9995C31.9072 28.4036 31.5632 28.7424 31.1453 28.9822C30.1196 29.5905 29.3881 30.5539 29.1079 31.6653C28.795 31.5231 28.4751 31.381 28.1457 31.2346C27.5482 30.9694 26.9169 30.6886 26.2533 30.3745L26.2449 30.3705C25.4507 29.9939 24.6103 29.5685 23.7249 29.06V27.8592C24.2218 27.499 24.6886 27.1035 25.1215 26.6762C26.7652 25.0597 28.0252 22.939 28.4916 21.003C28.6143 20.4929 28.7255 19.9872 28.8117 19.45C29.504 19.3278 30.1486 19.0323 30.6781 18.5944C31.2076 18.1566 31.6025 17.5924 31.8212 16.9612C32.04 16.33 32.0746 15.6549 31.9215 15.0067C31.7684 14.3586 31.4331 13.7612 30.9509 13.2772V9.2285C30.9509 6.9649 29.9023 4.82995 28.1457 3.51899C26.5457 2.32463 24.5482 1.91513 22.5225 2.36558C21.6208 2.56578 20.6507 2.15855 19.8118 1.76146C17.0259 0.443564 13.9889 0.525464 11.4788 1.98566C10.1742 2.75295 9.09751 3.82001 8.34978 5.08683C7.60204 6.35364 7.2077 7.77872 7.20371 9.2285V13.2973C6.99887 13.5064 6.81997 13.7368 6.67048 13.9841C6.66058 14.0004 6.65141 14.0172 6.64285 14.0342C6.34429 14.5456 6.17847 15.1165 6.15895 15.7001C6.13944 16.2836 6.26678 16.8632 6.53057 17.3914C6.79436 17.9197 7.18708 18.3814 7.67658 18.739C8.16608 19.0966 8.73844 19.3397 9.3468 19.4486C9.43342 19.987 9.54538 20.4929 9.66891 21.003C10.1335 22.9388 11.3924 25.0597 13.0365 26.6765C13.4741 27.1087 13.9465 27.5083 14.4494 27.8718V29.0548C13.6513 29.5154 12.823 29.9487 11.974 30.3537C11.9363 30.369 11.8998 30.3868 11.8647 30.407C11.5609 30.5507 11.2546 30.6906 10.9457 30.8265C10.632 30.9682 10.3261 31.1035 10.0288 31.236C7.25499 32.4654 5.06388 33.4364 3.50567 36.0566C1.92864 38.7076 1.15062 42.8433 0.903784 49.8844C0.900029 49.9911 0.919097 50.0975 0.959853 50.1972C1.00061 50.2969 1.06222 50.3878 1.14101 50.4645C1.21981 50.5413 1.31418 50.6023 1.41851 50.644C1.52283 50.6856 1.63498 50.7071 1.74828 50.707H15.5775C15.5929 50.7078 15.6085 50.7104 15.6238 50.7104C15.6496 50.7104 15.6752 50.7093 15.7005 50.707H22.4699C22.4954 50.7093 22.521 50.7104 22.5467 50.7104C22.5619 50.7104 22.5776 50.7078 22.5929 50.707H29.9595C29.9819 50.7087 30.0043 50.7103 30.027 50.7103H61.626C61.7393 50.7104 61.8514 50.6889 61.9558 50.6473C62.0601 50.6056 62.1545 50.5446 62.2333 50.4678C62.3121 50.391 62.3737 50.3001 62.4144 50.2004C62.4552 50.1007 62.4742 49.9943 62.4705 49.8876C62.2459 43.4574 61.5344 39.6781 60.0914 37.2501C59.9828 37.0684 59.8707 36.896 59.756 36.7305ZM32.0479 30.3283C32.7062 29.9444 33.2482 29.4068 33.6215 28.7674C33.9948 28.1281 34.1867 27.4087 34.1787 26.6789V16.722C34.1787 13.8093 35.4059 11.0159 37.5903 8.95628C39.7747 6.89667 42.7374 5.73959 45.8267 5.73959C48.9159 5.73959 51.8786 6.89667 54.063 8.95628C56.2475 11.0159 57.4747 13.8093 57.4747 16.722V26.6789C57.4665 27.4086 57.6583 28.1278 58.0315 28.7671C58.4046 29.4064 58.9465 29.944 59.6046 30.3279C60.1049 30.6235 60.4993 31.0543 60.7363 31.5642C60.9733 32.0741 61.0419 32.6395 60.9333 33.1867C60.8247 33.734 60.5439 34.2377 60.1274 34.6323C59.7108 35.0269 59.1779 35.2941 58.5981 35.3991C57.3675 34.2696 55.8682 33.605 54.1148 32.8278C53.843 32.7075 53.5637 32.5837 53.2685 32.4505C52.9927 32.3297 52.7185 32.205 52.4459 32.0763C52.4107 32.056 52.374 32.0381 52.336 32.0227C51.5823 31.664 50.8422 31.2779 50.1255 30.8659V29.8738C52.2676 28.3317 53.9347 25.871 54.4852 23.5835C54.9896 21.4987 55.3074 19.3416 54.0835 14.0411C54.0382 13.8428 53.9141 13.6683 53.7368 13.5535C53.5594 13.4386 53.3422 13.3921 53.1296 13.4233C49.0119 14.0212 46.0359 13.269 44.0332 11.1239C43.9539 11.039 43.8564 10.971 43.7471 10.9244C43.6378 10.8778 43.5192 10.8537 43.3992 10.8537H43.385C43.2627 10.8557 43.1423 10.8827 43.0321 10.9328C42.9219 10.9829 42.8246 11.055 42.7469 11.1441C41.3536 12.7414 40.3092 13.0665 38.2581 13.4274C38.0947 13.4561 37.9439 13.5297 37.8247 13.6388C37.7054 13.748 37.623 13.8879 37.5877 14.041C36.3668 19.3288 36.6828 21.4905 37.186 23.5833C37.7369 25.8622 39.3949 28.3122 41.5251 29.8554V30.869C40.2351 31.5916 38.9034 32.246 37.5363 32.8291C35.7845 33.6063 34.2873 34.2711 33.0569 35.3998C32.4771 35.2948 31.9441 35.0277 31.5275 34.6331C31.1109 34.2386 30.8299 33.7349 30.7211 33.1877C30.6124 32.6405 30.6808 32.0751 30.9176 31.5651C31.1544 31.0551 31.5477 30.6242 32.0479 30.3283ZM42.1634 32.3656L44.5592 35.3069L42.1505 36.5634L40.7187 33.1292C41.183 32.8976 41.6642 32.6456 42.1634 32.3656ZM38.8337 23.2303C38.3767 21.3286 38.1087 19.4898 39.1232 14.8914C40.7478 14.578 42.0387 14.1592 43.4253 12.8181C45.6514 14.781 48.6666 15.5303 52.5941 15.0986C53.5575 19.5561 53.2898 21.3634 52.8384 23.2299C52.1105 26.2537 48.8954 29.7919 45.8375 29.8292C42.7807 29.7919 39.5643 26.2534 38.8337 23.2303ZM43.2148 31.0409V30.8314C44.0316 31.2015 44.9227 31.4031 45.8287 31.4229H45.8466C46.7436 31.4037 47.6262 31.206 48.4366 30.8428V31.0443L45.8273 34.2486L43.2148 31.0409ZM49.4914 32.3641C49.9659 32.6315 50.448 32.8881 50.9375 33.1338L49.5066 36.5644L47.0938 35.3072L49.4914 32.3641ZM24.7968 31.46L23.165 35.3763L20.3553 33.908L23.0855 30.5563C23.6771 30.8902 24.2483 31.1883 24.7968 31.46ZM21.0494 36.0919L20.1896 37.7193H17.982L17.1224 36.0927L19.0868 35.0669L21.0494 36.0919ZM16.14 29.2284V28.8546C17.0524 29.2838 18.0537 29.5186 19.073 29.5421H19.0892C20.1137 29.5183 21.1199 29.2812 22.0358 28.8477V29.23L19.088 32.8487L16.14 29.2284ZM29.5723 14.2345C29.8538 14.4698 30.0677 14.7682 30.1944 15.1022C30.321 15.4361 30.3563 15.7948 30.2969 16.145C30.2376 16.4952 30.0855 16.8256 29.8547 17.1057C29.624 17.3858 29.322 17.6065 28.9768 17.7474C29.0151 16.6751 28.9406 15.4101 28.684 13.7787C28.8599 13.8246 29.029 13.8911 29.1875 13.9765C29.2012 13.9839 29.2152 13.9908 29.2293 13.9975C29.3486 14.0646 29.461 14.142 29.5651 14.2288L29.5723 14.2345ZM9.1808 17.741C9.11287 17.7128 9.04592 17.6824 8.98101 17.648C8.46605 17.3711 8.08841 16.9132 7.93081 16.3744C7.7732 15.8356 7.84847 15.2599 8.14014 14.7733C8.14738 14.7619 8.15425 14.7491 8.16077 14.7367C8.27401 14.5567 8.41483 14.3934 8.57867 14.2522C8.58531 14.2472 8.5917 14.2417 8.59822 14.2365C8.84933 14.0252 9.14802 13.8704 9.47178 13.7838C9.21747 15.4109 9.14291 16.6726 9.1808 17.741ZM10.1053 10.5653C9.97872 11.1154 9.86713 11.6333 9.76917 12.1228C9.47141 12.1445 9.17729 12.1984 8.89258 12.2834V9.2285C8.89548 8.05023 9.21565 6.89195 9.82306 5.86223C10.4305 4.8325 11.3052 3.96506 12.3654 3.3412C14.3949 2.16049 16.7701 2.10498 19.0534 3.18502C19.851 3.56256 21.3357 4.26564 22.9091 3.91597C23.6296 3.74467 24.3822 3.73242 25.1085 3.88017C25.8348 4.02792 26.5151 4.33169 27.0965 4.76784C28.4518 5.77941 29.2608 7.44685 29.2608 9.2285V12.2808C28.9767 12.1964 28.6831 12.1434 28.3859 12.1231C28.2875 11.6331 28.1754 11.1149 28.0481 10.5647C28.0025 10.3664 27.8783 10.1921 27.7009 10.0774C27.5234 9.96261 27.3062 9.91612 27.0936 9.94739C22.5482 10.6105 19.2595 9.77779 17.04 7.39942C16.9592 7.31279 16.8594 7.24376 16.7475 7.1971C16.6355 7.15044 16.5142 7.12727 16.3919 7.1292C16.2695 7.13113 16.1491 7.1581 16.0389 7.20825C15.9287 7.25841 15.8313 7.33054 15.7536 7.41966C14.2076 9.19187 13.0498 9.55188 10.7763 9.95092C10.6127 9.9796 10.4617 10.0532 10.3423 10.1625C10.223 10.2718 10.1405 10.4119 10.1053 10.5653ZM11.3166 20.6496C10.8099 18.5537 10.5116 16.5263 11.6404 11.4162C13.4562 11.0704 14.8875 10.6132 16.4311 9.09894C18.8767 11.2904 22.2059 12.1206 26.5594 11.6242C27.6373 16.5696 27.3423 18.5758 26.8436 20.6501C26.0369 23.9975 22.4713 27.9121 19.0802 27.949C15.685 27.9123 12.1204 23.9981 11.3166 20.6496ZM15.0868 30.5517L17.8196 33.9073L15.0068 35.3766L13.3755 31.4637C13.9564 31.173 14.5268 30.869 15.0868 30.5517ZM14.8972 49.1143H2.62474C2.88907 42.9237 3.62161 39.1177 4.97919 36.8346C6.27248 34.6598 8.14955 33.8278 10.7473 32.6766C11.0483 32.5431 11.3574 32.4062 11.6673 32.2665C11.7314 32.2383 11.7947 32.2096 11.8587 32.1806L13.7867 36.8048C13.8306 36.9104 13.898 37.0058 13.9843 37.0848C14.0706 37.1638 14.1737 37.2246 14.2869 37.2629C14.4001 37.3013 14.5206 37.3164 14.6405 37.3073C14.7604 37.2982 14.8768 37.2651 14.982 37.2101L15.6431 36.8649L16.5841 38.6452L14.8972 49.1143ZM16.6058 49.1143L18.1852 39.3122H19.9854L21.5646 49.1143H16.6058ZM21.5867 38.6452L22.5277 36.8648L23.1884 37.21C23.2936 37.265 23.4101 37.2982 23.53 37.3073C23.6499 37.3164 23.7705 37.3013 23.8837 37.2629C23.9969 37.2246 24.1001 37.1638 24.1863 37.0848C24.2726 37.0058 24.34 36.9103 24.384 36.8047L26.3121 32.1774C26.6952 32.3516 27.0665 32.5163 27.4257 32.6758C27.9954 32.9285 28.5384 33.1703 29.0476 33.4137C29.1832 34.15 29.5162 34.8415 30.015 35.4223C30.5138 36.0031 31.1619 36.454 31.8976 36.7322C31.7827 36.8978 31.6708 37.0703 31.5624 37.2526C30.1785 39.5815 29.4677 43.1544 29.2132 49.1143H23.2734L21.5867 38.6452ZM30.9032 49.1176C31.4099 37.3069 33.5936 36.3386 38.2548 34.2702C38.5612 34.1343 38.8774 33.9938 39.2027 33.8464L40.9296 37.9911C40.9735 38.0967 41.0408 38.1922 41.1271 38.2712C41.2133 38.3503 41.3165 38.411 41.4296 38.4494C41.5428 38.4879 41.6633 38.503 41.7832 38.494C41.9031 38.4849 42.0196 38.4518 42.1248 38.3969L45.8265 36.4659L49.5318 38.3971C49.637 38.4519 49.7534 38.4849 49.8732 38.4939C49.993 38.5029 50.1134 38.4877 50.2265 38.4492C50.3395 38.4108 50.4426 38.3501 50.5287 38.2712C50.6149 38.1922 50.6822 38.0968 50.7262 37.9914L52.4541 33.8493C52.4856 33.8632 52.5169 33.8776 52.5484 33.8914C52.8379 34.0222 53.1211 34.1474 53.3962 34.2694C58.0598 36.3364 60.2446 37.3043 60.7503 49.1176H30.9032ZM46.6745 39.6992C46.6749 39.8569 46.6257 40.0112 46.5332 40.1425C46.4406 40.2739 46.3089 40.3765 46.1546 40.4373C46.0002 40.4981 45.8302 40.5145 45.6661 40.4843C45.5019 40.4541 45.3509 40.3787 45.2321 40.2677C45.1134 40.1566 45.0321 40.0149 44.9987 39.8603C44.9653 39.7058 44.9813 39.5454 45.0445 39.3994C45.1077 39.2534 45.2154 39.1283 45.3539 39.0399C45.4925 38.9516 45.6557 38.9039 45.8229 38.9029H45.8298C45.9407 38.9029 46.0505 38.9235 46.153 38.9635C46.2555 39.0035 46.3486 39.0621 46.4271 39.136C46.5055 39.21 46.5677 39.2977 46.6102 39.3943C46.6527 39.4909 46.6745 39.5946 46.6745 39.6992ZM46.6745 42.5174C46.6749 42.6751 46.6257 42.8294 46.5332 42.9608C46.4406 43.0922 46.3089 43.1947 46.1546 43.2556C46.0002 43.3164 45.8302 43.3327 45.6661 43.3025C45.5019 43.2723 45.3509 43.197 45.2321 43.0859C45.1134 42.9749 45.0321 42.8331 44.9987 42.6786C44.9653 42.5241 44.9813 42.3636 45.0445 42.2176C45.1077 42.0716 45.2154 41.9465 45.3539 41.8582C45.4925 41.7698 45.6557 41.7221 45.8229 41.7212H45.8298C45.9407 41.7211 46.0505 41.7417 46.153 41.7817C46.2555 41.8217 46.3486 41.8803 46.4271 41.9543C46.5055 42.0282 46.5677 42.116 46.6102 42.2126C46.6527 42.3092 46.6745 42.4128 46.6745 42.5174ZM46.6754 45.3354C46.6758 45.4931 46.6266 45.6474 46.534 45.7788C46.4415 45.9102 46.3097 46.0127 46.1554 46.0736C46.0011 46.1344 45.8311 46.1507 45.6669 46.1205C45.5027 46.0903 45.3517 46.015 45.233 45.9039C45.1142 45.7929 45.033 45.6511 44.9996 45.4966C44.9662 45.3421 44.9821 45.1817 45.0453 45.0356C45.1085 44.8896 45.2162 44.7645 45.3547 44.6762C45.4933 44.5878 45.6565 44.5402 45.8238 44.5392H45.8307C46.0545 44.5393 46.2691 44.6233 46.4274 44.7726C46.5856 44.9219 46.6754 45.1244 46.6754 45.3354Z" fill="#2A2A2A"/>
</svg>
