<svg width="63" height="60" viewBox="0 0 63 60" fill="none" xmlns="http://www.w3.org/2000/svg">
<path d="M61.9899 24.4661H58.2778C57.5958 21.6262 56.4197 18.9483 54.7748 16.4886L57.3988 14.0146C57.5887 13.8355 57.6948 13.5935 57.6948 13.3411C57.6948 13.0886 57.5887 12.8457 57.3988 12.6675L50.2544 5.93137C49.8755 5.57413 49.2046 5.57413 48.8257 5.93137L46.2018 8.40539C43.592 6.85353 40.7518 5.74561 37.7409 5.10257V1.60255C37.7409 1.07669 37.2892 0.649902 36.7305 0.649902H26.6267C26.068 0.649902 25.6164 1.07669 25.6164 1.60255V5.10257C22.6054 5.74561 19.7653 6.85353 17.1555 8.40539L14.5315 5.93137C14.3416 5.75227 14.0859 5.65225 13.8172 5.65225C13.5484 5.65225 13.2918 5.75227 13.1028 5.93137L5.95846 12.6675C5.76851 12.8466 5.66242 13.0886 5.66242 13.3411C5.66242 13.5935 5.76851 13.8364 5.95846 14.0146L8.58343 16.4886C6.93651 18.9502 5.76144 21.6272 5.07944 24.4661H1.36731C0.808572 24.4661 0.356934 24.8928 0.356934 25.4187V34.9452C0.356934 35.471 0.808572 35.8978 1.36731 35.8978H5.07944C5.76144 38.7367 6.93651 41.4136 8.58343 43.8753L5.95846 46.3493C5.76851 46.5284 5.66242 46.7704 5.66242 47.0228C5.66242 47.2753 5.76851 47.5182 5.95846 47.6963L13.1028 54.4325C13.4979 54.805 14.1365 54.805 14.5315 54.4325L17.1555 51.9585C18.861 52.9711 20.6847 53.7895 22.5852 54.423V59.714H24.606V48.2822H38.7513V59.714H40.772V54.422C42.6715 53.7895 44.4953 52.9711 46.2008 51.9585L48.8247 54.4325C49.0147 54.6116 49.2703 54.7116 49.5391 54.7116C49.8078 54.7116 50.0645 54.6116 50.2534 54.4325L57.3978 47.6963C57.7928 47.3238 57.7928 46.7218 57.3978 46.3493L54.7738 43.8753C56.4207 41.4136 57.5958 38.7357 58.2778 35.8969H61.9899C62.5487 35.8969 63.0003 35.4701 63.0003 34.9442V25.4187C63.0003 24.8928 62.5487 24.4661 61.9899 24.4661ZM25.4274 42.0128L21.7284 37.1296C20.9666 36.1245 20.5645 34.9394 20.5645 33.7039C20.5645 32.7931 20.7928 31.8815 21.2243 31.0679C21.8254 29.9342 23.0338 29.2293 24.3787 29.2293H29.4851C29.0678 30.3382 27.9443 31.1346 26.6267 31.1346H23.5956V33.0399H26.2893C27.7664 34.0687 28.6475 35.6844 28.6475 37.4268V40.661H30.6682V37.4268C30.6682 36.9057 30.6036 36.3951 30.4924 35.8978H38.7513V37.9908C38.7513 38.9253 38.4603 39.8313 37.9106 40.6086C37.1387 41.7004 36.7305 42.9712 36.7305 44.284V46.3769H25.6164V42.5663C25.6164 42.3682 25.5507 42.1738 25.4274 42.0128ZM19.4167 30.2153C18.8458 31.2927 18.5437 32.4988 18.5437 33.7039C18.5437 33.801 18.5639 33.8953 18.567 33.9925H14.5022V30.1819H19.4379C19.4318 30.1934 19.4228 30.2038 19.4167 30.2153ZM32.689 26.3713V22.5608C32.689 22.0359 33.1417 21.6081 33.6994 21.6081C34.2571 21.6081 34.7098 22.0359 34.7098 22.5608V24.4661V30.1819C34.7098 30.7068 34.2571 31.1346 33.6994 31.1346C33.1417 31.1346 32.689 30.7068 32.689 30.1819C32.689 29.6561 32.2374 29.2293 31.6786 29.2293C31.6362 29.2293 31.5998 29.2474 31.5594 29.2522C31.6291 28.9359 31.6786 28.612 31.6786 28.2766C31.6786 27.7508 31.227 27.324 30.6682 27.324H28.6475V22.5608C28.6475 22.0359 29.1001 21.6081 29.6579 21.6081C30.2156 21.6081 30.6682 22.0359 30.6682 22.5608V26.3713H32.689ZM40.772 30.1819H44.8135V33.9925H29.7619C29.5589 33.6286 29.3234 33.2809 29.0577 32.9532C29.9933 33.1161 30.9986 32.8855 31.6796 32.3111C32.2151 32.7636 32.9234 33.0399 33.6994 33.0399C34.4753 33.0399 35.1836 32.7636 35.7201 32.3101C36.2566 32.7636 36.9649 33.0399 37.7409 33.0399C39.4121 33.0399 40.772 31.7576 40.772 30.1819ZM38.7513 30.1819C38.7513 30.7068 38.2986 31.1346 37.7409 31.1346C37.1832 31.1346 36.7305 30.7068 36.7305 30.1819V24.4661C36.7305 23.9411 37.1832 23.5134 37.7409 23.5134C38.2986 23.5134 38.7513 23.9411 38.7513 24.4661V30.1819ZM26.6267 27.324H24.606V22.5608C24.606 22.0359 25.0586 21.6081 25.6164 21.6081C26.1741 21.6081 26.6267 22.0359 26.6267 22.5608V27.324ZM38.7513 44.9375V44.284C38.7513 43.3494 39.0423 42.4434 39.5919 41.6661C40.3638 40.5744 40.772 39.3035 40.772 37.9908V35.8978H47.7477C46.1412 39.9151 42.8989 43.1694 38.7513 44.9375ZM48.855 33.9925H46.8343V30.1819H48.855C49.9695 30.1819 50.8758 31.0365 50.8758 32.0872C50.8758 33.138 49.9695 33.9925 48.855 33.9925ZM40.772 28.2766V24.4661C40.772 22.8904 39.4121 21.6081 37.7409 21.6081C37.3468 21.6081 36.97 21.6796 36.6244 21.8091C36.2738 20.5964 35.0947 19.7028 33.6994 19.7028C32.9234 19.7028 32.2151 19.9791 31.6786 20.4326C31.1421 19.9791 30.4338 19.7028 29.6579 19.7028C28.8819 19.7028 28.1736 19.9791 27.6371 20.4326C27.1006 19.9791 26.3923 19.7028 25.6164 19.7028C23.9452 19.7028 22.5852 20.9851 22.5852 22.5608V27.6136C22.0901 27.7727 21.6254 27.9956 21.2 28.2766H14.6386C15.6439 20.1887 22.9207 13.9869 31.6786 13.9869C40.4669 13.9869 47.7194 20.1782 48.7207 28.2766H40.772ZM12.4815 33.2628L10.4031 32.0872L12.4815 30.9117V33.2628ZM18.8893 35.8978C19.1469 36.7276 19.541 37.5183 20.0845 38.2366L23.5956 42.8712V44.4554C19.9532 42.6102 17.0948 39.5379 15.6278 35.8978H18.8893ZM60.9796 33.9925H57.4584C56.9744 33.9925 56.5592 34.3155 56.4672 34.7632C55.8196 37.8955 54.5334 40.8249 52.644 43.4714C52.3732 43.8496 52.4247 44.3545 52.7672 44.6774L55.2558 47.0238L49.5401 52.4129L47.0515 50.0665C46.709 49.7445 46.1725 49.6969 45.7724 49.9493C44.2073 50.943 42.5281 51.7575 40.773 52.3957V47.3296C40.773 46.9218 40.4992 46.5798 40.1163 46.4446C44.7761 44.2954 48.3408 40.4343 49.9452 35.7397C51.6417 35.2881 52.8965 33.8306 52.8965 32.0872C52.8965 30.6535 52.0418 29.417 50.797 28.7663C50.0271 19.3675 41.7571 12.0817 31.6786 12.0817C21.6789 12.0817 13.4049 19.3141 12.5704 28.6396L7.91961 31.2708C7.61649 31.4423 7.42957 31.7528 7.42957 32.0872C7.42957 32.4216 7.61649 32.7322 7.91961 32.9036L12.9715 35.7616C13.1271 35.8492 13.3049 35.8959 13.4868 35.8969C15.1216 40.5324 18.6286 44.2982 23.2885 46.435C22.8833 46.5598 22.5852 46.9066 22.5852 47.3296V52.3948C20.8292 51.7565 19.1489 50.942 17.5849 49.9484C17.1858 49.6959 16.6483 49.7426 16.3057 50.0656L13.8172 52.4119L8.10147 47.0228L10.591 44.6764C10.9336 44.3545 10.9851 43.8486 10.7143 43.4704C8.82491 40.8249 7.53768 37.8946 6.89104 34.7632C6.79809 34.3155 6.38282 33.9925 5.89885 33.9925H2.37769V26.3713H5.89885C6.38282 26.3713 6.79809 26.0484 6.89003 25.6007C7.53768 22.4684 8.82389 19.539 10.7133 16.8935C10.9841 16.5153 10.9326 16.0104 10.59 15.6874L8.10046 13.3411L13.8162 7.95194L16.3047 10.2983C16.6472 10.6212 17.1848 10.6689 17.5839 10.4155C20.3887 8.63403 23.4966 7.42036 26.8197 6.81067C27.2946 6.72302 27.6371 6.33148 27.6371 5.87517V2.55519H35.7201V5.87517C35.7201 6.33148 36.0627 6.72302 36.5375 6.80971C39.8607 7.42036 42.9676 8.63308 45.7734 10.4145C46.1735 10.6679 46.71 10.6212 47.0525 10.2973L49.5411 7.95098L55.2568 13.3401L52.7672 15.6865C52.4247 16.0085 52.3732 16.5143 52.644 16.8925C54.5334 19.5361 55.8206 22.4655 56.4672 25.5997C56.5592 26.0484 56.9744 26.3713 57.4584 26.3713H60.9796V33.9925Z" fill="#2A2A2A"/>
<path d="M14.3683 30H19.8776C19.8776 30 18.7184 31.5523 18.8322 32.6821C18.933 33.6838 18.8322 33.9572 18.8322 33.9572H14.1628L11.0726 33.0086C10.2459 32.7548 10.206 31.5994 11.0132 31.2892L14.3683 30Z" fill="#29A8DF"/>
<path d="M30.0243 34L29.306 32.8915C29.6316 32.7425 30.1434 32.6821 30.9247 32.6821C31.7061 32.6821 31.6644 32.3839 31.99 32.2349C32.1528 32.3839 32.9916 32.8915 34.1636 32.8915C35.3356 32.8915 35.7848 32.3839 36.1104 32.2349C36.1104 32.3839 36.8914 32.8915 38.4541 32.8915C40.0168 32.8915 40.949 31.6631 41.2326 30.1918L49.3769 30.0869C49.6035 30.084 49.8317 30.1212 50.0459 30.195C51.6691 30.7542 51.8664 32.9997 50.3395 33.7845C50.0639 33.9261 49.7584 34 49.4485 34H30.0243Z" fill="#29A8DF"/>
</svg>
