<svg width="64" height="63" viewBox="0 0 64 63" fill="none" xmlns="http://www.w3.org/2000/svg">
<path fill-rule="evenodd" clip-rule="evenodd" d="M35.7027 38.6876L21.5958 56.5241C21.2325 56.9807 21.3307 57.6286 21.8151 57.9712C22.2994 58.3138 22.9866 58.2212 23.3499 57.7644L37.4602 39.9228C37.6952 39.6273 37.7452 39.2362 37.5914 38.8966C37.4375 38.5569 37.1032 38.3206 36.7143 38.2764C36.3254 38.2322 35.9412 38.387 35.7062 38.6824L35.7027 38.6876Z" fill="#2A2A2A"/>
<path d="M1.29261 43.5932L7.14456 45.4362C7.34099 45.5037 7.54834 45.5386 7.75736 45.5395C8.09703 45.5382 8.43016 45.4511 8.72204 45.2873L28.7401 33.9794C28.9937 34.6593 29.3004 35.3207 29.6577 35.9578L26.1497 40.392C25.8561 40.7675 25.7306 41.2366 25.8 41.6985L26.0894 43.6128L23.9132 44.2207C23.1038 44.4423 22.5508 45.146 22.5615 45.9406C22.5827 46.373 22.6395 46.8033 22.7315 47.2275L22.817 47.7443L20.6244 48.3552C19.7346 48.61 19.1751 49.4387 19.3067 50.3067L19.5446 51.8893L17.4376 52.4805C15.7232 52.9537 14.6945 54.6022 15.0883 56.245L16.2942 61.285C16.4756 62.0912 17.2269 62.6702 18.1009 62.6773C18.1502 62.6773 18.2007 62.6773 18.2511 62.6711L24.4012 62.2742C24.9603 62.2515 25.4783 61.9911 25.8099 61.5662L40.2084 43.3638C45.6504 44.3994 51.2609 42.5786 54.8739 38.6044C58.487 34.63 59.5373 29.1238 57.6195 24.2115C62.2648 21.2152 64.4909 15.8431 63.2305 10.6713C61.9701 5.4994 57.4799 1.58243 51.9135 0.798721C46.347 0.0150125 40.8391 2.52433 38.0311 7.12338C33.6776 7.07311 29.5077 8.77426 26.5662 11.8006C23.6246 14.8269 22.19 18.8916 22.6217 22.9763L17.5657 25.8271C17.1529 26.0717 16.8564 26.4572 16.7379 26.9031L16.2369 28.774L13.9807 28.5548C13.1401 28.4661 12.3404 28.918 12.0272 29.6588C11.8719 30.0742 11.7509 30.5003 11.6654 30.9333L11.5404 31.4284L9.28538 31.2134C8.3505 31.1095 7.47858 31.675 7.24746 32.5354L6.83417 34.0859L4.65044 33.8791C3.92484 33.8023 3.19269 33.9535 2.56755 34.3091C1.70577 34.7839 1.11262 35.5957 0.949468 36.5242L0.034118 41.6086C-0.145098 42.476 0.397432 43.3314 1.29261 43.5932ZM54.5454 35.4978C51.5977 40.2407 45.6743 42.5689 40.0264 41.2045C39.5964 41.1013 39.1429 41.2527 38.8775 41.588L24.1424 60.2203L18.3771 60.5924L17.2238 55.7984C17.1472 55.4746 17.2228 55.1354 17.431 54.8681C17.5873 54.6739 17.8055 54.5322 18.0537 54.4639L20.4239 53.7992C21.3211 53.5537 21.8869 52.7197 21.7471 51.8488L21.5092 50.2662L23.7018 49.6554C24.6004 49.4092 25.1662 48.5728 25.0239 47.7007L24.8935 46.9027C24.843 46.6009 24.7948 46.3229 24.7685 46.1357L26.9807 45.5187C27.8744 45.2702 28.4362 44.4377 28.2963 43.5692L27.9872 41.5226L31.8384 36.6531C32.1032 36.3186 32.1288 35.8668 31.9031 35.5078C28.5535 30.1939 29.8649 23.3657 34.9783 19.4968C40.0916 15.6279 47.4458 15.8995 52.2225 20.1334C53.2781 21.0631 54.161 22.1528 54.835 23.3573C53.5732 23.9266 52.2106 24.2715 50.8161 24.3744C50.4751 22.4423 48.739 21.0033 46.6629 20.9323C44.5868 20.8613 42.7447 22.1779 42.2561 24.0816C41.7675 25.9854 42.7678 27.9504 44.6487 28.782C46.5297 29.6135 48.7715 29.082 50.0113 27.5105C50.2597 27.1878 50.4558 26.8321 50.5934 26.4551C52.3604 26.3733 54.0936 25.967 55.6955 25.2592C56.9064 28.6679 56.4867 32.4042 54.5454 35.4978ZM45.1175 23.4383C45.4216 23.2021 45.788 23.048 46.1776 22.9928C46.284 22.9784 46.3914 22.9711 46.4988 22.9711C47.4247 22.9737 48.2491 23.5242 48.5587 24.3469C47.3682 24.2179 46.2069 23.9112 45.1185 23.4383H45.1175ZM48.1443 26.3863C47.5926 26.9943 46.7168 27.2451 45.8996 27.029C45.0824 26.8129 44.4727 26.1693 44.3368 25.3794C45.5471 25.8893 46.8303 26.2284 48.1453 26.3861L48.1443 26.3863ZM49.8929 2.72626C54.8643 2.71947 59.2768 5.72712 60.8286 10.1803C62.3804 14.6335 60.7197 19.5226 56.7128 22.2972C55.9341 20.9257 54.922 19.684 53.7167 18.6215C53.3878 18.3351 53.0502 18.0757 52.7059 17.8194C52.4927 17.0493 52.2111 16.2976 51.8639 15.5723C50.0643 11.8126 46.6346 8.96564 42.4512 7.75907C41.8041 7.57556 41.145 7.43226 40.4779 7.33015C42.6283 4.43527 46.1446 2.71572 49.8929 2.72626ZM3.12126 36.8683C3.17804 36.5385 3.38886 36.2501 3.69565 36.0828C3.9143 35.957 4.17124 35.9035 4.42574 35.9309L6.89121 36.1687C7.81825 36.2686 8.67785 35.6988 8.89188 34.8426L9.30632 33.2921L11.5855 33.5133C12.5164 33.5958 13.3716 33.0248 13.5983 32.1696L13.7912 31.4058C13.8679 31.1029 13.9359 30.8207 13.9874 30.6337L16.283 30.8559C17.209 30.9512 18.0666 30.3849 18.2881 29.5319L18.8296 27.5163L24.3536 24.403C24.733 24.1893 24.9391 23.7817 24.8765 23.3694C23.9383 17.3456 27.7798 11.5714 33.9401 9.74572C40.1004 7.92005 46.7547 10.5838 49.6403 16.0305C47.2059 14.9669 44.5158 14.5322 41.8446 14.7705C37.5252 15.1356 33.5713 17.2066 30.9602 20.4715C28.3493 23.7363 27.3252 27.8903 28.1411 31.9063L7.72447 43.4393L2.24856 41.7151L3.12126 36.8683Z" fill="#2A2A2A"/>
<path fill-rule="evenodd" clip-rule="evenodd" d="M25.5241 30.9746C26.0352 30.678 26.1984 30.049 25.8902 29.5636C25.582 29.078 24.9171 28.9164 24.3983 29.2009L6.86535 39.1104C6.52401 39.2977 6.31589 39.6435 6.32038 40.0158C6.32488 40.3882 6.54161 40.7294 6.88745 40.9092C7.23329 41.0889 7.65493 41.0793 7.99127 40.8842L25.5241 30.9746Z" fill="#2A2A2A"/>
<path d="M50.6533 0.00488281C57.606 0.189782 63.1885 6.16073 63.1885 13.5L63.1836 13.8486C63.0071 21.143 57.3162 26.9999 50.3213 27L49.9893 26.9951C48.2591 26.9491 46.6147 26.5422 45.1191 25.8477C45.0942 25.3578 45.1705 24.597 45.5283 24.1221C45.6938 23.9025 45.8405 23.7424 45.9688 23.626C47.3031 24.2722 48.7789 24.6338 50.3213 24.6338C56.0148 24.6337 60.822 19.7572 60.8223 13.5C60.8223 7.24259 56.015 2.36633 50.3213 2.36621C46.9486 2.36628 43.8868 4.07681 41.9512 6.77246H39.1631C41.3847 2.72471 45.5498 -0.000902445 50.3213 -0.000976562L50.6533 0.00488281Z" fill="#29A8DF"/>
</svg>
