<svg width="54" height="48" viewBox="0 0 54 48" fill="none" xmlns="http://www.w3.org/2000/svg">
<path d="M51.0161 0.759155H40.8973C40.1656 0.759913 39.4641 1.0343 38.9468 1.5221C38.4294 2.00991 38.1384 2.6713 38.1376 3.36116V13.0617C37.843 12.9588 37.5318 12.9048 37.2177 12.9018H28.9386C28.207 12.9026 27.5055 13.177 26.9881 13.6648C26.4708 14.1526 26.1798 14.814 26.179 15.5038V24.337C25.8844 24.2342 25.5732 24.1801 25.2591 24.1772H16.0601C15.3284 24.1779 14.627 24.4523 14.1096 24.9401C13.5922 25.4279 13.3012 26.0893 13.3004 26.7792V35.6124C13.0058 35.5095 12.6946 35.4555 12.3805 35.4525H3.18156C2.44989 35.4533 1.74842 35.7277 1.23106 36.2155C0.713688 36.7033 0.422679 37.3647 0.421875 38.0545V46.7279C0.421875 46.9579 0.518792 47.1785 0.691306 47.3412C0.86382 47.5038 1.0978 47.5952 1.34177 47.5952H52.8559C53.0999 47.5952 53.3339 47.5038 53.5064 47.3412C53.6789 47.1785 53.7758 46.9579 53.7758 46.7279V3.36116C53.775 2.6713 53.484 2.00991 52.9666 1.5221C52.4493 1.0343 51.7478 0.759913 51.0161 0.759155ZM2.26167 38.0545C2.26189 37.8246 2.35887 37.6041 2.53134 37.4415C2.70381 37.2789 2.93766 37.1874 3.18156 37.1872H12.3805C12.6244 37.1874 12.8583 37.2789 13.0307 37.4415C13.2032 37.6041 13.3002 37.8246 13.3004 38.0545V45.8606H2.26167V38.0545ZM15.1402 38.0545V26.7792C15.1404 26.5492 15.2374 26.3287 15.4099 26.1661C15.5823 26.0035 15.8162 25.9121 16.0601 25.9119H25.2591C25.503 25.9121 25.7368 26.0035 25.9093 26.1661C26.0818 26.3287 26.1787 26.5492 26.179 26.7792V45.8606H15.1402V38.0545ZM28.0187 26.7792V15.5038C28.0191 15.2739 28.1161 15.0535 28.2885 14.8909C28.461 14.7283 28.6948 14.6368 28.9386 14.6365H37.2177C37.4616 14.6368 37.6954 14.7283 37.8678 14.8909C38.0403 15.0535 38.1373 15.2739 38.1376 15.5038V45.8606H28.0187V26.7792ZM51.936 45.8606H39.9774V3.36116C39.9777 3.13122 40.0747 2.91078 40.2472 2.74819C40.4196 2.5856 40.6534 2.49412 40.8973 2.49382H51.0161C51.26 2.49412 51.4938 2.5856 51.6663 2.74819C51.8387 2.91078 51.9357 3.13122 51.936 3.36116V45.8606Z" fill="#2A2A2A"/>
<path d="M4.17113 19.305C4.21739 19.4102 4.28518 19.5058 4.37064 19.5863C4.45602 19.6669 4.55741 19.7308 4.669 19.7744C4.78059 19.818 4.90021 19.8405 5.021 19.8405C5.1418 19.8405 5.26141 19.818 5.373 19.7744C5.4846 19.7308 5.58598 19.6669 5.67137 19.5863L20.6592 5.45494V13.7691C20.6592 13.9992 20.7561 14.2198 20.9287 14.3824C21.1012 14.5451 21.3352 14.6365 21.5791 14.6365C21.8231 14.6365 22.0571 14.5451 22.2296 14.3824C22.4021 14.2198 22.499 13.9992 22.499 13.7691V3.36111C22.4981 3.13136 22.4008 2.91128 22.2285 2.74882C22.0562 2.58636 21.8228 2.49469 21.5791 2.49377H10.5404C10.2964 2.49377 10.0624 2.58515 9.88991 2.74781C9.7174 2.91047 9.62048 3.13108 9.62048 3.36111C9.62048 3.59114 9.7174 3.81175 9.88991 3.97441C10.0624 4.13706 10.2964 4.22844 10.5404 4.22844H19.3584L4.37064 18.3599C4.28518 18.4404 4.21739 18.536 4.17113 18.6412C4.12488 18.7465 4.10107 18.8592 4.10107 18.9731C4.10107 19.087 4.12488 19.1998 4.17113 19.305Z" fill="#29A8DF"/>
</svg>
