<svg width="35" height="35" viewBox="0 0 35 35" fill="none" xmlns="http://www.w3.org/2000/svg">
<path d="M23.0659 31.013C19.1002 32.5909 14.6361 32.4163 10.8123 30.534C10.8018 30.5284 10.791 30.5228 10.7805 30.5175C9.64606 29.9549 8.59317 29.2528 7.63599 28.4267L9.93945 28.5874C10.5351 28.6315 11.0459 28.1841 11.0874 27.5946C11.1289 27.0048 10.6824 26.4932 10.0898 26.4521L4.9589 26.0942C4.64658 26.0706 4.34265 26.1862 4.12217 26.4059C3.90213 26.6255 3.78834 26.9295 3.81093 27.2392L4.17035 32.1801C4.21122 32.7434 4.68336 33.1732 5.24196 33.1732C5.26799 33.1732 5.29423 33.1723 5.32069 33.1704C5.91307 33.1276 6.35853 32.6151 6.31573 32.0254L6.16774 29.9917C7.26796 30.9503 8.48046 31.7653 9.78846 32.4173C9.80007 32.4235 9.81147 32.4297 9.8233 32.4355C12.2249 33.6247 14.848 34.2234 17.4779 34.2234C19.6427 34.2234 21.8121 33.8175 23.8641 33.0009C24.4154 32.7815 24.6841 32.1585 24.4634 31.6097C24.2431 31.061 23.6176 30.7936 23.0659 31.013Z" fill="#2A2A2A"/>
<path d="M4.16762 10.1397C4.17429 10.1281 4.18074 10.1168 4.18698 10.105C4.74967 9.0473 5.44314 8.06131 6.24954 7.16158L6.11101 9.60602C6.07767 10.1962 6.53131 10.7016 7.12433 10.7348C7.14498 10.7359 7.1652 10.7365 7.18585 10.7365C7.75198 10.7365 8.22627 10.296 8.25853 9.72632L8.54805 4.61567C8.56548 4.30592 8.44718 4.00365 8.22326 3.78745C7.99977 3.57145 7.69133 3.46249 7.38202 3.48903L2.42254 3.91417C1.8306 3.96491 1.39223 4.48338 1.44321 5.07228C1.49418 5.66118 2.01515 6.09852 2.60688 6.04693L4.51199 5.8836C3.65504 6.86188 2.91425 7.92858 2.30424 9.06807C2.29714 9.08027 2.29047 9.09247 2.28359 9.10489C-0.0811814 13.5509 -0.362312 18.7814 1.51225 23.456C1.68003 23.8749 2.08419 24.1297 2.51159 24.1297C2.64409 24.1297 2.77917 24.1053 2.90995 24.0532C3.46146 23.8342 3.73011 23.2115 3.51007 22.6624C1.87426 18.5838 2.11431 14.0218 4.16762 10.1397Z" fill="#2A2A2A"/>
<path d="M32.4648 28.3675L30.2882 28.5244C31.3286 27.3699 32.2032 26.0921 32.8889 24.7121C35.0444 20.3823 35.2557 15.3194 33.4684 10.8214C33.2499 10.2717 32.6248 10.0018 32.0729 10.2197C31.5207 10.437 31.2499 11.0588 31.4682 11.6085C33.032 15.544 32.847 19.9737 30.961 23.762C30.4001 24.8914 29.6941 25.9429 28.8595 26.9015L29.0103 24.7611C29.0518 24.1713 28.6053 23.6597 28.0127 23.6186C27.4182 23.5758 26.906 24.0217 26.8647 24.6114L26.5051 29.7178C26.4832 30.0274 26.5976 30.3311 26.8183 30.5505C27.0205 30.7513 27.2941 30.8631 27.5778 30.8631C27.6036 30.8631 27.6294 30.8622 27.6554 30.8603L32.6201 30.5026C33.2125 30.4598 33.6579 29.9473 33.6151 29.3575C33.5725 28.7682 33.0591 28.3255 32.4648 28.3675Z" fill="#2A2A2A"/>
<path d="M30.2424 8.22519C30.5323 8.22519 30.8111 8.10852 31.0141 7.90023C31.2314 7.6776 31.3407 7.37213 31.314 7.06302L30.887 2.12747C30.836 1.53857 30.314 1.10252 29.7233 1.15282C29.1314 1.20334 28.693 1.72203 28.744 2.31093L28.9202 4.34714C27.8793 3.42172 26.7365 2.62582 25.5081 1.97955C21.0704 -0.351646 15.8438 -0.637854 11.1683 1.19521C10.6159 1.41206 10.3442 2.0335 10.5619 2.58344C10.7798 3.13359 11.4049 3.40289 11.9568 3.18689C16.0475 1.58267 20.6209 1.8327 24.5032 3.87234C25.5696 4.43341 26.5632 5.12399 27.4694 5.92717L25.1676 5.79809C24.5795 5.76898 24.0667 6.21616 24.0334 6.80656C24.0001 7.39675 24.4537 7.90216 25.0467 7.93534L30.1819 8.22348C30.2019 8.22455 30.2222 8.22519 30.2424 8.22519Z" fill="#2A2A2A"/>
</svg>
