<svg width="215" height="185" viewBox="0 0 215 185" fill="none" xmlns="http://www.w3.org/2000/svg">
<circle cx="2.5" cy="2.5" r="2.5" fill="#29A8DF"/>
<circle cx="17.5" cy="2.5" r="2.5" fill="#29A8DF"/>
<circle cx="32.5" cy="2.5" r="2.5" fill="#29A8DF"/>
<circle cx="47.5" cy="2.5" r="2.5" fill="#29A8DF"/>
<circle cx="62.5" cy="2.5" r="2.5" fill="#29A8DF"/>
<circle cx="77.5" cy="2.5" r="2.5" fill="#29A8DF"/>
<circle cx="92.5" cy="2.5" r="2.5" fill="#29A8DF"/>
<circle cx="107.5" cy="2.5" r="2.5" fill="#29A8DF"/>
<circle cx="122.5" cy="2.5" r="2.5" fill="#29A8DF"/>
<circle cx="137.5" cy="2.5" r="2.5" fill="#29A8DF"/>
<circle cx="152.5" cy="2.5" r="2.5" fill="#29A8DF"/>
<circle cx="167.5" cy="2.5" r="2.5" fill="#29A8DF"/>
<circle cx="182.5" cy="2.5" r="2.5" fill="#29A8DF"/>
<circle cx="197.5" cy="2.5" r="2.5" fill="#29A8DF"/>
<circle cx="212.5" cy="2.5" r="2.5" fill="#29A8DF"/>
<circle cx="2.5" cy="14.5" r="2.5" fill="#29A8DF"/>
<circle cx="17.5" cy="14.5" r="2.5" fill="#29A8DF"/>
<circle cx="32.5" cy="14.5" r="2.5" fill="#29A8DF"/>
<circle cx="47.5" cy="14.5" r="2.5" fill="#29A8DF"/>
<circle cx="62.5" cy="14.5" r="2.5" fill="#29A8DF"/>
<circle cx="77.5" cy="14.5" r="2.5" fill="#29A8DF"/>
<circle cx="92.5" cy="14.5" r="2.5" fill="#29A8DF"/>
<circle cx="107.5" cy="14.5" r="2.5" fill="#29A8DF"/>
<circle cx="122.5" cy="14.5" r="2.5" fill="#29A8DF"/>
<circle cx="137.5" cy="14.5" r="2.5" fill="#29A8DF"/>
<circle cx="152.5" cy="14.5" r="2.5" fill="#29A8DF"/>
<circle cx="167.5" cy="14.5" r="2.5" fill="#29A8DF"/>
<circle cx="182.5" cy="14.5" r="2.5" fill="#29A8DF"/>
<circle cx="197.5" cy="14.5" r="2.5" fill="#29A8DF"/>
<circle cx="212.5" cy="14.5" r="2.5" fill="#29A8DF"/>
<circle cx="2.5" cy="26.5" r="2.5" fill="#29A8DF"/>
<circle cx="17.5" cy="26.5" r="2.5" fill="#29A8DF"/>
<circle cx="32.5" cy="26.5" r="2.5" fill="#29A8DF"/>
<circle cx="47.5" cy="26.5" r="2.5" fill="#29A8DF"/>
<circle cx="62.5" cy="26.5" r="2.5" fill="#29A8DF"/>
<circle cx="77.5" cy="26.5" r="2.5" fill="#29A8DF"/>
<circle cx="92.5" cy="26.5" r="2.5" fill="#29A8DF"/>
<circle cx="107.5" cy="26.5" r="2.5" fill="#29A8DF"/>
<circle cx="122.5" cy="26.5" r="2.5" fill="#29A8DF"/>
<circle cx="137.5" cy="26.5" r="2.5" fill="#29A8DF"/>
<circle cx="152.5" cy="26.5" r="2.5" fill="#29A8DF"/>
<circle cx="167.5" cy="26.5" r="2.5" fill="#29A8DF"/>
<circle cx="182.5" cy="26.5" r="2.5" fill="#29A8DF"/>
<circle cx="197.5" cy="26.5" r="2.5" fill="#29A8DF"/>
<circle cx="212.5" cy="26.5" r="2.5" fill="#29A8DF"/>
<circle cx="2.5" cy="38.5" r="2.5" fill="#29A8DF"/>
<circle cx="17.5" cy="38.5" r="2.5" fill="#29A8DF"/>
<circle cx="32.5" cy="38.5" r="2.5" fill="#29A8DF"/>
<circle cx="47.5" cy="38.5" r="2.5" fill="#29A8DF"/>
<circle cx="62.5" cy="38.5" r="2.5" fill="#29A8DF"/>
<circle cx="77.5" cy="38.5" r="2.5" fill="#29A8DF"/>
<circle cx="92.5" cy="38.5" r="2.5" fill="#29A8DF"/>
<circle cx="107.5" cy="38.5" r="2.5" fill="#29A8DF"/>
<circle cx="122.5" cy="38.5" r="2.5" fill="#29A8DF"/>
<circle cx="137.5" cy="38.5" r="2.5" fill="#29A8DF"/>
<circle cx="152.5" cy="38.5" r="2.5" fill="#29A8DF"/>
<circle cx="167.5" cy="38.5" r="2.5" fill="#29A8DF"/>
<circle cx="182.5" cy="38.5" r="2.5" fill="#29A8DF"/>
<circle cx="197.5" cy="38.5" r="2.5" fill="#29A8DF"/>
<circle cx="212.5" cy="38.5" r="2.5" fill="#29A8DF"/>
<circle cx="2.5" cy="50.5" r="2.5" fill="#29A8DF"/>
<circle cx="17.5" cy="50.5" r="2.5" fill="#29A8DF"/>
<circle cx="32.5" cy="50.5" r="2.5" fill="#29A8DF"/>
<circle cx="47.5" cy="50.5" r="2.5" fill="#29A8DF"/>
<circle cx="62.5" cy="50.5" r="2.5" fill="#29A8DF"/>
<circle cx="77.5" cy="50.5" r="2.5" fill="#29A8DF"/>
<circle cx="92.5" cy="50.5" r="2.5" fill="#29A8DF"/>
<circle cx="107.5" cy="50.5" r="2.5" fill="#29A8DF"/>
<circle cx="122.5" cy="50.5" r="2.5" fill="#29A8DF"/>
<circle cx="137.5" cy="50.5" r="2.5" fill="#29A8DF"/>
<circle cx="152.5" cy="50.5" r="2.5" fill="#29A8DF"/>
<circle cx="167.5" cy="50.5" r="2.5" fill="#29A8DF"/>
<circle cx="182.5" cy="50.5" r="2.5" fill="#29A8DF"/>
<circle cx="197.5" cy="50.5" r="2.5" fill="#29A8DF"/>
<circle cx="212.5" cy="50.5" r="2.5" fill="#29A8DF"/>
<circle cx="2.5" cy="62.5" r="2.5" fill="#29A8DF"/>
<circle cx="17.5" cy="62.5" r="2.5" fill="#29A8DF"/>
<circle cx="32.5" cy="62.5" r="2.5" fill="#29A8DF"/>
<circle cx="47.5" cy="62.5" r="2.5" fill="#29A8DF"/>
<circle cx="62.5" cy="62.5" r="2.5" fill="#29A8DF"/>
<circle cx="77.5" cy="62.5" r="2.5" fill="#29A8DF"/>
<circle cx="92.5" cy="62.5" r="2.5" fill="#29A8DF"/>
<circle cx="107.5" cy="62.5" r="2.5" fill="#29A8DF"/>
<circle cx="122.5" cy="62.5" r="2.5" fill="#29A8DF"/>
<circle cx="137.5" cy="62.5" r="2.5" fill="#29A8DF"/>
<circle cx="152.5" cy="62.5" r="2.5" fill="#29A8DF"/>
<circle cx="167.5" cy="62.5" r="2.5" fill="#29A8DF"/>
<circle cx="182.5" cy="62.5" r="2.5" fill="#29A8DF"/>
<circle cx="197.5" cy="62.5" r="2.5" fill="#29A8DF"/>
<circle cx="212.5" cy="62.5" r="2.5" fill="#29A8DF"/>
<circle cx="2.5" cy="74.5" r="2.5" fill="#29A8DF"/>
<circle cx="17.5" cy="74.5" r="2.5" fill="#29A8DF"/>
<circle cx="32.5" cy="74.5" r="2.5" fill="#29A8DF"/>
<circle cx="47.5" cy="74.5" r="2.5" fill="#29A8DF"/>
<circle cx="62.5" cy="74.5" r="2.5" fill="#29A8DF"/>
<circle cx="77.5" cy="74.5" r="2.5" fill="#29A8DF"/>
<circle cx="92.5" cy="74.5" r="2.5" fill="#29A8DF"/>
<circle cx="107.5" cy="74.5" r="2.5" fill="#29A8DF"/>
<circle cx="122.5" cy="74.5" r="2.5" fill="#29A8DF"/>
<circle cx="137.5" cy="74.5" r="2.5" fill="#29A8DF"/>
<circle cx="152.5" cy="74.5" r="2.5" fill="#29A8DF"/>
<circle cx="167.5" cy="74.5" r="2.5" fill="#29A8DF"/>
<circle cx="182.5" cy="74.5" r="2.5" fill="#29A8DF"/>
<circle cx="197.5" cy="74.5" r="2.5" fill="#29A8DF"/>
<circle cx="212.5" cy="74.5" r="2.5" fill="#29A8DF"/>
<circle cx="2.5" cy="86.5" r="2.5" fill="#29A8DF"/>
<circle cx="17.5" cy="86.5" r="2.5" fill="#29A8DF"/>
<circle cx="32.5" cy="86.5" r="2.5" fill="#29A8DF"/>
<circle cx="47.5" cy="86.5" r="2.5" fill="#29A8DF"/>
<circle cx="62.5" cy="86.5" r="2.5" fill="#29A8DF"/>
<circle cx="77.5" cy="86.5" r="2.5" fill="#29A8DF"/>
<circle cx="92.5" cy="86.5" r="2.5" fill="#29A8DF"/>
<circle cx="107.5" cy="86.5" r="2.5" fill="#29A8DF"/>
<circle cx="122.5" cy="86.5" r="2.5" fill="#29A8DF"/>
<circle cx="137.5" cy="86.5" r="2.5" fill="#29A8DF"/>
<circle cx="152.5" cy="86.5" r="2.5" fill="#29A8DF"/>
<circle cx="167.5" cy="86.5" r="2.5" fill="#29A8DF"/>
<circle cx="182.5" cy="86.5" r="2.5" fill="#29A8DF"/>
<circle cx="197.5" cy="86.5" r="2.5" fill="#29A8DF"/>
<circle cx="212.5" cy="86.5" r="2.5" fill="#29A8DF"/>
<circle cx="2.5" cy="98.5" r="2.5" fill="#29A8DF"/>
<circle cx="17.5" cy="98.5" r="2.5" fill="#29A8DF"/>
<circle cx="32.5" cy="98.5" r="2.5" fill="#29A8DF"/>
<circle cx="47.5" cy="98.5" r="2.5" fill="#29A8DF"/>
<circle cx="62.5" cy="98.5" r="2.5" fill="#29A8DF"/>
<circle cx="77.5" cy="98.5" r="2.5" fill="#29A8DF"/>
<circle cx="92.5" cy="98.5" r="2.5" fill="#29A8DF"/>
<circle cx="107.5" cy="98.5" r="2.5" fill="#29A8DF"/>
<circle cx="122.5" cy="98.5" r="2.5" fill="#29A8DF"/>
<circle cx="137.5" cy="98.5" r="2.5" fill="#29A8DF"/>
<circle cx="152.5" cy="98.5" r="2.5" fill="#29A8DF"/>
<circle cx="167.5" cy="98.5" r="2.5" fill="#29A8DF"/>
<circle cx="182.5" cy="98.5" r="2.5" fill="#29A8DF"/>
<circle cx="197.5" cy="98.5" r="2.5" fill="#29A8DF"/>
<circle cx="212.5" cy="98.5" r="2.5" fill="#29A8DF"/>
<circle cx="2.5" cy="110.5" r="2.5" fill="#29A8DF"/>
<circle cx="17.5" cy="110.5" r="2.5" fill="#29A8DF"/>
<circle cx="32.5" cy="110.5" r="2.5" fill="#29A8DF"/>
<circle cx="47.5" cy="110.5" r="2.5" fill="#29A8DF"/>
<circle cx="62.5" cy="110.5" r="2.5" fill="#29A8DF"/>
<circle cx="77.5" cy="110.5" r="2.5" fill="#29A8DF"/>
<circle cx="92.5" cy="110.5" r="2.5" fill="#29A8DF"/>
<circle cx="107.5" cy="110.5" r="2.5" fill="#29A8DF"/>
<circle cx="122.5" cy="110.5" r="2.5" fill="#29A8DF"/>
<circle cx="137.5" cy="110.5" r="2.5" fill="#29A8DF"/>
<circle cx="152.5" cy="110.5" r="2.5" fill="#29A8DF"/>
<circle cx="167.5" cy="110.5" r="2.5" fill="#29A8DF"/>
<circle cx="182.5" cy="110.5" r="2.5" fill="#29A8DF"/>
<circle cx="197.5" cy="110.5" r="2.5" fill="#29A8DF"/>
<circle cx="212.5" cy="110.5" r="2.5" fill="#29A8DF"/>
<circle cx="2.5" cy="122.5" r="2.5" fill="#29A8DF"/>
<circle cx="17.5" cy="122.5" r="2.5" fill="#29A8DF"/>
<circle cx="32.5" cy="122.5" r="2.5" fill="#29A8DF"/>
<circle cx="47.5" cy="122.5" r="2.5" fill="#29A8DF"/>
<circle cx="62.5" cy="122.5" r="2.5" fill="#29A8DF"/>
<circle cx="77.5" cy="122.5" r="2.5" fill="#29A8DF"/>
<circle cx="92.5" cy="122.5" r="2.5" fill="#29A8DF"/>
<circle cx="107.5" cy="122.5" r="2.5" fill="#29A8DF"/>
<circle cx="122.5" cy="122.5" r="2.5" fill="#29A8DF"/>
<circle cx="137.5" cy="122.5" r="2.5" fill="#29A8DF"/>
<circle cx="152.5" cy="122.5" r="2.5" fill="#29A8DF"/>
<circle cx="167.5" cy="122.5" r="2.5" fill="#29A8DF"/>
<circle cx="182.5" cy="122.5" r="2.5" fill="#29A8DF"/>
<circle cx="197.5" cy="122.5" r="2.5" fill="#29A8DF"/>
<circle cx="212.5" cy="122.5" r="2.5" fill="#29A8DF"/>
<circle cx="2.5" cy="134.5" r="2.5" fill="#29A8DF"/>
<circle cx="17.5" cy="134.5" r="2.5" fill="#29A8DF"/>
<circle cx="32.5" cy="134.5" r="2.5" fill="#29A8DF"/>
<circle cx="47.5" cy="134.5" r="2.5" fill="#29A8DF"/>
<circle cx="62.5" cy="134.5" r="2.5" fill="#29A8DF"/>
<circle cx="77.5" cy="134.5" r="2.5" fill="#29A8DF"/>
<circle cx="92.5" cy="134.5" r="2.5" fill="#29A8DF"/>
<circle cx="107.5" cy="134.5" r="2.5" fill="#29A8DF"/>
<circle cx="122.5" cy="134.5" r="2.5" fill="#29A8DF"/>
<circle cx="137.5" cy="134.5" r="2.5" fill="#29A8DF"/>
<circle cx="152.5" cy="134.5" r="2.5" fill="#29A8DF"/>
<circle cx="167.5" cy="134.5" r="2.5" fill="#29A8DF"/>
<circle cx="182.5" cy="134.5" r="2.5" fill="#29A8DF"/>
<circle cx="197.5" cy="134.5" r="2.5" fill="#29A8DF"/>
<circle cx="212.5" cy="134.5" r="2.5" fill="#29A8DF"/>
<circle cx="2.5" cy="146.5" r="2.5" fill="#29A8DF"/>
<circle cx="17.5" cy="146.5" r="2.5" fill="#29A8DF"/>
<circle cx="32.5" cy="146.5" r="2.5" fill="#29A8DF"/>
<circle cx="47.5" cy="146.5" r="2.5" fill="#29A8DF"/>
<circle cx="62.5" cy="146.5" r="2.5" fill="#29A8DF"/>
<circle cx="77.5" cy="146.5" r="2.5" fill="#29A8DF"/>
<circle cx="92.5" cy="146.5" r="2.5" fill="#29A8DF"/>
<circle cx="107.5" cy="146.5" r="2.5" fill="#29A8DF"/>
<circle cx="122.5" cy="146.5" r="2.5" fill="#29A8DF"/>
<circle cx="137.5" cy="146.5" r="2.5" fill="#29A8DF"/>
<circle cx="152.5" cy="146.5" r="2.5" fill="#29A8DF"/>
<circle cx="167.5" cy="146.5" r="2.5" fill="#29A8DF"/>
<circle cx="182.5" cy="146.5" r="2.5" fill="#29A8DF"/>
<circle cx="197.5" cy="146.5" r="2.5" fill="#29A8DF"/>
<circle cx="212.5" cy="146.5" r="2.5" fill="#29A8DF"/>
<circle cx="2.5" cy="158.5" r="2.5" fill="#29A8DF"/>
<circle cx="17.5" cy="158.5" r="2.5" fill="#29A8DF"/>
<circle cx="32.5" cy="158.5" r="2.5" fill="#29A8DF"/>
<circle cx="47.5" cy="158.5" r="2.5" fill="#29A8DF"/>
<circle cx="62.5" cy="158.5" r="2.5" fill="#29A8DF"/>
<circle cx="77.5" cy="158.5" r="2.5" fill="#29A8DF"/>
<circle cx="92.5" cy="158.5" r="2.5" fill="#29A8DF"/>
<circle cx="107.5" cy="158.5" r="2.5" fill="#29A8DF"/>
<circle cx="122.5" cy="158.5" r="2.5" fill="#29A8DF"/>
<circle cx="137.5" cy="158.5" r="2.5" fill="#29A8DF"/>
<circle cx="152.5" cy="158.5" r="2.5" fill="#29A8DF"/>
<circle cx="167.5" cy="158.5" r="2.5" fill="#29A8DF"/>
<circle cx="182.5" cy="158.5" r="2.5" fill="#29A8DF"/>
<circle cx="197.5" cy="158.5" r="2.5" fill="#29A8DF"/>
<circle cx="212.5" cy="158.5" r="2.5" fill="#29A8DF"/>
<circle cx="2.5" cy="170.5" r="2.5" fill="#29A8DF"/>
<circle cx="17.5" cy="170.5" r="2.5" fill="#29A8DF"/>
<circle cx="32.5" cy="170.5" r="2.5" fill="#29A8DF"/>
<circle cx="47.5" cy="170.5" r="2.5" fill="#29A8DF"/>
<circle cx="62.5" cy="170.5" r="2.5" fill="#29A8DF"/>
<circle cx="77.5" cy="170.5" r="2.5" fill="#29A8DF"/>
<circle cx="92.5" cy="170.5" r="2.5" fill="#29A8DF"/>
<circle cx="107.5" cy="170.5" r="2.5" fill="#29A8DF"/>
<circle cx="122.5" cy="170.5" r="2.5" fill="#29A8DF"/>
<circle cx="137.5" cy="170.5" r="2.5" fill="#29A8DF"/>
<circle cx="152.5" cy="170.5" r="2.5" fill="#29A8DF"/>
<circle cx="167.5" cy="170.5" r="2.5" fill="#29A8DF"/>
<circle cx="182.5" cy="170.5" r="2.5" fill="#29A8DF"/>
<circle cx="197.5" cy="170.5" r="2.5" fill="#29A8DF"/>
<circle cx="212.5" cy="170.5" r="2.5" fill="#29A8DF"/>
<circle cx="2.5" cy="182.5" r="2.5" fill="#29A8DF"/>
<circle cx="17.5" cy="182.5" r="2.5" fill="#29A8DF"/>
<circle cx="32.5" cy="182.5" r="2.5" fill="#29A8DF"/>
<circle cx="47.5" cy="182.5" r="2.5" fill="#29A8DF"/>
<circle cx="62.5" cy="182.5" r="2.5" fill="#29A8DF"/>
<circle cx="77.5" cy="182.5" r="2.5" fill="#29A8DF"/>
<circle cx="92.5" cy="182.5" r="2.5" fill="#29A8DF"/>
<circle cx="107.5" cy="182.5" r="2.5" fill="#29A8DF"/>
<circle cx="122.5" cy="182.5" r="2.5" fill="#29A8DF"/>
<circle cx="137.5" cy="182.5" r="2.5" fill="#29A8DF"/>
<circle cx="152.5" cy="182.5" r="2.5" fill="#29A8DF"/>
<circle cx="167.5" cy="182.5" r="2.5" fill="#29A8DF"/>
<circle cx="182.5" cy="182.5" r="2.5" fill="#29A8DF"/>
<circle cx="197.5" cy="182.5" r="2.5" fill="#29A8DF"/>
<circle cx="212.5" cy="182.5" r="2.5" fill="#29A8DF"/>
</svg>
