<svg width="216" height="186" viewBox="0 0 216 186" fill="none" xmlns="http://www.w3.org/2000/svg">
<circle cx="2.51562" cy="3.29138" r="2.5" fill="#D9D9D9"/>
<circle cx="17.5156" cy="3.29138" r="2.5" fill="#D9D9D9"/>
<circle cx="32.5156" cy="3.29138" r="2.5" fill="#D9D9D9"/>
<circle cx="47.5156" cy="3.29138" r="2.5" fill="#D9D9D9"/>
<circle cx="62.5156" cy="3.29138" r="2.5" fill="#D9D9D9"/>
<circle cx="77.5156" cy="3.29138" r="2.5" fill="#D9D9D9"/>
<circle cx="92.5156" cy="3.29138" r="2.5" fill="#D9D9D9"/>
<circle cx="107.516" cy="3.29138" r="2.5" fill="#D9D9D9"/>
<circle cx="122.516" cy="3.29138" r="2.5" fill="#D9D9D9"/>
<circle cx="137.516" cy="3.29138" r="2.5" fill="#D9D9D9"/>
<circle cx="152.516" cy="3.29138" r="2.5" fill="#D9D9D9"/>
<circle cx="167.516" cy="3.29138" r="2.5" fill="#D9D9D9"/>
<circle cx="182.516" cy="3.29138" r="2.5" fill="#D9D9D9"/>
<circle cx="197.516" cy="3.29138" r="2.5" fill="#D9D9D9"/>
<circle cx="212.516" cy="3.29138" r="2.5" fill="#D9D9D9"/>
<circle cx="2.51562" cy="15.2914" r="2.5" fill="#D9D9D9"/>
<circle cx="17.5156" cy="15.2914" r="2.5" fill="#D9D9D9"/>
<circle cx="32.5156" cy="15.2914" r="2.5" fill="#D9D9D9"/>
<circle cx="47.5156" cy="15.2914" r="2.5" fill="#D9D9D9"/>
<circle cx="62.5156" cy="15.2914" r="2.5" fill="#D9D9D9"/>
<circle cx="77.5156" cy="15.2914" r="2.5" fill="#D9D9D9"/>
<circle cx="92.5156" cy="15.2914" r="2.5" fill="#D9D9D9"/>
<circle cx="107.516" cy="15.2914" r="2.5" fill="#D9D9D9"/>
<circle cx="122.516" cy="15.2914" r="2.5" fill="#D9D9D9"/>
<circle cx="137.516" cy="15.2914" r="2.5" fill="#D9D9D9"/>
<circle cx="152.516" cy="15.2914" r="2.5" fill="#D9D9D9"/>
<circle cx="167.516" cy="15.2914" r="2.5" fill="#D9D9D9"/>
<circle cx="182.516" cy="15.2914" r="2.5" fill="#D9D9D9"/>
<circle cx="197.516" cy="15.2914" r="2.5" fill="#D9D9D9"/>
<circle cx="212.516" cy="15.2914" r="2.5" fill="#D9D9D9"/>
<circle cx="2.51562" cy="27.2915" r="2.5" fill="#D9D9D9"/>
<circle cx="17.5156" cy="27.2915" r="2.5" fill="#D9D9D9"/>
<circle cx="32.5156" cy="27.2915" r="2.5" fill="#D9D9D9"/>
<circle cx="47.5156" cy="27.2915" r="2.5" fill="#D9D9D9"/>
<circle cx="62.5156" cy="27.2915" r="2.5" fill="#D9D9D9"/>
<circle cx="77.5156" cy="27.2915" r="2.5" fill="#D9D9D9"/>
<circle cx="92.5156" cy="27.2915" r="2.5" fill="#D9D9D9"/>
<circle cx="107.516" cy="27.2915" r="2.5" fill="#D9D9D9"/>
<circle cx="122.516" cy="27.2915" r="2.5" fill="#D9D9D9"/>
<circle cx="137.516" cy="27.2915" r="2.5" fill="#D9D9D9"/>
<circle cx="152.516" cy="27.2915" r="2.5" fill="#D9D9D9"/>
<circle cx="167.516" cy="27.2915" r="2.5" fill="#D9D9D9"/>
<circle cx="182.516" cy="27.2915" r="2.5" fill="#D9D9D9"/>
<circle cx="197.516" cy="27.2915" r="2.5" fill="#D9D9D9"/>
<circle cx="212.516" cy="27.2915" r="2.5" fill="#D9D9D9"/>
<circle cx="2.51562" cy="39.2915" r="2.5" fill="#D9D9D9"/>
<circle cx="17.5156" cy="39.2915" r="2.5" fill="#D9D9D9"/>
<circle cx="32.5156" cy="39.2915" r="2.5" fill="#D9D9D9"/>
<circle cx="47.5156" cy="39.2915" r="2.5" fill="#D9D9D9"/>
<circle cx="62.5156" cy="39.2915" r="2.5" fill="#D9D9D9"/>
<circle cx="77.5156" cy="39.2915" r="2.5" fill="#D9D9D9"/>
<circle cx="92.5156" cy="39.2915" r="2.5" fill="#D9D9D9"/>
<circle cx="107.516" cy="39.2915" r="2.5" fill="#D9D9D9"/>
<circle cx="122.516" cy="39.2915" r="2.5" fill="#D9D9D9"/>
<circle cx="137.516" cy="39.2915" r="2.5" fill="#D9D9D9"/>
<circle cx="152.516" cy="39.2915" r="2.5" fill="#D9D9D9"/>
<circle cx="167.516" cy="39.2915" r="2.5" fill="#D9D9D9"/>
<circle cx="182.516" cy="39.2915" r="2.5" fill="#D9D9D9"/>
<circle cx="197.516" cy="39.2915" r="2.5" fill="#D9D9D9"/>
<circle cx="212.516" cy="39.2915" r="2.5" fill="#D9D9D9"/>
<circle cx="2.51562" cy="51.2915" r="2.5" fill="#D9D9D9"/>
<circle cx="17.5156" cy="51.2915" r="2.5" fill="#D9D9D9"/>
<circle cx="32.5156" cy="51.2915" r="2.5" fill="#D9D9D9"/>
<circle cx="47.5156" cy="51.2915" r="2.5" fill="#D9D9D9"/>
<circle cx="62.5156" cy="51.2915" r="2.5" fill="#D9D9D9"/>
<circle cx="77.5156" cy="51.2915" r="2.5" fill="#D9D9D9"/>
<circle cx="92.5156" cy="51.2915" r="2.5" fill="#D9D9D9"/>
<circle cx="107.516" cy="51.2915" r="2.5" fill="#D9D9D9"/>
<circle cx="122.516" cy="51.2915" r="2.5" fill="#D9D9D9"/>
<circle cx="137.516" cy="51.2915" r="2.5" fill="#D9D9D9"/>
<circle cx="152.516" cy="51.2915" r="2.5" fill="#D9D9D9"/>
<circle cx="167.516" cy="51.2915" r="2.5" fill="#D9D9D9"/>
<circle cx="182.516" cy="51.2915" r="2.5" fill="#D9D9D9"/>
<circle cx="197.516" cy="51.2915" r="2.5" fill="#D9D9D9"/>
<circle cx="212.516" cy="51.2915" r="2.5" fill="#D9D9D9"/>
<circle cx="2.51562" cy="63.2915" r="2.5" fill="#D9D9D9"/>
<circle cx="17.5156" cy="63.2915" r="2.5" fill="#D9D9D9"/>
<circle cx="32.5156" cy="63.2915" r="2.5" fill="#D9D9D9"/>
<circle cx="47.5156" cy="63.2915" r="2.5" fill="#D9D9D9"/>
<circle cx="62.5156" cy="63.2915" r="2.5" fill="#D9D9D9"/>
<circle cx="77.5156" cy="63.2915" r="2.5" fill="#D9D9D9"/>
<circle cx="92.5156" cy="63.2915" r="2.5" fill="#D9D9D9"/>
<circle cx="107.516" cy="63.2915" r="2.5" fill="#D9D9D9"/>
<circle cx="122.516" cy="63.2915" r="2.5" fill="#D9D9D9"/>
<circle cx="137.516" cy="63.2915" r="2.5" fill="#D9D9D9"/>
<circle cx="152.516" cy="63.2915" r="2.5" fill="#D9D9D9"/>
<circle cx="167.516" cy="63.2915" r="2.5" fill="#D9D9D9"/>
<circle cx="182.516" cy="63.2915" r="2.5" fill="#D9D9D9"/>
<circle cx="197.516" cy="63.2915" r="2.5" fill="#D9D9D9"/>
<circle cx="212.516" cy="63.2915" r="2.5" fill="#D9D9D9"/>
<circle cx="2.51562" cy="75.2915" r="2.5" fill="#D9D9D9"/>
<circle cx="17.5156" cy="75.2915" r="2.5" fill="#D9D9D9"/>
<circle cx="32.5156" cy="75.2915" r="2.5" fill="#D9D9D9"/>
<circle cx="47.5156" cy="75.2915" r="2.5" fill="#D9D9D9"/>
<circle cx="62.5156" cy="75.2915" r="2.5" fill="#D9D9D9"/>
<circle cx="77.5156" cy="75.2915" r="2.5" fill="#D9D9D9"/>
<circle cx="92.5156" cy="75.2915" r="2.5" fill="#D9D9D9"/>
<circle cx="107.516" cy="75.2915" r="2.5" fill="#D9D9D9"/>
<circle cx="122.516" cy="75.2915" r="2.5" fill="#D9D9D9"/>
<circle cx="137.516" cy="75.2915" r="2.5" fill="#D9D9D9"/>
<circle cx="152.516" cy="75.2915" r="2.5" fill="#D9D9D9"/>
<circle cx="167.516" cy="75.2915" r="2.5" fill="#D9D9D9"/>
<circle cx="182.516" cy="75.2915" r="2.5" fill="#D9D9D9"/>
<circle cx="197.516" cy="75.2915" r="2.5" fill="#D9D9D9"/>
<circle cx="212.516" cy="75.2915" r="2.5" fill="#D9D9D9"/>
<circle cx="2.51562" cy="87.2915" r="2.5" fill="#D9D9D9"/>
<circle cx="17.5156" cy="87.2915" r="2.5" fill="#D9D9D9"/>
<circle cx="32.5156" cy="87.2915" r="2.5" fill="#D9D9D9"/>
<circle cx="47.5156" cy="87.2915" r="2.5" fill="#D9D9D9"/>
<circle cx="62.5156" cy="87.2915" r="2.5" fill="#D9D9D9"/>
<circle cx="77.5156" cy="87.2915" r="2.5" fill="#D9D9D9"/>
<circle cx="92.5156" cy="87.2915" r="2.5" fill="#D9D9D9"/>
<circle cx="107.516" cy="87.2915" r="2.5" fill="#D9D9D9"/>
<circle cx="122.516" cy="87.2915" r="2.5" fill="#D9D9D9"/>
<circle cx="137.516" cy="87.2915" r="2.5" fill="#D9D9D9"/>
<circle cx="152.516" cy="87.2915" r="2.5" fill="#D9D9D9"/>
<circle cx="167.516" cy="87.2915" r="2.5" fill="#D9D9D9"/>
<circle cx="182.516" cy="87.2915" r="2.5" fill="#D9D9D9"/>
<circle cx="197.516" cy="87.2915" r="2.5" fill="#D9D9D9"/>
<circle cx="212.516" cy="87.2915" r="2.5" fill="#D9D9D9"/>
<circle cx="2.51562" cy="99.2915" r="2.5" fill="#D9D9D9"/>
<circle cx="17.5156" cy="99.2915" r="2.5" fill="#D9D9D9"/>
<circle cx="32.5156" cy="99.2915" r="2.5" fill="#D9D9D9"/>
<circle cx="47.5156" cy="99.2915" r="2.5" fill="#D9D9D9"/>
<circle cx="62.5156" cy="99.2915" r="2.5" fill="#D9D9D9"/>
<circle cx="77.5156" cy="99.2915" r="2.5" fill="#D9D9D9"/>
<circle cx="92.5156" cy="99.2915" r="2.5" fill="#D9D9D9"/>
<circle cx="107.516" cy="99.2915" r="2.5" fill="#D9D9D9"/>
<circle cx="122.516" cy="99.2915" r="2.5" fill="#D9D9D9"/>
<circle cx="137.516" cy="99.2915" r="2.5" fill="#D9D9D9"/>
<circle cx="152.516" cy="99.2915" r="2.5" fill="#D9D9D9"/>
<circle cx="167.516" cy="99.2915" r="2.5" fill="#D9D9D9"/>
<circle cx="182.516" cy="99.2915" r="2.5" fill="#D9D9D9"/>
<circle cx="197.516" cy="99.2915" r="2.5" fill="#D9D9D9"/>
<circle cx="212.516" cy="99.2915" r="2.5" fill="#D9D9D9"/>
<circle cx="2.51562" cy="111.292" r="2.5" fill="#D9D9D9"/>
<circle cx="17.5156" cy="111.292" r="2.5" fill="#D9D9D9"/>
<circle cx="32.5156" cy="111.292" r="2.5" fill="#D9D9D9"/>
<circle cx="47.5156" cy="111.292" r="2.5" fill="#D9D9D9"/>
<circle cx="62.5156" cy="111.292" r="2.5" fill="#D9D9D9"/>
<circle cx="77.5156" cy="111.292" r="2.5" fill="#D9D9D9"/>
<circle cx="92.5156" cy="111.292" r="2.5" fill="#D9D9D9"/>
<circle cx="107.516" cy="111.292" r="2.5" fill="#D9D9D9"/>
<circle cx="122.516" cy="111.292" r="2.5" fill="#D9D9D9"/>
<circle cx="137.516" cy="111.292" r="2.5" fill="#D9D9D9"/>
<circle cx="152.516" cy="111.292" r="2.5" fill="#D9D9D9"/>
<circle cx="167.516" cy="111.292" r="2.5" fill="#D9D9D9"/>
<circle cx="182.516" cy="111.292" r="2.5" fill="#D9D9D9"/>
<circle cx="197.516" cy="111.292" r="2.5" fill="#D9D9D9"/>
<circle cx="212.516" cy="111.292" r="2.5" fill="#D9D9D9"/>
<circle cx="2.51562" cy="123.292" r="2.5" fill="#D9D9D9"/>
<circle cx="17.5156" cy="123.292" r="2.5" fill="#D9D9D9"/>
<circle cx="32.5156" cy="123.292" r="2.5" fill="#D9D9D9"/>
<circle cx="47.5156" cy="123.292" r="2.5" fill="#D9D9D9"/>
<circle cx="62.5156" cy="123.292" r="2.5" fill="#D9D9D9"/>
<circle cx="77.5156" cy="123.292" r="2.5" fill="#D9D9D9"/>
<circle cx="92.5156" cy="123.292" r="2.5" fill="#D9D9D9"/>
<circle cx="107.516" cy="123.292" r="2.5" fill="#D9D9D9"/>
<circle cx="122.516" cy="123.292" r="2.5" fill="#D9D9D9"/>
<circle cx="137.516" cy="123.292" r="2.5" fill="#D9D9D9"/>
<circle cx="152.516" cy="123.292" r="2.5" fill="#D9D9D9"/>
<circle cx="167.516" cy="123.292" r="2.5" fill="#D9D9D9"/>
<circle cx="182.516" cy="123.292" r="2.5" fill="#D9D9D9"/>
<circle cx="197.516" cy="123.292" r="2.5" fill="#D9D9D9"/>
<circle cx="212.516" cy="123.292" r="2.5" fill="#D9D9D9"/>
<circle cx="2.51562" cy="135.292" r="2.5" fill="#D9D9D9"/>
<circle cx="17.5156" cy="135.292" r="2.5" fill="#D9D9D9"/>
<circle cx="32.5156" cy="135.292" r="2.5" fill="#D9D9D9"/>
<circle cx="47.5156" cy="135.292" r="2.5" fill="#D9D9D9"/>
<circle cx="62.5156" cy="135.292" r="2.5" fill="#D9D9D9"/>
<circle cx="77.5156" cy="135.292" r="2.5" fill="#D9D9D9"/>
<circle cx="92.5156" cy="135.292" r="2.5" fill="#D9D9D9"/>
<circle cx="107.516" cy="135.292" r="2.5" fill="#D9D9D9"/>
<circle cx="122.516" cy="135.292" r="2.5" fill="#D9D9D9"/>
<circle cx="137.516" cy="135.292" r="2.5" fill="#D9D9D9"/>
<circle cx="152.516" cy="135.292" r="2.5" fill="#D9D9D9"/>
<circle cx="167.516" cy="135.292" r="2.5" fill="#D9D9D9"/>
<circle cx="182.516" cy="135.292" r="2.5" fill="#D9D9D9"/>
<circle cx="197.516" cy="135.292" r="2.5" fill="#D9D9D9"/>
<circle cx="212.516" cy="135.292" r="2.5" fill="#D9D9D9"/>
<circle cx="2.51562" cy="147.292" r="2.5" fill="#D9D9D9"/>
<circle cx="17.5156" cy="147.292" r="2.5" fill="#D9D9D9"/>
<circle cx="32.5156" cy="147.292" r="2.5" fill="#D9D9D9"/>
<circle cx="47.5156" cy="147.292" r="2.5" fill="#D9D9D9"/>
<circle cx="62.5156" cy="147.292" r="2.5" fill="#D9D9D9"/>
<circle cx="77.5156" cy="147.292" r="2.5" fill="#D9D9D9"/>
<circle cx="92.5156" cy="147.292" r="2.5" fill="#D9D9D9"/>
<circle cx="107.516" cy="147.292" r="2.5" fill="#D9D9D9"/>
<circle cx="122.516" cy="147.292" r="2.5" fill="#D9D9D9"/>
<circle cx="137.516" cy="147.292" r="2.5" fill="#D9D9D9"/>
<circle cx="152.516" cy="147.292" r="2.5" fill="#D9D9D9"/>
<circle cx="167.516" cy="147.292" r="2.5" fill="#D9D9D9"/>
<circle cx="182.516" cy="147.292" r="2.5" fill="#D9D9D9"/>
<circle cx="197.516" cy="147.292" r="2.5" fill="#D9D9D9"/>
<circle cx="212.516" cy="147.292" r="2.5" fill="#D9D9D9"/>
<circle cx="2.51562" cy="159.292" r="2.5" fill="#D9D9D9"/>
<circle cx="17.5156" cy="159.292" r="2.5" fill="#D9D9D9"/>
<circle cx="32.5156" cy="159.292" r="2.5" fill="#D9D9D9"/>
<circle cx="47.5156" cy="159.292" r="2.5" fill="#D9D9D9"/>
<circle cx="62.5156" cy="159.292" r="2.5" fill="#D9D9D9"/>
<circle cx="77.5156" cy="159.292" r="2.5" fill="#D9D9D9"/>
<circle cx="92.5156" cy="159.292" r="2.5" fill="#D9D9D9"/>
<circle cx="107.516" cy="159.292" r="2.5" fill="#D9D9D9"/>
<circle cx="122.516" cy="159.292" r="2.5" fill="#D9D9D9"/>
<circle cx="137.516" cy="159.292" r="2.5" fill="#D9D9D9"/>
<circle cx="152.516" cy="159.292" r="2.5" fill="#D9D9D9"/>
<circle cx="167.516" cy="159.292" r="2.5" fill="#D9D9D9"/>
<circle cx="182.516" cy="159.292" r="2.5" fill="#D9D9D9"/>
<circle cx="197.516" cy="159.292" r="2.5" fill="#D9D9D9"/>
<circle cx="212.516" cy="159.292" r="2.5" fill="#D9D9D9"/>
<circle cx="2.51562" cy="171.292" r="2.5" fill="#D9D9D9"/>
<circle cx="17.5156" cy="171.292" r="2.5" fill="#D9D9D9"/>
<circle cx="32.5156" cy="171.292" r="2.5" fill="#D9D9D9"/>
<circle cx="47.5156" cy="171.292" r="2.5" fill="#D9D9D9"/>
<circle cx="62.5156" cy="171.292" r="2.5" fill="#D9D9D9"/>
<circle cx="77.5156" cy="171.292" r="2.5" fill="#D9D9D9"/>
<circle cx="92.5156" cy="171.292" r="2.5" fill="#D9D9D9"/>
<circle cx="107.516" cy="171.292" r="2.5" fill="#D9D9D9"/>
<circle cx="122.516" cy="171.292" r="2.5" fill="#D9D9D9"/>
<circle cx="137.516" cy="171.292" r="2.5" fill="#D9D9D9"/>
<circle cx="152.516" cy="171.292" r="2.5" fill="#D9D9D9"/>
<circle cx="167.516" cy="171.292" r="2.5" fill="#D9D9D9"/>
<circle cx="182.516" cy="171.292" r="2.5" fill="#D9D9D9"/>
<circle cx="197.516" cy="171.292" r="2.5" fill="#D9D9D9"/>
<circle cx="212.516" cy="171.292" r="2.5" fill="#D9D9D9"/>
<circle cx="2.51562" cy="183.292" r="2.5" fill="#D9D9D9"/>
<circle cx="17.5156" cy="183.292" r="2.5" fill="#D9D9D9"/>
<circle cx="32.5156" cy="183.292" r="2.5" fill="#D9D9D9"/>
<circle cx="47.5156" cy="183.292" r="2.5" fill="#D9D9D9"/>
<circle cx="62.5156" cy="183.292" r="2.5" fill="#D9D9D9"/>
<circle cx="77.5156" cy="183.292" r="2.5" fill="#D9D9D9"/>
<circle cx="92.5156" cy="183.292" r="2.5" fill="#D9D9D9"/>
<circle cx="107.516" cy="183.292" r="2.5" fill="#D9D9D9"/>
<circle cx="122.516" cy="183.292" r="2.5" fill="#D9D9D9"/>
<circle cx="137.516" cy="183.292" r="2.5" fill="#D9D9D9"/>
<circle cx="152.516" cy="183.292" r="2.5" fill="#D9D9D9"/>
<circle cx="167.516" cy="183.292" r="2.5" fill="#D9D9D9"/>
<circle cx="182.516" cy="183.292" r="2.5" fill="#D9D9D9"/>
<circle cx="197.516" cy="183.292" r="2.5" fill="#D9D9D9"/>
<circle cx="212.516" cy="183.292" r="2.5" fill="#D9D9D9"/>
</svg>
