<svg width="50" height="49" viewBox="0 0 50 49" fill="none" xmlns="http://www.w3.org/2000/svg">
<path d="M33.8844 11.1814C33.8844 9.46858 33.3747 7.79426 32.4197 6.37013C31.4647 4.946 30.1074 3.83602 28.5193 3.18057C26.9313 2.52511 25.1838 2.35362 23.4979 2.68777C21.812 3.02191 20.2634 3.8467 19.048 5.05782C17.8325 6.26894 17.0048 7.81201 16.6694 9.49188C16.3341 11.1718 16.5062 12.913 17.164 14.4954C17.8218 16.0778 18.9358 17.4303 20.365 18.3819C21.7942 19.3335 23.4745 19.8414 25.1934 19.8414C27.4976 19.8388 29.7067 18.9256 31.3361 17.3021C32.9654 15.6786 33.8818 13.4774 33.8844 11.1814ZM18.7697 11.1814C18.7697 9.91539 19.1464 8.67785 19.8523 7.62523C20.5581 6.57261 21.5614 5.7522 22.7352 5.26773C23.9089 4.78327 25.2006 4.65651 26.4466 4.90349C27.6927 5.15046 28.8373 5.76009 29.7357 6.65527C30.6341 7.55044 31.2459 8.69097 31.4938 9.93262C31.7416 11.1743 31.6144 12.4613 31.1282 13.6309C30.642 14.8005 29.8187 15.8002 28.7623 16.5035C27.7059 17.2068 26.4639 17.5822 25.1934 17.5822C23.4903 17.5804 21.8575 16.9054 20.6532 15.7054C19.4489 14.5054 18.7715 12.8784 18.7697 11.1814Z" fill="#2A2A2A"/>
<path d="M10.0782 21.3474C11.1992 21.3474 12.2951 21.0162 13.2272 20.3956C14.1593 19.775 14.8858 18.8929 15.3148 17.8609C15.7438 16.8289 15.856 15.6933 15.6373 14.5978C15.4186 13.5022 14.8788 12.4958 14.0861 11.706C13.2934 10.9161 12.2835 10.3782 11.184 10.1603C10.0845 9.94236 8.94482 10.0542 7.90913 10.4817C6.87343 10.9091 5.9882 11.633 5.36539 12.5618C4.74258 13.4906 4.41016 14.5826 4.41016 15.6996C4.41192 17.1969 5.00965 18.6325 6.07223 19.6913C7.13481 20.7501 8.57547 21.3457 10.0782 21.3474ZM10.0782 12.3109C10.7508 12.3109 11.4083 12.5096 11.9676 12.882C12.5268 13.2543 12.9627 13.7836 13.2201 14.4028C13.4775 15.022 13.5449 15.7033 13.4137 16.3607C13.2824 17.018 12.9585 17.6218 12.4829 18.0958C12.0073 18.5697 11.4013 18.8924 10.7417 19.0232C10.082 19.1539 9.39817 19.0868 8.77675 18.8303C8.15533 18.5738 7.6242 18.1395 7.25051 17.5822C6.87682 17.025 6.67737 16.3698 6.67737 15.6996C6.67849 14.8012 7.03715 13.9399 7.67468 13.3046C8.31222 12.6694 9.17658 12.312 10.0782 12.3109Z" fill="#2A2A2A"/>
<path d="M40.3082 21.3474C41.4292 21.3474 42.5251 21.0162 43.4572 20.3956C44.3893 19.775 45.1158 18.8929 45.5448 17.8609C45.9738 16.8289 46.086 15.6933 45.8673 14.5978C45.6486 13.5022 45.1088 12.4958 44.3161 11.706C43.5234 10.9161 42.5134 10.3782 41.4139 10.1603C40.3145 9.94236 39.1748 10.0542 38.1391 10.4817C37.1034 10.9091 36.2182 11.633 35.5954 12.5618C34.9726 13.4906 34.6401 14.5826 34.6401 15.6996C34.6419 17.1969 35.2396 18.6325 36.3022 19.6913C37.3648 20.7501 38.8055 21.3457 40.3082 21.3474ZM40.3082 12.3109C40.9808 12.3109 41.6383 12.5096 42.1976 12.882C42.7568 13.2543 43.1927 13.7836 43.4501 14.4028C43.7075 15.022 43.7749 15.7033 43.6436 16.3607C43.5124 17.018 43.1885 17.6218 42.7129 18.0958C42.2373 18.5697 41.6313 18.8924 40.9716 19.0232C40.3119 19.1539 39.6281 19.0868 39.0067 18.8303C38.3853 18.5738 37.8542 18.1395 37.4805 17.5822C37.1068 17.025 36.9073 16.3698 36.9073 15.6996C36.9085 14.8012 37.2671 13.9399 37.9047 13.3046C38.5422 12.6694 39.4066 12.312 40.3082 12.3109Z" fill="#2A2A2A"/>
<path d="M42.9537 38.2909C42.9537 36.5781 42.444 34.9038 41.489 33.4796C40.5341 32.0555 39.1767 30.9455 37.5887 30.2901C36.0006 29.6346 34.2531 29.4631 32.5672 29.7973C30.8814 30.1314 29.3328 30.9562 28.1173 32.1673C26.9019 33.3784 26.0741 34.9215 25.7388 36.6014C25.4034 38.2813 25.5755 40.0225 26.2333 41.6049C26.8911 43.1873 28.0051 44.5398 29.4343 45.4914C30.8635 46.443 32.5438 46.9509 34.2628 46.9509C36.567 46.9483 38.7761 46.0351 40.4054 44.4116C42.0347 42.7881 42.9512 40.5869 42.9537 38.2909ZM34.2628 44.6917C32.9923 44.6917 31.7503 44.3163 30.6939 43.613C29.6375 42.9096 28.8142 41.91 28.328 40.7404C27.8418 39.5708 27.7146 38.2838 27.9624 37.0421C28.2103 35.8005 28.8221 34.6599 29.7205 33.7648C30.6189 32.8696 31.7635 32.26 33.0095 32.013C34.2556 31.766 35.5472 31.8928 36.721 32.3772C37.8948 32.8617 38.8981 33.6821 39.6039 34.7347C40.3098 35.7873 40.6865 37.0249 40.6865 38.2909C40.6846 39.9879 40.0073 41.6149 38.803 42.8149C37.5987 44.0149 35.9659 44.6899 34.2628 44.6917Z" fill="#2A2A2A"/>
<path d="M37.2855 37.1613H31.2396C30.9389 37.1613 30.6506 37.2803 30.438 37.4921C30.2254 37.7039 30.106 37.9912 30.106 38.2908C30.106 38.5904 30.2254 38.8777 30.438 39.0895C30.6506 39.3014 30.9389 39.4204 31.2396 39.4204H37.2855C37.5861 39.4204 37.8745 39.3014 38.087 39.0895C38.2996 38.8777 38.4191 38.5904 38.4191 38.2908C38.4191 37.9912 38.2996 37.7039 38.087 37.4921C37.8745 37.2803 37.5861 37.1613 37.2855 37.1613Z" fill="#2A2A2A"/>
<path d="M9.23249 30.7604C9.23249 30.4608 9.11306 30.1735 8.90047 29.9616C8.68788 29.7498 8.39954 29.6308 8.09889 29.6308H5.31158C5.56625 28.5608 6.17509 27.6075 7.03996 26.9244C7.90482 26.2413 8.97533 25.8684 10.0789 25.8656C10.4727 25.8645 10.865 25.9132 11.2465 26.0105C11.3915 26.05 11.5428 26.0605 11.6919 26.0413C11.8409 26.022 11.9846 25.9734 12.1146 25.8983C12.2446 25.8232 12.3584 25.7231 12.4492 25.6039C12.54 25.4846 12.6062 25.3485 12.6437 25.2035C12.6813 25.0585 12.6896 24.9075 12.6681 24.7593C12.6465 24.6111 12.5957 24.4687 12.5184 24.3403C12.4411 24.2118 12.339 24.1 12.218 24.0112C12.0969 23.9225 11.9594 23.8586 11.8133 23.8233C11.2467 23.6782 10.6639 23.6053 10.0789 23.6065C8.17547 23.6087 6.35062 24.3631 5.00467 25.7042C3.65873 27.0454 2.90161 28.8637 2.89941 30.7604C2.89941 31.0599 3.01885 31.3473 3.23144 31.5591C3.44403 31.7709 3.73237 31.8899 4.03302 31.8899H8.09889C8.39954 31.8899 8.68788 31.7709 8.90047 31.5591C9.11306 31.3473 9.23249 31.0599 9.23249 30.7604Z" fill="#2A2A2A"/>
<path d="M10.75 33.8477C10.6508 34.3413 10.6629 34.8506 10.7853 35.3389C10.9078 35.8272 11.1375 36.2823 11.458 36.6714C11.7784 37.0605 12.1816 37.3738 12.6384 37.5887C13.0951 37.8036 13.5941 37.9148 14.0992 37.9142H22.2609C22.5615 37.9142 22.8499 37.7952 23.0625 37.5833C23.2751 37.3715 23.3945 37.0842 23.3945 36.7846C23.3945 36.485 23.2751 36.1977 23.0625 35.9859C22.8499 35.774 22.5615 35.655 22.2609 35.655H14.0989C13.9308 35.6531 13.7651 35.6148 13.6134 35.5427C13.4616 35.4706 13.3274 35.3664 13.2201 35.2375C13.1128 35.1085 13.035 34.9578 12.992 34.7958C12.949 34.6339 12.9419 34.4645 12.9712 34.2996C13.5547 31.4969 15.0877 28.9795 17.313 27.1697C19.5383 25.3598 22.3207 24.3675 25.1932 24.3594C28.0432 24.3585 30.8063 25.3373 33.0162 27.1306C33.1311 27.2279 33.2642 27.3014 33.4079 27.3469C33.5515 27.3923 33.7029 27.4088 33.853 27.3952C34.0031 27.3817 34.149 27.3384 34.2822 27.268C34.4153 27.1976 34.5331 27.1015 34.6285 26.9852C34.7239 26.8689 34.795 26.7348 34.8378 26.5908C34.8806 26.4468 34.8941 26.2957 34.8776 26.1464C34.8611 25.9971 34.8148 25.8526 34.7415 25.7213C34.6683 25.59 34.5695 25.4746 34.4509 25.3819C32.4861 23.7915 30.1428 22.733 27.6475 22.3087C25.1522 21.8844 22.5892 22.1087 20.2063 22.9598C17.8234 23.811 15.7011 25.2603 14.0446 27.1676C12.388 29.0749 11.2533 31.3757 10.75 33.8477Z" fill="#2A2A2A"/>
<path d="M46.3542 31.8899C46.6549 31.8899 46.9432 31.7709 47.1558 31.5591C47.3684 31.3473 47.4878 31.0599 47.4878 30.7604C47.4856 28.8637 46.7285 27.0454 45.3826 25.7042C44.0366 24.3631 42.2118 23.6087 40.3083 23.6065C39.7233 23.6053 39.1405 23.6782 38.5739 23.8233C38.4279 23.8586 38.2903 23.9225 38.1693 24.0112C38.0483 24.1 37.9461 24.2118 37.8689 24.3403C37.7916 24.4687 37.7407 24.6111 37.7192 24.7593C37.6977 24.9075 37.706 25.0585 37.7435 25.2035C37.7811 25.3485 37.8472 25.4846 37.9381 25.6039C38.0289 25.7231 38.1426 25.8232 38.2726 25.8983C38.4027 25.9734 38.5464 26.022 38.6954 26.0413C38.8444 26.0605 38.9958 26.05 39.1407 26.0105C39.5222 25.9132 39.9146 25.8645 40.3083 25.8656C41.4119 25.8684 42.4824 26.2413 43.3473 26.9244C44.2122 27.6075 44.821 28.5608 45.0757 29.6308H43.6797C43.379 29.6308 43.0907 29.7498 42.8781 29.9616C42.6655 30.1735 42.5461 30.4608 42.5461 30.7604C42.5461 31.0599 42.6655 31.3473 42.8781 31.5591C43.0907 31.7709 43.379 31.8899 43.6797 31.8899H46.3542Z" fill="#2A2A2A"/>
</svg>
