<svg width="64" height="63" viewBox="0 0 64 63" fill="none" xmlns="http://www.w3.org/2000/svg">
<path d="M47.8586 27.0533H17.0555C16.6219 27.0535 16.1943 27.1517 15.8057 27.3401C15.4172 27.5286 15.0782 27.8023 14.8151 28.14C14.552 28.4777 14.3718 28.8703 14.2887 29.2873C14.2055 29.7043 14.2216 30.1344 14.3356 30.5443L18.9499 47.1286C19.1135 47.7132 19.4682 48.229 19.9597 48.5969C20.4511 48.9649 21.0522 49.1647 21.6707 49.1657H43.2434C43.8619 49.1647 44.463 48.9649 44.9544 48.5969C45.4459 48.229 45.8006 47.7132 45.9642 47.1286L50.5785 30.5443C50.6925 30.1344 50.7086 29.7043 50.6254 29.2873C50.5423 28.8703 50.3621 28.4777 50.099 28.14C49.8359 27.8023 49.4969 27.5286 49.1084 27.3401C48.7198 27.1517 48.2922 27.0535 47.8586 27.0533ZM48.7649 30.0606L44.1507 46.6449C44.0962 46.8398 43.9779 47.0117 43.814 47.1343C43.6501 47.2568 43.4496 47.3231 43.2434 47.323H21.6707C21.4645 47.3231 21.264 47.2568 21.1001 47.1343C20.9362 47.0117 20.8179 46.8398 20.7634 46.6449L16.1492 30.0606C16.111 29.924 16.1055 29.7805 16.1331 29.6414C16.1607 29.5023 16.2207 29.3713 16.3084 29.2587C16.3961 29.146 16.5091 29.0547 16.6387 28.9918C16.7683 28.9289 16.9109 28.8961 17.0555 28.896H47.8586C48.0032 28.8961 48.1458 28.9289 48.2754 28.9918C48.405 29.0547 48.518 29.146 48.6057 29.2587C48.6934 29.3713 48.7533 29.5023 48.781 29.6414C48.8086 29.7805 48.8031 29.924 48.7649 30.0606Z" fill="#2A2A2A"/>
<path d="M47.5521 51.0085H20.235C19.6164 51.0076 19.0152 50.8078 18.5236 50.4398C18.0319 50.0719 17.677 49.556 17.5133 48.9714L10.9529 25.4051C10.7891 24.8205 10.4342 24.3047 9.94262 23.9367C9.45099 23.5688 8.84977 23.369 8.23116 23.368H5.19259C4.94325 23.368 4.70412 23.4651 4.52781 23.6379C4.35149 23.8107 4.25244 24.045 4.25244 24.2894C4.25244 24.5337 4.35149 24.7681 4.52781 24.9409C4.70412 25.1137 4.94325 25.2107 5.19259 25.2107H8.23116C8.43746 25.2107 8.63804 25.2772 8.80199 25.3999C8.96594 25.5226 9.08416 25.6947 9.13841 25.8898L15.6997 49.456C15.934 50.2927 16.4042 51.0477 17.0564 51.6344C17.7086 52.2211 18.5164 52.6157 19.387 52.7729C18.7237 53.5781 18.3597 54.5804 18.3547 55.6153C18.3547 56.837 18.85 58.0088 19.7315 58.8727C20.6131 59.7366 21.8088 60.222 23.0555 60.222C24.3022 60.222 25.4979 59.7366 26.3794 58.8727C27.261 58.0088 27.7562 56.837 27.7562 55.6153C27.7528 54.6152 27.4138 53.6439 26.7916 52.8512H39.0625C38.4403 53.6439 38.1014 54.6152 38.0979 55.6153C38.0979 56.837 38.5932 58.0088 39.4747 58.8727C40.3563 59.7366 41.552 60.222 42.7987 60.222C44.0454 60.222 45.241 59.7366 46.1226 58.8727C47.0042 58.0088 47.4994 56.837 47.4994 55.6153C47.496 54.6152 47.157 53.6439 46.5348 52.8512H47.5521C47.8014 52.8512 48.0406 52.7541 48.2169 52.5814C48.3932 52.4086 48.4922 52.1742 48.4922 51.9299C48.4922 51.6855 48.3932 51.4512 48.2169 51.2784C48.0406 51.1056 47.8014 51.0085 47.5521 51.0085ZM25.8759 55.6153C25.8759 56.1619 25.7105 56.6963 25.4006 57.1509C25.0907 57.6054 24.6502 57.9597 24.1348 58.1689C23.6195 58.3781 23.0524 58.4328 22.5052 58.3262C21.9581 58.2195 21.4556 57.9563 21.0611 57.5697C20.6667 57.1832 20.398 56.6907 20.2892 56.1545C20.1804 55.6183 20.2362 55.0626 20.4497 54.5575C20.6632 54.0524 21.0247 53.6208 21.4885 53.317C21.9523 53.0133 22.4976 52.8512 23.0555 52.8512C23.8035 52.8512 24.5209 53.1424 25.0498 53.6608C25.5788 54.1791 25.8759 54.8822 25.8759 55.6153ZM45.6191 55.6153C45.6191 56.1619 45.4537 56.6963 45.1438 57.1509C44.8339 57.6054 44.3934 57.9597 43.878 58.1689C43.3626 58.3781 42.7955 58.4328 42.2484 58.3262C41.7013 58.2195 41.1988 57.9563 40.8043 57.5697C40.4099 57.1832 40.1412 56.6907 40.0324 56.1545C39.9236 55.6183 39.9794 55.0626 40.1929 54.5575C40.4064 54.0524 40.7679 53.6208 41.2317 53.317C41.6955 53.0133 42.2408 52.8512 42.7987 52.8512C43.5467 52.8512 44.2641 53.1424 44.793 53.6608C45.322 54.1791 45.6191 54.8822 45.6191 55.6153Z" fill="#2A2A2A"/>
<path d="M23.0559 56.5365C23.5751 56.5365 23.996 56.124 23.996 55.6152C23.996 55.1063 23.5751 54.6938 23.0559 54.6938C22.5366 54.6938 22.1157 55.1063 22.1157 55.6152C22.1157 56.124 22.5366 56.5365 23.0559 56.5365Z" fill="#2A2A2A"/>
<path d="M42.7986 56.5365C43.3178 56.5365 43.7387 56.124 43.7387 55.6152C43.7387 55.1063 43.3178 54.6938 42.7986 54.6938C42.2793 54.6938 41.8584 55.1063 41.8584 55.6152C41.8584 56.124 42.2793 56.5365 42.7986 56.5365Z" fill="#2A2A2A"/>
<path d="M43.7382 31.6602H21.1745C20.9252 31.6602 20.6861 31.7572 20.5097 31.93C20.3334 32.1028 20.2344 32.3371 20.2344 32.5815C20.2344 32.8259 20.3334 33.0602 20.5097 33.233C20.6861 33.4058 20.9252 33.5029 21.1745 33.5029H43.7382C43.9875 33.5029 44.2267 33.4058 44.403 33.233C44.5793 33.0602 44.6783 32.8259 44.6783 32.5815C44.6783 32.3371 44.5793 32.1028 44.403 31.93C44.2267 31.7572 43.9875 31.6602 43.7382 31.6602Z" fill="#2A2A2A"/>
<path d="M32.4564 36.2668H21.1745C20.9252 36.2668 20.6861 36.3639 20.5097 36.5367C20.3334 36.7095 20.2344 36.9438 20.2344 37.1882C20.2344 37.4326 20.3334 37.6669 20.5097 37.8397C20.6861 38.0125 20.9252 38.1095 21.1745 38.1095H32.4564C32.7057 38.1095 32.9448 38.0125 33.1211 37.8397C33.2975 37.6669 33.3965 37.4326 33.3965 37.1882C33.3965 36.9438 33.2975 36.7095 33.1211 36.5367C32.9448 36.3639 32.7057 36.2668 32.4564 36.2668Z" fill="#2A2A2A"/>
<path d="M59.5011 20.2041C59.1576 20.0636 58.7792 20.0266 58.4142 20.0978C58.0491 20.1691 57.714 20.3453 57.4516 20.604L55.4904 22.5259L47.6938 14.8852C47.5174 14.7124 47.2784 14.6154 47.0291 14.6154C46.7798 14.6154 46.5407 14.7124 46.3644 14.8852L39.8971 21.2231L23.7236 5.21745C23.5453 5.06227 23.3136 4.97929 23.0752 4.98529C22.8368 4.99129 22.6097 5.08584 22.4397 5.24978C22.2698 5.41373 22.1698 5.63483 22.16 5.86831C22.1501 6.10179 22.2312 6.33022 22.3867 6.50734L39.2258 23.1773C39.3127 23.2641 39.4162 23.3333 39.5304 23.3807C39.6447 23.4282 39.7674 23.453 39.8914 23.4537C40.1408 23.45 40.3795 23.3535 40.5589 23.1838L47.0291 16.8393L54.1611 23.8287L52.1999 25.7506C51.937 26.0083 51.758 26.3366 51.6855 26.694C51.613 27.0514 51.6502 27.4219 51.7925 27.7585C51.9348 28.0952 52.1757 28.383 52.4848 28.5854C52.794 28.7879 53.1574 28.896 53.5293 28.8961H58.781C59.2797 28.8961 59.7579 28.702 60.1105 28.3564C60.4632 28.0108 60.6613 27.5421 60.6613 27.0534V21.9068C60.6614 21.5423 60.5512 21.1861 60.3447 20.883C60.1382 20.5799 59.8446 20.3437 59.5011 20.2041ZM58.781 27.0534H53.5293L56.1401 24.4902C56.1401 24.4902 56.1504 24.4847 56.1551 24.4801C56.1598 24.4755 56.1608 24.47 56.1655 24.4653L58.781 21.8939V27.0534Z" fill="#2A2A2A"/>
</svg>
