<svg width="44" height="35" viewBox="0 0 44 35" fill="none" xmlns="http://www.w3.org/2000/svg">
<g clip-path="url(#clip0_284_3370)">
<path d="M29.4345 23.0773C29.4345 23.7192 29.9704 24.2444 30.6254 24.2444H36.5797C36.6571 24.2444 36.7345 24.2386 36.8119 24.2211C36.8476 24.2152 36.8774 24.2036 36.9131 24.1919C36.9548 24.1802 36.9965 24.1686 37.0322 24.1569C37.0739 24.1394 37.1096 24.116 37.1453 24.0985C37.1751 24.081 37.2108 24.0693 37.2346 24.0518C37.3656 23.9643 37.4788 23.8534 37.5621 23.7309C37.58 23.7017 37.5919 23.6725 37.6098 23.6434C37.6336 23.6084 37.6514 23.5675 37.6693 23.5267C37.6872 23.4858 37.6931 23.4508 37.705 23.4099C37.7169 23.3749 37.7288 23.3458 37.7348 23.3107C37.7527 23.2349 37.7586 23.159 37.7586 23.0832V17.2477C37.7586 16.6058 37.2227 16.0807 36.5678 16.0807C35.9128 16.0807 35.3769 16.6058 35.3769 17.2477V20.2647L25.4987 10.5837C25.0343 10.1285 24.2781 10.1285 23.8137 10.5837L18.6989 15.5963L13.5842 10.5837C13.1197 10.1285 12.3635 10.1285 11.8991 10.5837C11.4347 11.0388 11.4347 11.7799 11.8991 12.2351L17.8534 18.0705C18.3178 18.5257 19.074 18.5257 19.5385 18.0705L24.6532 13.0579L33.6859 21.9102H30.6075C29.9525 21.9102 29.4166 22.4354 29.4166 23.0773H29.4345Z" fill="#2A2A2A"/>
<path d="M4.42676 27.1621C4.42676 31.0251 7.63017 34.1646 11.5719 34.1646H37.7708C38.4258 34.1646 38.9617 33.6394 38.9617 32.9975C38.9617 32.3556 38.4258 31.8304 37.7708 31.8304H11.5719C8.94607 31.8304 6.80848 29.7355 6.80848 27.1621V1.48618C6.80848 0.84428 6.27259 0.319092 5.61762 0.319092C4.96264 0.319092 4.42676 0.84428 4.42676 1.48618V27.1621Z" fill="#2A2A2A"/>
</g>
<defs>
<clipPath id="clip0_284_3370">
<rect width="42.8709" height="33.8455" fill="white" transform="translate(0.175781 0.328247)"/>
</clipPath>
</defs>
</svg>
