<svg width="54" height="54" viewBox="0 0 54 54" fill="none" xmlns="http://www.w3.org/2000/svg">
<path d="M4.1084 51.1445H15.4114V43.5533H17.8595L24.207 49.9007C24.9868 50.6904 26.0727 51.1445 27.1981 51.1445H46.27C48.6096 51.1445 50.5049 49.2492 50.5049 46.9195C50.5049 44.5799 48.6096 42.6846 46.27 42.6846H28.9453L28.0075 41.7468H35.8949C38.2345 41.7468 40.1299 39.8514 40.1299 37.5217C40.1299 35.1822 38.2345 33.2868 35.8949 33.2868H27.8792L23.8121 29.2197C23.0125 28.4201 21.9562 27.9858 20.821 27.9858H15.4015V26.2878H4.1084V51.1445ZM20.8309 29.9601C21.433 29.9601 21.9957 30.197 22.4202 30.6215L27.0599 35.2611H35.8851C37.1289 35.2611 38.1457 36.2779 38.1457 37.5217C38.1457 38.7655 37.1289 39.7724 35.8851 39.7724H26.1221C25.9839 39.7724 25.8457 39.7527 25.7173 39.733L22.7065 39.2492L28.126 44.649H46.2601C47.5039 44.649 48.5207 45.6658 48.5207 46.9096C48.5207 48.1534 47.5039 49.1603 46.2601 49.1603H27.1981C26.5959 49.1603 26.0233 48.9234 25.6087 48.4989L18.6789 41.5691H15.4114V29.9601H20.8309ZM6.08272 28.2622H13.4371V43.5533V49.1702H6.08272V28.2622Z" fill="#2A2A2A"/>
<path d="M36.9216 4.74805C29.4389 4.74805 23.3481 10.8388 23.3481 18.3215C23.3481 25.8042 29.4389 31.9048 36.9216 31.9048C44.4043 31.9048 50.5049 25.814 50.5049 18.3215C50.5049 10.8388 44.4141 4.74805 36.9216 4.74805ZM36.9216 29.9305C30.5248 29.9305 25.3225 24.7282 25.3225 18.3215C25.3225 11.9247 30.5248 6.72237 36.9216 6.72237C43.3184 6.72237 48.5306 11.9247 48.5306 18.3215C48.5306 24.7282 43.3283 29.9305 36.9216 29.9305Z" fill="#2A2A2A"/>
<path d="M39.3504 9.56531H32.9536V18.3313H30.1304V20.3056H32.9536V22.6945H30.1304V24.6688H32.9536V27.8475H34.928V24.6688H41.2458V22.6945H34.928V20.3056H39.3504C42.3119 20.3056 44.7206 17.8969 44.7206 14.9355C44.7206 11.974 42.302 9.56531 39.3504 9.56531ZM39.3504 18.3313H34.928V11.5396H39.3504C41.2162 11.5396 42.7463 13.0599 42.7463 14.9355C42.7463 16.8111 41.2162 18.3313 39.3504 18.3313Z" fill="#2A2A2A"/>
</svg>
