<svg width="63" height="63" viewBox="0 0 63 63" fill="none" xmlns="http://www.w3.org/2000/svg">
<path d="M35.861 12.3231C35.861 6.71038 31.2952 2.14453 25.6825 2.14453C20.0697 2.14453 15.5029 6.71135 15.5029 12.3231C15.5029 17.9348 20.0688 22.5016 25.6815 22.5016C31.2942 22.5016 35.861 17.9348 35.861 12.3231ZM17.4443 12.3231C17.4443 7.78053 21.1409 4.08497 25.6825 4.08497C30.224 4.08497 33.9206 7.78053 33.9206 12.3231C33.9206 16.8656 30.224 20.5612 25.6825 20.5612C21.1409 20.5612 17.4443 16.8656 17.4443 12.3231Z" fill="#2A2A2A"/>
<path d="M8.50146 37.1014V49.2194C8.50146 49.7549 8.93515 50.1896 9.47168 50.1896H28.4297V50.9076C28.4297 52.229 29.5038 53.304 30.8262 53.304H35.5026C36.2429 53.304 36.8968 52.9567 37.3354 52.424C38.5287 53.4544 40.4488 55.6665 40.2674 59.1525C40.2451 59.59 40.5187 59.9888 40.9349 60.1246C41.0503 60.1625 41.6849 60.3565 42.496 60.3565C43.1295 60.3565 43.8717 60.2372 44.5567 59.8316C45.1903 59.4562 46.0082 58.679 46.3031 57.1111C46.6504 55.2697 46.306 53.8609 45.8316 52.8761H50.9087C52.0177 52.8761 53.0704 52.3949 53.7951 51.5557C54.5208 50.7155 54.8439 49.6036 54.6829 48.5034L53.2654 39.0098C52.9811 37.1576 51.3589 35.7615 49.4922 35.7615H42.7851C42.1283 28.805 36.3904 23.4174 29.301 23.3049C29.2049 23.2942 29.1215 23.2942 29.0604 23.2942H22.3077C22.2465 23.2942 22.1922 23.2981 22.1369 23.302C22.134 23.302 22.1321 23.302 22.1291 23.302C22.1097 23.3029 22.0903 23.302 22.0709 23.3049C14.5828 23.4203 8.50146 29.5977 8.50146 37.1014ZM26.7066 27.6602H25.6976C25.6928 27.6602 25.6889 27.6573 25.6831 27.6573H24.6595L23.6126 25.2337L27.7584 25.2278L26.7066 27.6602ZM24.7827 29.5977H25.6695C25.6743 29.5977 25.6782 29.6006 25.684 29.6006H26.5854L28.5355 37.5079C28.4724 37.7175 28.4307 37.9328 28.4307 38.1599V45.2298L25.6831 47.8718L21.3151 43.6756L24.7827 29.5977ZM28.0892 48.2501L28.4297 47.9222V48.2501H28.0892ZM35.5026 51.3645H30.8262C30.5749 51.3645 30.3702 51.1598 30.3702 50.9085V45.6713C30.3702 45.6626 30.3702 45.6538 30.3702 45.6451V38.1599C30.3702 38.1026 30.3809 38.0541 30.4332 37.9484C30.4876 37.8271 30.6292 37.7039 30.8252 37.7039H35.5017C35.7481 37.7039 35.948 37.9086 35.948 38.1599V50.9085C35.948 51.1598 35.7491 51.3645 35.5026 51.3645ZM51.3473 39.3018L52.7638 48.7886C52.8433 49.329 52.6842 49.8762 52.3272 50.2886C51.9711 50.7009 51.455 50.9367 50.9097 50.9367H43.9348C43.5263 50.9367 43.1654 51.1967 43.0267 51.5809C42.887 51.9651 43.0082 52.3988 43.3236 52.6607C43.3886 52.7151 44.9137 54.0181 44.3976 56.7531C44.2666 57.4468 43.9979 57.9067 43.5758 58.1599C43.1693 58.4044 42.6425 58.4374 42.2165 58.4025C42.0953 53.8706 39.0876 51.2549 37.8894 50.3895V39.6191L40.4391 38.0328C40.7864 37.8164 41.1736 37.7029 41.5568 37.7029H49.4932C50.41 37.7029 51.2085 38.3927 51.3473 39.3018ZM40.8563 35.8265C40.8165 35.8333 40.7787 35.8517 40.7389 35.8595C40.5672 35.8964 40.3984 35.9439 40.2315 36.0031C40.1684 36.0254 40.1053 36.0467 40.0423 36.072C39.8279 36.1603 39.6164 36.2602 39.4155 36.3844L37.77 37.408C37.7574 37.3691 37.738 37.3342 37.7235 37.2964C37.706 37.2517 37.6885 37.2081 37.6682 37.1644C37.6255 37.0713 37.577 36.983 37.5236 36.8966C37.5013 36.8617 37.4819 36.8248 37.4586 36.7909C37.3781 36.6745 37.2898 36.5648 37.1908 36.4649C37.1879 36.462 37.186 36.461 37.1831 36.4581C37.086 36.3621 36.9803 36.2757 36.8687 36.1971C36.8328 36.1719 36.794 36.1505 36.7571 36.1273C36.6737 36.0749 36.5883 36.0283 36.499 35.9866C36.4544 35.9662 36.4088 35.9468 36.3622 35.9284C36.2691 35.8925 36.174 35.8634 36.076 35.8391C36.0324 35.8284 35.9897 35.8149 35.9451 35.8061C35.8015 35.779 35.655 35.7615 35.5046 35.7615H30.8281C30.5875 35.7615 30.3527 35.7993 30.1305 35.8663L28.3657 28.7138L29.8511 25.2802C35.6317 25.6489 40.2596 30.0964 40.8573 35.8246L40.8563 35.8265ZM21.5218 25.2851L23.0023 28.7119L19.2971 43.7541C19.2136 44.0908 19.3175 44.4459 19.5668 44.6856L23.2759 48.2482H10.4419V37.1004C10.4419 30.8483 15.358 25.6848 21.5218 25.2851Z" fill="#2A2A2A"/>
<path d="M33.1587 39.2C32.6222 39.2 32.1885 39.6346 32.1885 40.1702V41.2976C32.1885 41.8331 32.6222 42.2678 33.1587 42.2678C33.6952 42.2678 34.1289 41.8331 34.1289 41.2976V40.1702C34.1289 39.6346 33.6952 39.2 33.1587 39.2Z" fill="#2A2A2A"/>
</svg>
