<svg width="77" height="77" viewBox="0 0 77 77" fill="none" xmlns="http://www.w3.org/2000/svg">
<path d="M62.0176 62.4151H60.1138V50.9923C60.1138 50.7398 60.0135 50.4977 59.835 50.3192C59.6565 50.1406 59.4144 50.0404 59.1619 50.0404H55.3543C55.1018 50.0404 54.8597 50.1406 54.6812 50.3192C54.5027 50.4977 54.4024 50.7398 54.4024 50.9923V62.4151H52.4986V54.7999C52.4986 54.5474 52.3983 54.3053 52.2198 54.1268C52.0413 53.9483 51.7991 53.848 51.5467 53.848H47.7391C47.4866 53.848 47.2445 53.9483 47.066 54.1268C46.8874 54.3053 46.7872 54.5474 46.7872 54.7999V62.4151H44.8834V57.6556C44.8834 57.4031 44.7831 57.161 44.6045 56.9825C44.426 56.804 44.1839 56.7037 43.9314 56.7037H40.1238C39.8714 56.7037 39.6292 56.804 39.4507 56.9825C39.2722 57.161 39.1719 57.4031 39.1719 57.6556V62.4151H34.4124C34.1599 62.4151 33.9178 62.5154 33.7393 62.6939C33.5608 62.8724 33.4605 63.1145 33.4605 63.367C33.4605 63.6195 33.5608 63.8616 33.7393 64.0401C33.9178 64.2186 34.1599 64.3189 34.4124 64.3189H62.0176C62.2701 64.3189 62.5122 64.2186 62.6907 64.0401C62.8692 63.8616 62.9695 63.6195 62.9695 63.367C62.9695 63.1145 62.8692 62.8724 62.6907 62.6939C62.5122 62.5154 62.2701 62.4151 62.0176 62.4151ZM41.0757 62.4151V58.6075H42.9795V62.4151H41.0757ZM48.691 62.4151V55.7518H50.5948V62.4151H48.691ZM56.3062 62.4151V51.9442H58.21V62.4151H56.3062ZM64.522 40.2777L61.533 29.8734L56.4951 12.3673C56.1031 11.1909 55.2667 10.2144 54.1646 9.64625C53.0624 9.07809 51.7818 8.96333 50.5962 9.32648L43.3508 11.1081C41.4519 10.4767 39.646 9.5941 37.9811 8.48386C37.1399 7.81922 36.1588 7.3541 35.1118 7.12351C34.0648 6.89292 32.9791 6.90287 31.9365 7.15262L28.1233 8.19286C27.0147 8.4929 26.0034 9.07652 25.189 9.88623C24.3745 10.6959 23.785 11.7038 23.4786 12.8106C23.1486 14.0147 22.6996 15.1829 22.1381 16.2979C22.1336 16.3075 22.1347 16.317 22.1305 16.3258L12.3103 18.7405V18.7424C11.2858 18.9676 10.3695 19.5375 9.71448 20.3568C9.05942 21.1761 8.70522 22.1953 8.71101 23.2443V51.3635C8.71155 53.0405 9.34506 54.6555 10.4849 55.8856C11.6247 57.1156 13.1868 57.8702 14.8589 57.9983L18.5693 58.4266C19.6016 58.5459 20.6473 58.4541 21.643 58.1568L61.2819 46.322C61.9017 46.1522 62.48 45.857 62.981 45.4546C63.4821 45.0522 63.8952 44.5512 64.1947 43.9826C64.4954 43.4187 64.6793 42.8001 64.7355 42.1635C64.7918 41.5269 64.7191 40.8856 64.522 40.2777ZM51.1154 11.1569C51.8233 10.9293 52.5922 10.9876 53.2578 11.3192C53.9234 11.6509 54.4329 12.2297 54.6776 12.9319L59.5779 29.9615C59.2568 30.3724 58.8574 30.7156 58.4029 30.9711C58.1786 31.0961 57.9703 31.2218 57.76 31.3474C57.6045 30.9241 57.3565 30.5408 57.0341 30.2253C56.7117 29.9099 56.3231 29.6702 55.8965 29.5239C55.4698 29.3775 55.016 29.3281 54.5678 29.3792C54.1197 29.4303 53.6886 29.5806 53.3059 29.8193C52.8574 30.0913 52.4869 30.4746 52.2304 30.9321C51.9738 31.3896 51.84 31.9056 51.8418 32.4301C51.8421 32.666 51.8695 32.901 51.9235 33.1306L52.4978 35.596C51.8806 36.2555 51.3064 36.954 50.7788 37.6872C49.4308 39.591 47.1255 41.9605 43.7961 42.4351C41.4503 42.6982 39.0757 42.3906 36.8743 41.5385C35.453 41.0344 33.9718 40.7184 32.4685 40.5986L31.9898 38.5108C31.9033 38.1282 31.7386 37.7676 31.5061 37.4517C31.2736 37.1357 30.9783 36.8713 30.6387 36.6749C30.2992 36.4786 29.9226 36.3545 29.5329 36.3106C29.1431 36.2667 28.7484 36.3038 28.3736 36.4197L28.2003 36.4713C27.5149 36.686 26.9351 37.1502 26.5757 37.772C26.2162 38.3938 26.1034 39.1279 26.2594 39.829L26.5544 41.1173C22.9409 42.0008 21.4161 38.4683 21.0207 37.3214L20.6575 36.3857L17.8494 22.3341C17.6428 21.3132 17.0978 20.392 16.3025 19.7195L51.1154 11.1569ZM53.7773 32.6967C53.7205 32.4589 53.7406 32.2092 53.8348 31.9835C53.929 31.7579 54.0924 31.568 54.3015 31.4412C54.4587 31.3429 54.6372 31.2839 54.822 31.2692C55.0068 31.2545 55.1924 31.2845 55.3631 31.3567C55.5343 31.4277 55.6858 31.5389 55.8048 31.681C55.9237 31.8231 56.0066 31.9918 56.0464 32.1728L56.9317 35.9709C56.9661 36.1199 56.9709 36.2742 56.9456 36.4251C56.9204 36.5759 56.8658 36.7203 56.7848 36.85C56.7037 36.9797 56.598 37.0922 56.4735 37.181C56.349 37.2698 56.2083 37.3332 56.0593 37.3677C55.9103 37.4021 55.756 37.4068 55.6051 37.3816C55.4543 37.3564 55.3099 37.3017 55.1802 37.2207C55.0505 37.1397 54.938 37.034 54.8492 36.9095C54.7604 36.785 54.697 36.6442 54.6625 36.4952L53.7773 32.6967ZM30.5467 44.6557L30.3754 44.7064C30.2507 44.7457 30.1192 44.7587 29.9892 44.7445C29.8592 44.7303 29.7336 44.6891 29.6204 44.6237C29.5071 44.5583 29.4087 44.4701 29.3315 44.3646C29.2542 44.2591 29.1997 44.1387 29.1715 44.011L28.1156 39.4053C28.0638 39.174 28.1004 38.9317 28.2181 38.7259C28.3358 38.5201 28.5262 38.3658 28.7518 38.2931C28.9045 38.2507 29.0598 38.2181 29.2166 38.1954C29.4307 38.1965 29.6381 38.2704 29.8048 38.4048C29.9714 38.5393 30.0874 38.7264 30.1337 38.9354L31.1896 43.5411C31.2409 43.7736 31.2034 44.0169 31.0844 44.2232C30.9655 44.4294 30.7737 44.5837 30.5467 44.6557ZM25.3163 13.3079C25.5355 12.5213 25.9558 11.8053 26.5358 11.2304C27.1159 10.6556 27.8357 10.2418 28.6243 10.0298L32.438 8.98951C33.1856 8.79384 33.9691 8.77948 34.7233 8.94763C35.4776 9.11578 36.1808 9.46157 36.7745 9.95626C37.7408 10.7502 38.8033 11.4192 39.9369 11.9475L24.4737 15.7496C24.8065 14.9546 25.0879 14.139 25.3163 13.3079ZM15.0569 56.1065C13.854 56.0238 12.7272 55.4886 11.903 54.6086C11.0788 53.7287 10.6186 52.5692 10.6148 51.3635V23.2443C10.6112 22.6251 10.8209 22.0236 11.2087 21.5409C11.5965 21.0583 12.1387 20.7239 12.744 20.594C12.8818 20.5628 13.0219 20.5431 13.1629 20.535C13.1948 20.5321 13.2269 20.5309 13.259 20.5313C13.9066 20.5301 14.536 20.7458 15.0467 21.144C15.5318 21.5398 15.8631 22.093 15.9832 22.7075L18.8103 36.8528C18.8167 36.8844 18.8249 36.9155 18.835 36.9462L22.0369 52.9667C22.1335 53.4705 22.1153 53.9896 21.9835 54.4854C21.8518 54.9812 21.61 55.4409 21.2761 55.8303C21.0338 56.121 20.7274 56.3515 20.3809 56.5038C20.0345 56.656 19.6574 56.7259 19.2794 56.7079L15.0569 56.1065ZM62.5145 43.0879C62.3335 43.4305 62.0838 43.7321 61.7809 43.9738C61.478 44.2155 61.1286 44.3921 60.7543 44.4926L23.6071 55.6213C23.9992 54.6632 24.1023 53.6113 23.9038 52.5954L21.7521 41.83C22.7874 42.6924 24.0939 43.1617 25.4414 43.1553C25.9593 43.1498 26.4749 43.0857 26.9784 42.9643L27.3159 44.4363C27.4588 45.0667 27.812 45.6297 28.3172 46.0329C28.8225 46.436 29.4499 46.6554 30.0963 46.6548C30.3798 46.6551 30.6616 46.612 30.9321 46.527L31.0939 46.4794L31.1055 46.4757C31.7908 46.261 32.3706 45.7969 32.73 45.1752C33.0894 44.5534 33.2024 43.8194 33.0464 43.1184L32.9158 42.5485C34.0486 42.6859 35.1626 42.9488 36.2373 43.3322C38.1503 44.0403 40.1698 44.418 42.2095 44.4492C42.8305 44.4501 43.4508 44.4069 44.0657 44.3199C48.0653 43.7496 50.769 40.9966 52.3298 38.7911C52.5925 38.4242 52.8638 38.0797 53.1377 37.7452C53.466 38.3388 53.9847 38.8045 54.6101 39.0673C55.0589 39.2577 55.5469 39.3372 56.033 39.2993C56.519 39.2613 56.9888 39.107 57.4026 38.8493C57.8512 38.5773 58.2218 38.1938 58.4783 37.7362C58.7349 37.2786 58.8687 36.7624 58.8668 36.2378C58.8665 36.0019 58.8391 35.7669 58.785 35.5373L58.2576 33.2755C58.5973 33.0597 58.9481 32.8461 59.3302 32.6328C59.6292 32.4616 59.9121 32.2638 60.1756 32.0419L62.7037 40.8415C62.8278 41.209 62.875 41.598 62.8424 41.9844C62.8099 42.3708 62.6983 42.7464 62.5145 43.0879ZM42.9795 40.5213C43.9209 40.5213 44.8411 40.2422 45.6238 39.7192C46.4065 39.1962 47.0165 38.4529 47.3768 37.5832C47.737 36.7135 47.8313 35.7565 47.6476 34.8333C47.464 33.91 47.0107 33.0619 46.345 32.3963C45.6794 31.7307 44.8313 31.2774 43.9081 31.0937C42.9848 30.9101 42.0278 31.0043 41.1582 31.3646C40.2885 31.7248 39.5451 32.3349 39.0221 33.1176C38.4992 33.9003 38.22 34.8205 38.22 35.7618C38.2215 37.0236 38.7234 38.2334 39.6157 39.1256C40.508 40.0179 41.7177 40.5198 42.9795 40.5213ZM42.9795 32.9061C43.5443 32.9061 44.0965 33.0736 44.5661 33.3874C45.0357 33.7012 45.4017 34.1472 45.6179 34.669C45.834 35.1908 45.8906 35.765 45.7804 36.3189C45.6702 36.8729 45.3982 37.3817 44.9988 37.7811C44.5995 38.1805 44.0906 38.4525 43.5367 38.5626C42.9827 38.6728 42.4085 38.6163 41.8867 38.4001C41.3649 38.184 40.9189 37.818 40.6051 37.3484C40.2913 36.8787 40.1238 36.3266 40.1238 35.7618C40.1247 35.0047 40.4258 34.2788 40.9612 33.7434C41.4965 33.2081 42.2224 32.9069 42.9795 32.9061Z" fill="#2A2A2A"/>
</svg>
