<svg width="51" height="49" viewBox="0 0 51 49" fill="none" xmlns="http://www.w3.org/2000/svg">
<path d="M43.7109 39.3541V23.5493H31.4797V39.3541H26.0437V30.19H13.8125V39.3541H11.3662V41.3463H46.1572V39.3541H43.7109ZM24.0051 39.3541H15.851V32.1822H24.0051V39.3541ZM41.6724 39.3541H33.5183V25.5415H41.6724V39.3541Z" fill="#2A2A2A"/>
<path d="M42.6912 17.6391C42.6912 16.3213 41.9732 15.1644 40.8995 14.522C41.5907 13.7599 42.0117 12.7586 42.0117 11.6625C42.0117 9.28242 40.0303 7.34607 37.5949 7.34607C35.1594 7.34607 33.178 9.28242 33.178 11.6625C33.178 12.7586 33.599 13.7599 34.2902 14.522C33.2166 15.1644 32.4985 16.3213 32.4985 17.6391V21.5571H42.6912V17.6391ZM37.5949 9.33827C38.9063 9.33827 39.9732 10.3809 39.9732 11.6625C39.9732 12.9441 38.9063 13.9867 37.5949 13.9867C36.2835 13.9867 35.2166 12.9441 35.2166 11.6625C35.2166 10.3809 36.2835 9.33827 37.5949 9.33827ZM40.6527 19.5649H34.5371V17.6391C34.5371 16.7237 35.2991 15.9789 36.2358 15.9789H38.9539C39.8906 15.9789 40.6527 16.7237 40.6527 17.6391V19.5649Z" fill="#2A2A2A"/>
<path d="M25.0242 24.2799C25.0242 22.962 24.3062 21.8052 23.2325 21.1627C23.9237 20.4006 24.3447 19.3993 24.3447 18.3033C24.3447 15.9232 22.3633 13.9868 19.9279 13.9868C17.4924 13.9868 15.5111 15.9232 15.5111 18.3033C15.5111 19.3993 15.932 20.4006 16.6232 21.1627C15.5496 21.8052 14.8315 22.962 14.8315 24.2799V28.1979H25.0242V24.2799ZM19.9279 15.979C21.2393 15.979 22.3062 17.0217 22.3062 18.3033C22.3062 19.5848 21.2393 20.6275 19.9279 20.6275C18.6165 20.6275 17.5496 19.5848 17.5496 18.3033C17.5496 17.0217 18.6165 15.979 19.9279 15.979ZM22.9857 26.2057H16.8701V24.2799C16.8701 23.3644 17.6321 22.6197 18.5689 22.6197H21.2869C22.2236 22.6197 22.9857 23.3644 22.9857 24.2799V26.2057Z" fill="#2A2A2A"/>
</svg>
