<svg width="50" height="49" viewBox="0 0 50 49" fill="none" xmlns="http://www.w3.org/2000/svg">
<path d="M12.0893 21.5103C13.0191 21.5103 13.9281 21.2411 14.7012 20.7368C15.4743 20.2325 16.0769 19.5158 16.4327 18.6772C16.7885 17.8386 16.8816 16.9158 16.7002 16.0256C16.5188 15.1353 16.071 14.3176 15.4135 13.6758C14.756 13.0339 13.9183 12.5969 13.0064 12.4198C12.0944 12.2427 11.1492 12.3336 10.2901 12.681C9.43107 13.0283 8.69683 13.6165 8.18025 14.3713C7.66368 15.126 7.38795 16.0133 7.38795 16.9209C7.38935 18.1377 7.88512 19.3043 8.7665 20.1646C9.64788 21.025 10.8429 21.509 12.0893 21.5103ZM12.0893 14.3296C12.6143 14.3297 13.1275 14.4817 13.5641 14.7664C14.0006 15.0511 14.3408 15.4559 14.5417 15.9294C14.7426 16.4029 14.7952 16.9239 14.6927 17.4265C14.5903 17.9292 14.3375 18.3909 13.9662 18.7533C13.595 19.1157 13.122 19.3625 12.6071 19.4625C12.0921 19.5624 11.5584 19.5111 11.0734 19.315C10.5883 19.1189 10.1738 18.7867 9.88209 18.3606C9.59041 17.9345 9.43473 17.4335 9.43473 16.9209C9.43552 16.2339 9.71546 15.5752 10.2131 15.0894C10.7108 14.6036 11.3855 14.3304 12.0893 14.3296ZM25.2681 16.744C26.5303 16.7439 27.7642 16.3785 28.8136 15.694C29.8631 15.0094 30.6811 14.0364 31.1641 12.898C31.6471 11.7597 31.7734 10.507 31.5271 9.29858C31.2809 8.09011 30.673 6.98007 29.7805 6.10883C28.8879 5.2376 27.7508 4.6443 26.5128 4.40396C25.2748 4.16363 23.9917 4.28705 22.8256 4.75863C21.6595 5.2302 20.6628 6.02874 19.9616 7.05328C19.2604 8.07781 18.8862 9.28231 18.8862 10.5145C18.8881 12.1662 19.5611 13.7497 20.7575 14.9176C21.954 16.0855 23.5761 16.7425 25.2681 16.7443V16.744ZM25.2681 6.28235C26.1255 6.28237 26.9636 6.53056 27.6764 6.99555C28.3893 7.46054 28.9449 8.12144 29.273 8.89468C29.6011 9.66792 29.687 10.5188 29.5197 11.3396C29.3525 12.1605 28.9396 12.9145 28.3334 13.5064C27.7272 14.0982 26.9548 14.5012 26.1139 14.6646C25.273 14.8279 24.4014 14.7441 23.6093 14.4239C22.8172 14.1036 22.1401 13.5613 21.6638 12.8654C21.1874 12.1695 20.9331 11.3514 20.933 10.5145C20.9343 9.3925 21.3915 8.31684 22.2042 7.5235C23.0169 6.73016 24.1188 6.28392 25.2681 6.28268V6.28235ZM38.4471 23.2206C37.3568 23.2218 36.2766 23.4237 35.2631 23.8159C33.9971 22.456 32.4538 21.3695 30.7323 20.626C29.0109 19.8825 27.1492 19.4984 25.2668 19.4985C23.3844 19.4986 21.5227 19.8828 19.8013 20.6264C18.0799 21.37 16.5367 22.4566 15.2708 23.8166C13.9587 23.3079 12.539 23.1206 11.1356 23.2711C9.73225 23.4215 8.38801 23.9052 7.22031 24.6798C6.05262 25.4544 5.09702 26.4964 4.43701 27.7147C3.777 28.933 3.43266 30.2905 3.43409 31.6687V35.8729C3.43409 36.1379 3.54191 36.392 3.73383 36.5793C3.92575 36.7667 4.18606 36.8719 4.45748 36.8719H11.7397V39.5934C11.7397 39.8584 11.8476 40.1125 12.0395 40.2999C12.2314 40.4872 12.4917 40.5925 12.7631 40.5925H37.7698C38.0412 40.5925 38.3016 40.4872 38.4935 40.2999C38.6854 40.1125 38.7932 39.8584 38.7932 39.5934V36.8719H46.0753C46.3467 36.8719 46.607 36.7667 46.799 36.5793C46.9909 36.392 47.0987 36.1379 47.0987 35.8729V31.6687C47.0965 29.4292 46.1843 27.2821 44.5624 25.6983C42.9404 24.1145 40.7412 23.2235 38.4471 23.2206ZM11.7397 32.7032V34.8741H5.48087V31.6689C5.48319 29.9585 6.18041 28.3188 7.41955 27.1097C8.6587 25.9005 10.3386 25.2205 12.0907 25.2188C12.7198 25.218 13.3457 25.3061 13.949 25.4805C12.505 27.6254 11.7369 30.1365 11.7397 32.7032ZM36.7464 38.5946H13.7865V32.7032C13.7865 26.5238 18.9376 21.4966 25.2697 21.4966C31.5977 21.4966 36.7464 26.5238 36.7464 32.7032V38.5946ZM45.0519 34.8741H38.7932V32.7032C38.7962 30.1372 38.0288 27.6267 36.586 25.4818C37.5709 25.1982 38.61 25.1429 39.6207 25.3203C40.6313 25.4977 41.5857 25.9029 42.4077 26.5036C43.2297 27.1044 43.8968 27.8841 44.3558 28.7807C44.8149 29.6774 45.0532 30.6663 45.0519 31.6687V34.8741ZM38.4457 21.5103C39.3755 21.5103 40.2845 21.2411 41.0576 20.7369C41.8307 20.2326 42.4333 19.5158 42.7891 18.6772C43.1449 17.8386 43.238 16.9159 43.0566 16.0256C42.8752 15.1354 42.4275 14.3176 41.77 13.6758C41.1125 13.034 40.2748 12.5969 39.3629 12.4198C38.4509 12.2427 37.5056 12.3336 36.6466 12.6809C35.7875 13.0283 35.0533 13.6165 34.5367 14.3712C34.0201 15.126 33.7444 16.0133 33.7444 16.9209C33.7458 18.1377 34.2416 19.3042 35.1229 20.1646C36.0043 21.025 37.1993 21.5089 38.4457 21.5103ZM38.4457 14.3296C38.9707 14.3296 39.4839 14.4816 39.9205 14.7664C40.357 15.0511 40.6972 15.4558 40.8981 15.9293C41.099 16.4028 41.1516 16.9238 41.0492 17.4265C40.9468 17.9291 40.6939 18.3909 40.3227 18.7533C39.9515 19.1157 39.4785 19.3625 38.9636 19.4625C38.4486 19.5624 37.9149 19.5111 37.4299 19.315C36.9448 19.1189 36.5302 18.7867 36.2386 18.3606C35.9469 17.9345 35.7912 17.4335 35.7912 16.9209C35.792 16.2339 36.0719 15.5753 36.5695 15.0895C37.0672 14.6037 37.7419 14.3304 38.4457 14.3296ZM47.0987 44.4522C47.0987 44.7172 46.9909 44.9713 46.799 45.1586C46.607 45.346 46.3467 45.4512 46.0753 45.4512H4.45748C4.18606 45.4512 3.92575 45.346 3.73383 45.1586C3.54191 44.9713 3.43409 44.7172 3.43409 44.4522C3.43409 44.1872 3.54191 43.9331 3.73383 43.7458C3.92575 43.5584 4.18606 43.4532 4.45748 43.4532H46.0753C46.3467 43.4532 46.607 43.5584 46.799 43.7458C46.9909 43.9331 47.0987 44.1872 47.0987 44.4522Z" fill="#2A2A2A"/>
</svg>
