<svg width="1920" height="67" viewBox="0 0 1920 67" fill="none" xmlns="http://www.w3.org/2000/svg">
<path d="M93.7815 1L0 52.92V119L93.7815 67.08L186 119V52.92L93.7815 1Z" fill="white" stroke="white"/>
<path d="M280.286 1L186 52.92V119L280.286 67.08L373 119V52.92L280.286 1Z" fill="white" stroke="white"/>
<path d="M466.782 1L373 52.92V119L466.782 67.08L559 119V52.92L466.782 1Z" fill="white" stroke="white"/>
<path d="M652.782 1L559 52.92V119L652.782 67.08L745 119V52.92L652.782 1Z" fill="white" stroke="white"/>
<path d="M838.782 1L745 52.92V119L838.782 67.08L931 119V52.92L838.782 1Z" fill="white" stroke="white"/>
<path d="M1024.78 1L931 52.92V119L1024.78 67.08L1117 119V52.92L1024.78 1Z" fill="white" stroke="white"/>
<path d="M1210.78 1L1117 52.92V119L1210.78 67.08L1303 119V52.92L1210.78 1Z" fill="white" stroke="white"/>
<path d="M1582.78 1L1489 52.92V119L1582.78 67.08L1675 119V52.92L1582.78 1Z" fill="white" stroke="white"/>
<path d="M1396.78 1L1303 52.92V119L1396.78 67.08L1489 119V52.92L1396.78 1Z" fill="white" stroke="white"/>
<path d="M1768.78 1L1675 52.92V119L1768.78 67.08L1861 119V52.92L1768.78 1Z" fill="white" stroke="white"/>
<path d="M1954.78 1L1861 52.92V119L1954.78 67.08L2047 119V52.92L1954.78 1Z" fill="white" stroke="white"/>
</svg>
