<svg width="88" height="88" viewBox="0 0 88 88" fill="none" xmlns="http://www.w3.org/2000/svg">
<path d="M50.6505 71.5352H37.3484C32.8257 71.5352 29.1011 75.2597 29.1011 79.7825V85.2363C29.1011 85.9014 29.6332 86.5665 30.4313 86.5665H57.5676C58.2327 86.5665 58.8978 86.0344 58.8978 85.2363V79.7825C58.8978 75.2597 55.1732 71.5352 50.6505 71.5352ZM56.2373 84.0391H31.7615V79.9155C31.7615 76.856 34.2889 74.3286 37.3484 74.3286H50.6505C53.7099 74.3286 56.2373 76.856 56.2373 79.9155V84.0391Z" fill="white"/>
<path d="M35.4863 60.0951C35.4863 64.7509 39.3439 68.6085 43.9997 68.6085C48.6554 68.6085 52.513 64.7509 52.513 60.0951C52.513 55.4394 48.6554 51.5818 43.9997 51.5818C39.3439 51.7148 35.4863 55.4394 35.4863 60.0951ZM49.8526 60.0951C49.8526 63.2876 47.1922 65.948 43.9997 65.948C40.8072 65.948 38.1467 63.2876 38.1467 60.0951C38.1467 56.9026 40.8072 54.2422 43.9997 54.2422C47.1922 54.2422 49.8526 56.9026 49.8526 60.0951Z" fill="white"/>
<path d="M79.6493 73.9294H68.8746C65.017 73.9294 61.9575 76.9889 61.9575 80.8465V85.2362C61.9575 85.9013 62.4896 86.5664 63.2877 86.5664H85.2362C85.9013 86.5664 86.5664 86.0343 86.5664 85.2362V80.8465C86.5664 76.9889 83.5069 73.9294 79.6493 73.9294ZM84.039 84.039H64.6179V80.8465C64.6179 78.4522 66.6133 76.5899 68.8746 76.5899H79.6493C82.0437 76.5899 83.906 78.5852 83.906 80.8465V84.039H84.039Z" fill="white"/>
<path d="M74.3284 57.8337C70.4708 57.8337 67.2783 61.0262 67.2783 64.8838C67.2783 68.7415 70.4708 71.934 74.3284 71.934C78.186 71.934 81.3785 68.7415 81.3785 64.8838C81.3785 61.0262 78.186 57.8337 74.3284 57.8337ZM74.3284 69.4066C71.801 69.4066 69.8057 67.4112 69.8057 64.8838C69.8057 62.3565 71.801 60.3611 74.3284 60.3611C76.8558 60.3611 78.8511 62.3565 78.8511 64.8838C78.8511 67.4112 76.8558 69.4066 74.3284 69.4066Z" fill="white"/>
<path d="M18.9919 73.9294H8.35019C4.49259 73.9294 1.43311 76.9889 1.43311 80.8465V85.2362C1.43311 85.9013 1.96519 86.5664 2.76331 86.5664H24.7118C25.3769 86.5664 26.042 86.0343 26.042 85.2362V80.8465C25.909 76.9889 22.8495 73.9294 18.9919 73.9294ZM23.3816 84.039H3.9605V80.8465C3.9605 78.4522 5.95582 76.5899 8.21717 76.5899H18.9919C21.3862 76.5899 23.2485 78.5852 23.2485 80.8465V84.039H23.3816Z" fill="white"/>
<path d="M13.6717 72.067C17.5293 72.067 20.7218 68.8745 20.7218 65.0169C20.7218 61.1593 17.5293 57.9668 13.6717 57.9668C9.81408 57.9668 6.62158 61.1593 6.62158 65.0169C6.62158 68.8745 9.81408 72.067 13.6717 72.067ZM13.6717 60.3612C16.1991 60.3612 18.1944 62.3565 18.1944 64.8839C18.1944 67.4113 16.1991 69.4066 13.6717 69.4066C11.1443 69.4066 9.14898 67.4113 9.14898 64.8839C9.14898 62.3565 11.1443 60.3612 13.6717 60.3612Z" fill="white"/>
<path d="M12.4739 10.4783H13.5381V43.2014C13.5381 46.1279 15.9324 48.3892 18.7259 48.3892H69.2738C72.2003 48.3892 74.4616 45.9949 74.4616 43.2014V10.4783H75.5258C78.0532 10.4783 80.0485 8.48297 80.0485 5.95557C80.0485 3.42818 78.0532 1.43286 75.5258 1.43286H12.4739C9.94649 1.43286 7.95117 3.42818 7.95117 5.95557C7.95117 8.48297 9.94649 10.4783 12.4739 10.4783ZM71.9342 43.3345C71.9342 44.7977 70.7371 45.9949 69.2738 45.9949H18.7259C17.2626 45.9949 16.0654 44.7977 16.0654 43.3345V10.4783H71.9342V43.3345ZM12.4739 3.96026H75.5258C76.59 3.96026 77.5211 4.89141 77.5211 5.95557C77.5211 7.01974 76.59 7.95089 75.5258 7.95089H12.4739C11.4097 7.95089 10.4786 7.01974 10.4786 5.95557C10.4786 4.89141 11.4097 3.96026 12.4739 3.96026Z" fill="white"/>
<path d="M64.4847 17.9275H59.0309C58.3658 17.9275 57.7007 18.4596 57.7007 19.2577C57.7007 19.9228 58.2328 20.5879 59.0309 20.5879H61.4253L51.7147 30.2984L47.5911 26.1748C47.059 25.6427 46.2609 25.6427 45.7288 26.1748L38.6787 33.2249L34.0229 28.5692C33.4909 28.0371 32.6927 28.0371 32.1607 28.5692L23.5143 37.3485C22.9822 37.8806 22.9822 38.6788 23.5143 39.2108C24.0464 39.7429 24.8445 39.7429 25.3766 39.2108L33.0918 31.4956L37.7475 36.1514C38.2796 36.6834 39.0777 36.6834 39.6098 36.1514L46.6599 29.1012L50.7836 33.2249C51.3157 33.757 52.1138 33.757 52.6459 33.2249L63.2875 22.5832V24.9776C63.2875 25.6427 63.8196 26.3078 64.6178 26.3078C65.2829 26.3078 65.948 25.7757 65.948 24.9776V19.5237C65.8149 18.4596 65.2829 17.9275 64.4847 17.9275Z" fill="white"/>
</svg>
