<svg width="74" height="74" viewBox="0 0 74 74" fill="none" xmlns="http://www.w3.org/2000/svg">
<path d="M16.3481 18.5974C14.8009 18.5974 13.2885 18.1386 12.002 17.279C10.7156 16.4194 9.71295 15.1977 9.12086 13.7683C8.52878 12.3389 8.37386 10.766 8.67571 9.2485C8.97755 7.73104 9.72259 6.33716 10.8166 5.24313C11.9106 4.1491 13.3045 3.40406 14.822 3.10222C16.3394 2.80038 17.9123 2.95529 19.3418 3.54738C20.7712 4.13946 21.9929 5.14212 22.8525 6.42856C23.7121 7.715 24.1709 9.22745 24.1709 10.7746C24.1709 12.8494 23.3467 14.8391 21.8796 16.3061C20.4126 17.7732 18.4228 18.5974 16.3481 18.5974ZM16.3481 4.90759C15.1877 4.90759 14.0534 5.25169 13.0886 5.89637C12.1237 6.54105 11.3717 7.45735 10.9277 8.52942C10.4836 9.60148 10.3674 10.7811 10.5938 11.9192C10.8202 13.0573 11.379 14.1027 12.1995 14.9233C13.02 15.7438 14.0654 16.3026 15.2035 16.529C16.3416 16.7553 17.5213 16.6391 18.5933 16.1951C19.6654 15.751 20.5817 14.999 21.2264 14.0342C21.8711 13.0694 22.2152 11.935 22.2152 10.7746C22.2152 9.2186 21.597 7.72629 20.4968 6.62601C19.3965 5.52572 17.9042 4.90759 16.3481 4.90759Z" fill="white"/>
<path d="M20.2583 71.4006C18.9616 71.4006 17.7181 70.8855 16.8012 69.9686C15.8843 69.0517 15.3691 67.8081 15.3691 66.5114V50.8659H17.3248V66.5114C17.3248 67.2894 17.6339 68.0355 18.184 68.5857C18.7342 69.1358 19.4803 69.4449 20.2583 69.4449C21.0364 69.4449 21.7825 69.1358 22.3327 68.5857C22.8828 68.0355 23.1919 67.2894 23.1919 66.5114V31.3091H25.1476V66.5114C25.1476 67.8081 24.6324 69.0517 23.7155 69.9686C22.7986 70.8855 21.555 71.4006 20.2583 71.4006Z" fill="white"/>
<path d="M12.4356 71.4006C11.1389 71.4006 9.89531 70.8855 8.9784 69.9686C8.0615 69.0517 7.54639 67.8081 7.54639 66.5114V31.3091H9.50207V66.5114C9.50207 67.2894 9.81114 68.0355 10.3613 68.5857C10.9114 69.1358 11.6576 69.4449 12.4356 69.4449C13.2136 69.4449 13.9598 69.1358 14.5099 68.5857C15.0601 68.0355 15.3691 67.2894 15.3691 66.5114V50.8659H17.3248V66.5114C17.3248 67.8081 16.8097 69.0517 15.8928 69.9686C14.9759 70.8855 13.7323 71.4006 12.4356 71.4006Z" fill="white"/>
<path d="M26.6148 53.7996C25.7071 53.7996 24.8366 53.439 24.1948 52.7972C23.553 52.1553 23.1924 51.2848 23.1924 50.3771V42.9651H25.1481V50.3771C25.1481 50.7661 25.3026 51.1392 25.5777 51.4143C25.8527 51.6894 26.2258 51.8439 26.6148 51.8439C27.0038 51.8439 27.3769 51.6894 27.652 51.4143C27.9271 51.1392 28.0816 50.7661 28.0816 50.3771V31.3092C28.0816 28.9752 27.1544 26.7367 25.504 25.0863C23.8535 23.4359 21.6151 22.5087 19.281 22.5087H13.414C11.0799 22.5087 8.84145 23.4359 7.19103 25.0863C5.5406 26.7367 4.6134 28.9752 4.6134 31.3092V50.3771C4.6134 50.7661 4.76793 51.1392 5.043 51.4143C5.31807 51.6894 5.69115 51.8439 6.08016 51.8439C6.46917 51.8439 6.84225 51.6894 7.11732 51.4143C7.39239 51.1392 7.54692 50.7661 7.54692 50.3771V42.0655H9.5026V50.3771C9.5026 51.2848 9.14203 52.1553 8.50019 52.7972C7.85836 53.439 6.98785 53.7996 6.08016 53.7996C5.17247 53.7996 4.30196 53.439 3.66013 52.7972C3.01829 52.1553 2.65771 51.2848 2.65771 50.3771V31.3092C2.65771 28.4565 3.79096 25.7206 5.80815 23.7034C7.82534 21.6862 10.5612 20.553 13.414 20.553H19.281C22.1338 20.553 24.8696 21.6862 26.8868 23.7034C28.904 25.7206 30.0373 28.4565 30.0373 31.3092V50.3771C30.0373 51.2848 29.6767 52.1553 29.0349 52.7972C28.393 53.439 27.5225 53.7996 26.6148 53.7996Z" fill="white"/>
<path d="M70.1289 45.9769H29.0009V44.0212H69.1511V4.90759H16.3477V2.9519H70.1289C70.3883 2.9519 70.637 3.05493 70.8204 3.23831C71.0037 3.42169 71.1068 3.67041 71.1068 3.92975V44.9991C71.1068 45.2584 71.0037 45.5071 70.8204 45.6905C70.637 45.8739 70.3883 45.9769 70.1289 45.9769Z" fill="white"/>
<path d="M35.7381 32.8049L34.3496 31.4163L44.128 21.6379C44.2189 21.5463 44.3271 21.4735 44.4462 21.4239C44.5654 21.3742 44.6932 21.3487 44.8223 21.3487C44.9514 21.3487 45.0792 21.3742 45.1983 21.4239C45.3175 21.4735 45.4257 21.5463 45.5166 21.6379L50.6893 26.8205L59.7735 17.7266L61.162 19.1151L51.3836 28.8935C51.2927 28.9852 51.1845 29.0579 51.0654 29.1076C50.9462 29.1572 50.8184 29.1828 50.6893 29.1828C50.5602 29.1828 50.4324 29.1572 50.3133 29.1076C50.1941 29.0579 50.086 28.9852 49.9951 28.8935L44.8223 23.711L35.7381 32.8049Z" fill="white"/>
<path d="M61.446 24.288H59.4903V19.3988H54.6011V17.4431H60.4681C60.7275 17.4431 60.9762 17.5461 61.1596 17.7295C61.3429 17.9129 61.446 18.1616 61.446 18.421V24.288Z" fill="white"/>
<path d="M39.9332 59.4903C38.9662 59.4903 38.0209 59.2036 37.2169 58.6663C36.4128 58.1291 35.7862 57.3655 35.4161 56.4721C35.0461 55.5788 34.9492 54.5957 35.1379 53.6473C35.3265 52.6989 35.7922 51.8277 36.476 51.1439C37.1597 50.4602 38.0309 49.9945 38.9793 49.8059C39.9277 49.6172 40.9108 49.714 41.8042 50.0841C42.6976 50.4541 43.4611 51.0808 43.9984 51.8848C44.5356 52.6889 44.8224 53.6341 44.8224 54.6011C44.8224 55.8978 44.3072 57.1414 43.3903 58.0583C42.4734 58.9752 41.2299 59.4903 39.9332 59.4903ZM39.9332 51.6676C39.353 51.6676 38.7858 51.8396 38.3034 52.162C37.821 52.4843 37.445 52.9425 37.2229 53.4785C37.0009 54.0145 36.9428 54.6044 37.056 55.1734C37.1692 55.7425 37.4486 56.2652 37.8588 56.6754C38.2691 57.0857 38.7918 57.3651 39.3609 57.4783C39.9299 57.5915 40.5197 57.5334 41.0558 57.3113C41.5918 57.0893 42.0499 56.7133 42.3723 56.2309C42.6946 55.7485 42.8667 55.1813 42.8667 54.6011C42.8667 53.8231 42.5576 53.077 42.0075 52.5268C41.4573 51.9767 40.7112 51.6676 39.9332 51.6676Z" fill="white"/>
<path d="M47.7561 71.2245H32.1107C31.8513 71.2245 31.6026 71.1214 31.4192 70.9381C31.2358 70.7547 31.1328 70.506 31.1328 70.2466V66.3353C31.1328 65.0386 31.6479 63.795 32.5648 62.8781C33.4817 61.9612 34.7253 61.446 36.022 61.446H43.8447C45.1414 61.446 46.385 61.9612 47.3019 62.8781C48.2188 63.795 48.734 65.0386 48.734 66.3353V70.2466C48.734 70.506 48.6309 70.7547 48.4476 70.9381C48.2642 71.1214 48.0155 71.2245 47.7561 71.2245ZM33.0885 69.2688H46.7783V66.3353C46.7783 65.5572 46.4692 64.8111 45.9191 64.2609C45.3689 63.7108 44.6228 63.4017 43.8447 63.4017H36.022C35.244 63.4017 34.4978 63.7108 33.9477 64.2609C33.3976 64.8111 33.0885 65.5572 33.0885 66.3353V69.2688Z" fill="white"/>
<path d="M62.4239 59.4903C61.4569 59.4903 60.5116 59.2036 59.7076 58.6663C58.9036 58.1291 58.2769 57.3655 57.9068 56.4721C57.5368 55.5788 57.44 54.5957 57.6286 53.6473C57.8173 52.6989 58.2829 51.8277 58.9667 51.1439C59.6505 50.4602 60.5216 49.9945 61.47 49.8059C62.4185 49.6172 63.4015 49.714 64.2949 50.0841C65.1883 50.4541 65.9519 51.0808 66.4891 51.8848C67.0263 52.6889 67.3131 53.6341 67.3131 54.6011C67.3131 55.8978 66.798 57.1414 65.8811 58.0583C64.9642 58.9752 63.7206 59.4903 62.4239 59.4903ZM62.4239 51.6676C61.8437 51.6676 61.2765 51.8396 60.7941 52.162C60.3117 52.4843 59.9357 52.9425 59.7137 53.4785C59.4916 54.0145 59.4335 54.6044 59.5467 55.1734C59.6599 55.7425 59.9393 56.2652 60.3496 56.6754C60.7598 57.0857 61.2825 57.3651 61.8516 57.4783C62.4206 57.5915 63.0105 57.5334 63.5465 57.3113C64.0825 57.0893 64.5407 56.7133 64.863 56.2309C65.1854 55.7485 65.3574 55.1813 65.3574 54.6011C65.3574 53.8231 65.0483 53.077 64.4982 52.5268C63.9481 51.9767 63.2019 51.6676 62.4239 51.6676Z" fill="white"/>
<path d="M70.2459 71.2245H54.6004C54.3411 71.2245 54.0923 71.1214 53.909 70.9381C53.7256 70.7547 53.6226 70.506 53.6226 70.2466V66.3353C53.6226 65.0386 54.1377 63.795 55.0546 62.8781C55.9715 61.9612 57.2151 61.446 58.5118 61.446H66.3345C67.6312 61.446 68.8748 61.9612 69.7917 62.8781C70.7086 63.795 71.2237 65.0386 71.2237 66.3353V70.2466C71.2237 70.506 71.1207 70.7547 70.9373 70.9381C70.7539 71.1214 70.5052 71.2245 70.2459 71.2245ZM55.5782 69.2688H69.268V66.3353C69.268 65.5572 68.959 64.8111 68.4088 64.2609C67.8587 63.7108 67.1125 63.4017 66.3345 63.4017H58.5118C57.7337 63.4017 56.9876 63.7108 56.4375 64.2609C55.8873 64.8111 55.5782 65.5572 55.5782 66.3353V69.2688Z" fill="white"/>
</svg>
