<svg width="66" height="68" viewBox="0 0 66 68" fill="none" xmlns="http://www.w3.org/2000/svg">
<g clip-path="url(#clip0_184_687)">
<path d="M14.9179 39.4958C19.2382 39.4958 22.7529 35.886 22.7529 31.4507C22.7529 27.0166 19.2382 23.4095 14.9179 23.4095C10.595 23.4095 7.07908 27.0166 7.07908 31.4507C7.07908 35.886 10.595 39.4958 14.9179 39.4958ZM14.9179 25.5171C18.1061 25.5171 20.6993 28.1786 20.6993 31.4507C20.6993 34.7241 18.1061 37.3869 14.9179 37.3869C11.7284 37.3869 9.13388 34.7241 9.13388 31.4507C9.13259 28.1786 11.7284 25.5171 14.9179 25.5171ZM55.2197 41.0177H46.9401C43.9164 41.0177 41.0713 42.3274 39.0383 44.6301C38.4215 44.5154 37.7867 44.4534 37.1377 44.4534H28.8581C28.2092 44.4534 27.5757 44.5167 26.9588 44.6301C24.9297 42.3261 22.0833 41.0177 19.0558 41.0177H10.7762C4.89064 41.0177 0.102539 45.9332 0.102539 51.9749V57.8109C0.102539 60.6346 2.33981 62.932 5.08982 62.932H18.4646C19.1457 64.9275 20.9975 66.3637 23.1718 66.3637H42.8241C44.9997 66.3637 46.854 64.9275 47.5351 62.932H60.906C63.6573 62.932 65.8959 60.6346 65.8959 57.8109V51.9749C65.8972 45.9332 61.1078 41.0177 55.2197 41.0177ZM2.15734 57.8109V51.9749C2.15734 47.0951 6.02406 43.1266 10.7762 43.1266H19.0558C21.1568 43.1266 23.1499 43.91 24.71 45.3146C20.8792 46.979 18.1845 50.8763 18.1845 55.4079V60.8245H5.08982C3.47323 60.8232 2.15734 59.4727 2.15734 57.8109ZM42.8241 64.2562H23.1718C21.5552 64.2562 20.2393 62.9057 20.2393 61.2465V55.4066C20.2393 51.2746 23.015 47.7954 26.7532 46.8287C26.7892 46.8221 26.8252 46.8142 26.8599 46.8036C27.5011 46.6467 28.1706 46.5609 28.8581 46.5609H37.1377C37.8252 46.5609 38.4934 46.6467 39.1347 46.8036C39.1707 46.8142 39.2066 46.8234 39.2426 46.8287C42.9821 47.7954 45.7591 51.2733 45.7591 55.4066V61.2465C45.7591 61.3863 45.7488 61.5235 45.7309 61.658C45.7231 61.695 45.7167 61.7332 45.7129 61.7728C45.4713 63.1813 44.2685 64.2562 42.8241 64.2562ZM63.8424 57.8109C63.8424 59.4727 62.5252 60.8245 60.906 60.8245H47.8152V55.4079C47.8152 50.8776 45.1205 46.9803 41.2884 45.3146C42.8511 43.91 44.8429 43.1266 46.9414 43.1266H55.221C59.9757 43.1266 63.8437 47.0964 63.8437 51.9749V57.8109H63.8424ZM51.0818 39.4958C55.4021 39.4958 58.9168 35.886 58.9168 31.4507C58.9168 27.0166 55.4021 23.4095 51.0818 23.4095C46.7589 23.4095 43.243 27.0166 43.243 31.4507C43.243 35.886 46.7602 39.4958 51.0818 39.4958ZM51.0818 25.5171C54.27 25.5171 56.8633 28.1786 56.8633 31.4507C56.8633 34.7241 54.27 37.3869 51.0818 37.3869C47.8923 37.3869 45.2978 34.7241 45.2978 31.4507C45.2978 28.1786 47.8923 25.5171 51.0818 25.5171ZM25.161 34.8863C25.161 39.323 28.6782 42.9314 32.9999 42.9314C37.3202 42.9314 40.8348 39.3217 40.8348 34.8863C40.8348 30.4496 37.3202 26.8412 32.9999 26.8412C28.6769 26.8412 25.161 30.4496 25.161 34.8863ZM38.7813 34.8863C38.7813 38.1597 36.1881 40.8225 32.9999 40.8225C29.8104 40.8225 27.2158 38.1597 27.2158 34.8863C27.2158 31.6129 29.8104 28.9501 32.9999 28.9501C36.1881 28.9488 38.7813 31.6129 38.7813 34.8863ZM32.9999 26.1607C39.5883 26.1607 44.9483 20.6597 44.9483 13.8978C44.9483 7.13601 39.5883 1.63501 32.9999 1.63501C26.4101 1.63501 21.0489 7.13601 21.0489 13.8978C21.0489 20.6597 26.4101 26.1607 32.9999 26.1607ZM32.9999 3.74388C38.4549 3.74388 42.8935 8.29925 42.8935 13.8978C42.8935 19.4964 38.4549 24.0518 32.9999 24.0518C27.5422 24.0518 23.1024 19.4964 23.1024 13.8978C23.1024 8.29925 27.5422 3.74388 32.9999 3.74388ZM29.1563 16.6187C28.9378 16.0819 29.1845 15.4633 29.7076 15.2391C30.2306 15.0136 30.8333 15.2668 31.0517 15.8049C31.4578 16.8007 32.1119 17.1884 32.5886 17.3375C33.2029 17.53 33.884 17.4496 34.3671 17.1238C34.6473 16.9352 34.8323 16.6371 34.8606 16.3259C34.8863 16.0476 34.7874 15.7931 34.5663 15.5715C34.3402 15.346 33.749 15.2022 33.1772 15.0637C32.2597 14.8408 31.1185 14.5639 30.2897 13.6908C29.5829 12.9483 29.2963 11.8325 29.5418 10.7787C29.7949 9.69461 30.548 8.86109 31.6081 8.49181C31.7276 8.45092 31.8484 8.41531 31.9705 8.38498V7.30746C31.9705 6.72452 32.4306 6.25369 32.9973 6.25369C33.564 6.25369 34.024 6.72584 34.024 7.30746V8.34541C34.4185 8.42982 34.7964 8.56566 35.1343 8.75558C35.9683 9.2251 36.5273 9.96498 36.7522 10.8974C36.8884 11.4632 36.5517 12.0343 36.0004 12.1741C35.4492 12.3139 34.8927 11.9683 34.7565 11.4025C34.6717 11.0491 34.4712 10.788 34.1461 10.6046C33.6398 10.3198 32.8842 10.2736 32.2648 10.4886C31.7739 10.66 31.5979 11.0082 31.5362 11.2693C31.4539 11.6202 31.54 11.9921 31.7559 12.2189C32.1697 12.6542 32.8868 12.8282 33.6462 13.0129C34.4892 13.2173 35.3605 13.4296 35.9953 14.0627C36.6674 14.734 36.9886 15.6111 36.9013 16.5303C36.8126 17.472 36.2844 18.3543 35.4877 18.8884C35.0482 19.1839 34.5471 19.3804 34.0215 19.478V20.4895C34.0215 21.0712 33.5614 21.5433 32.9947 21.5433C32.428 21.5433 31.968 21.0712 31.968 20.4895V19.35C30.7112 18.9478 29.7114 17.9784 29.1563 16.6187Z" fill="white"/>
</g>
<defs>
<clipPath id="clip0_184_687">
<rect width="65.7946" height="67.5261" fill="white" transform="translate(0.102539 0.237061)"/>
</clipPath>
</defs>
</svg>
