<svg width="76" height="77" viewBox="0 0 76 77" fill="none" xmlns="http://www.w3.org/2000/svg">
<path d="M14.311 31.393C13.1397 31.393 11.9947 31.0457 11.0207 30.3949C10.0468 29.7442 9.28773 28.8192 8.83949 27.7371C8.39124 26.6549 8.27396 25.4641 8.50247 24.3153C8.73099 23.1665 9.29503 22.1112 10.1233 21.283C10.9515 20.4547 12.0068 19.8907 13.1556 19.6621C14.3044 19.4336 15.4952 19.5509 16.5774 19.9992C17.6596 20.4474 18.5845 21.2065 19.2353 22.1804C19.886 23.1543 20.2334 24.2994 20.2334 25.4707C20.2315 27.0408 19.6069 28.5461 18.4967 29.6563C17.3864 30.7666 15.8811 31.3911 14.311 31.393ZM14.311 21.9173C13.6082 21.9173 12.9212 22.1257 12.3368 22.5161C11.7525 22.9066 11.297 23.4616 11.0281 24.1109C10.7591 24.7602 10.6888 25.4746 10.8259 26.1639C10.963 26.8532 11.3014 27.4864 11.7984 27.9833C12.2953 28.4803 12.9285 28.8187 13.6178 28.9558C14.3071 29.0929 15.0215 29.0226 15.6708 28.7536C16.3201 28.4847 16.8751 28.0292 17.2656 27.4449C17.656 26.8605 17.8644 26.1735 17.8644 25.4707C17.8644 24.5283 17.49 23.6244 16.8237 22.958C16.1573 22.2917 15.2534 21.9173 14.311 21.9173Z" fill="white"/>
<path d="M19.0485 65.7427H9.57273C8.00261 65.7408 6.49733 65.1162 5.38708 64.006C4.27683 62.8958 3.65227 61.3905 3.65039 59.8204C3.65039 59.1921 3.89997 58.5895 4.34424 58.1453C4.7885 57.701 5.39105 57.4514 6.01933 57.4514H22.6019C23.2302 57.4514 23.8327 57.701 24.277 58.1453C24.7212 58.5895 24.9708 59.1921 24.9708 59.8204C24.9689 61.3905 24.3444 62.8958 23.2341 64.006C22.1239 65.1162 20.6186 65.7408 19.0485 65.7427ZM6.01933 59.8204C6.01933 60.7628 6.3937 61.6666 7.0601 62.333C7.72649 62.9994 8.63031 63.3738 9.57273 63.3738H19.0485C19.9909 63.3738 20.8947 62.9994 21.5611 62.333C22.2275 61.6666 22.6019 60.7628 22.6019 59.8204H6.01933Z" fill="white"/>
<path d="M4.83486 61.0045C4.52072 61.0045 4.21944 60.8797 3.99731 60.6576C3.77518 60.4355 3.65039 60.1342 3.65039 59.8201V32.5773C3.65039 32.2632 3.77518 31.9619 3.99731 31.7397C4.21944 31.5176 4.52072 31.3928 4.83486 31.3928C5.149 31.3928 5.45027 31.5176 5.6724 31.7397C5.89454 31.9619 6.01933 32.2632 6.01933 32.5773V59.8201C6.01933 60.1342 5.89454 60.4355 5.6724 60.6576C5.45027 60.8797 5.149 61.0045 4.83486 61.0045Z" fill="white"/>
<path d="M14.3109 74.034C13.9968 74.034 13.6955 73.9092 13.4734 73.6871C13.2513 73.4649 13.1265 73.1637 13.1265 72.8495V64.5582C13.1265 64.2441 13.2513 63.9428 13.4734 63.7207C13.6955 63.4986 13.9968 63.3738 14.3109 63.3738C14.6251 63.3738 14.9263 63.4986 15.1485 63.7207C15.3706 63.9428 15.4954 64.2441 15.4954 64.5582V72.8495C15.4954 73.1637 15.3706 73.4649 15.1485 73.6871C14.9263 73.9092 14.6251 74.034 14.3109 74.034Z" fill="white"/>
<path d="M20.2328 74.034H8.38808C8.07394 74.034 7.77267 73.9092 7.55054 73.6871C7.32841 73.4649 7.20361 73.1636 7.20361 72.8495C7.20361 72.5354 7.32841 72.2341 7.55054 72.012C7.77267 71.7898 8.07394 71.665 8.38808 71.665H20.2328C20.5469 71.665 20.8482 71.7898 21.0703 72.012C21.2924 72.2341 21.4172 72.5354 21.4172 72.8495C21.4172 73.1636 21.2924 73.4649 21.0703 73.6871C20.8482 73.9092 20.5469 74.034 20.2328 74.034Z" fill="white"/>
<path d="M32.2889 74.0336C31.2874 74.0349 30.3142 73.7009 29.5246 73.0848C28.7351 72.4687 28.1745 71.6059 27.9324 70.6341L25.2306 59.8199H14.311C12.7409 59.818 11.2356 59.1935 10.1254 58.0832C9.01512 56.973 8.39055 55.4677 8.38867 53.8976V36.1306C8.38867 35.3014 8.81508 32.5771 14.311 32.5771C19.8069 32.5771 20.2334 35.3014 20.2334 36.1306V40.8684H28.5246C29.4671 40.8684 30.3709 41.2428 31.0373 41.9092C31.7037 42.5756 32.078 43.4794 32.078 44.4218C32.078 45.3643 31.7037 46.2681 31.0373 46.9345C30.3709 47.6009 29.4671 47.9752 28.5246 47.9752H20.2334V50.3442H24.8113C26.4904 50.3506 28.1283 50.8637 29.5109 51.8165C30.8935 52.7692 31.9563 54.1171 32.5601 55.6838L36.5624 68.1764C36.778 68.8493 36.8317 69.5637 36.719 70.2613C36.6063 70.9589 36.3305 71.62 35.914 72.1909C35.4975 72.7617 34.952 73.2261 34.3221 73.5464C33.6922 73.8666 32.9955 74.0335 32.2889 74.0336ZM14.311 34.9461C12.0025 34.9461 10.7576 35.5561 10.7576 36.1306V53.8976C10.7576 54.84 11.132 55.7438 11.7984 56.4102C12.4648 57.0766 13.3686 57.451 14.311 57.451H26.1557C26.4198 57.451 26.6762 57.5392 26.8844 57.7017C27.0926 57.8641 27.2405 58.0915 27.3046 58.3476L30.2326 70.0597C30.3033 70.3335 30.4279 70.5904 30.5994 70.8152C30.7708 71.0401 30.9855 71.2283 31.2308 71.3689C31.4761 71.5095 31.7471 71.5996 32.0278 71.6339C32.3085 71.6681 32.5932 71.6459 32.8651 71.5684C33.137 71.4909 33.3907 71.3598 33.6112 71.1828C33.8317 71.0058 34.0145 70.7864 34.1489 70.5376C34.2833 70.2889 34.3665 70.0157 34.3937 69.7343C34.4209 69.4528 34.3915 69.1688 34.3072 68.8989L30.325 56.462C29.8866 55.3572 29.1267 54.4093 28.1438 53.741C27.1608 53.0727 26 52.7146 24.8113 52.7131H19.0489C18.7347 52.7131 18.4335 52.5883 18.2113 52.3662C17.9892 52.1441 17.8644 51.8428 17.8644 51.5286V47.9492C16.863 47.8579 15.9016 47.5114 15.0722 46.9428C14.2427 46.3742 13.5729 45.6025 13.1265 44.7014L12.0664 42.5824C11.926 42.3012 11.903 41.9758 12.0026 41.6777C12.1021 41.3796 12.3159 41.1332 12.5971 40.9928C12.8782 40.8524 13.2037 40.8294 13.5018 40.9289C13.7999 41.0284 14.0462 41.2423 14.1866 41.5234L15.2456 43.6425C15.5387 44.2341 15.9919 44.7318 16.5536 45.0789C17.1154 45.426 17.7632 45.6087 18.4235 45.6063H28.5246C28.8388 45.6063 29.1401 45.4815 29.3622 45.2594C29.5843 45.0373 29.7091 44.736 29.7091 44.4218C29.7091 44.1077 29.5843 43.8064 29.3622 43.5843C29.1401 43.3622 28.8388 43.2374 28.5246 43.2374H19.0489C18.7347 43.2374 18.4335 43.1126 18.2113 42.8904C17.9892 42.6683 17.8644 42.367 17.8644 42.0529V36.1306C17.8644 35.5561 16.6195 34.9461 14.311 34.9461Z" fill="white"/>
<path d="M61.6523 31.393C60.481 31.393 59.336 31.0457 58.362 30.3949C57.3881 29.7442 56.629 28.8192 56.1808 27.7371C55.7325 26.6549 55.6153 25.4641 55.8438 24.3153C56.0723 23.1665 56.6363 22.1112 57.4646 21.283C58.2929 20.4547 59.3481 19.8907 60.4969 19.6621C61.6458 19.4336 62.8365 19.5509 63.9187 19.9992C65.0009 20.4474 65.9258 21.2065 66.5766 22.1804C67.2273 23.1543 67.5747 24.2994 67.5747 25.4707C67.5728 27.0408 66.9482 28.5461 65.838 29.6563C64.7277 30.7666 63.2225 31.3911 61.6523 31.393ZM61.6523 21.9173C60.9495 21.9173 60.2625 22.1257 59.6782 22.5161C59.0938 22.9066 58.6384 23.4616 58.3694 24.1109C58.1005 24.7602 58.0301 25.4746 58.1672 26.1639C58.3043 26.8532 58.6427 27.4864 59.1397 27.9833C59.6366 28.4803 60.2698 28.8187 60.9591 28.9558C61.6484 29.0929 62.3629 29.0226 63.0122 28.7536C63.6615 28.4847 64.2164 28.0292 64.6069 27.4449C64.9973 26.8605 65.2057 26.1735 65.2057 25.4707C65.2057 24.5283 64.8314 23.6244 64.165 22.958C63.4986 22.2917 62.5947 21.9173 61.6523 21.9173Z" fill="white"/>
<path d="M66.3908 65.7427H56.915C55.3449 65.7408 53.8396 65.1162 52.7294 64.006C51.6191 62.8958 50.9946 61.3905 50.9927 59.8204C50.9927 59.1921 51.2423 58.5895 51.6865 58.1453C52.1308 57.701 52.7333 57.4514 53.3616 57.4514H69.9442C70.5725 57.4514 71.175 57.701 71.6193 58.1453C72.0635 58.5895 72.3131 59.1921 72.3131 59.8204C72.3112 61.3905 71.6867 62.8958 70.5764 64.006C69.4662 65.1162 67.9609 65.7408 66.3908 65.7427ZM53.3616 59.8204C53.3616 60.7628 53.736 61.6666 54.4024 62.333C55.0688 62.9994 55.9726 63.3738 56.915 63.3738H66.3908C67.3332 63.3738 68.237 62.9994 68.9034 62.333C69.5698 61.6666 69.9442 60.7628 69.9442 59.8204H53.3616Z" fill="white"/>
<path d="M71.1278 61.0045C70.8137 61.0045 70.5124 60.8797 70.2903 60.6576C70.0682 60.4355 69.9434 60.1342 69.9434 59.8201V32.5773C69.9434 32.2632 70.0682 31.9619 70.2903 31.7397C70.5124 31.5176 70.8137 31.3928 71.1278 31.3928C71.442 31.3928 71.7432 31.5176 71.9654 31.7397C72.1875 31.9619 72.3123 32.2632 72.3123 32.5773V59.8201C72.3123 60.1342 72.1875 60.4355 71.9654 60.6576C71.7432 60.8797 71.442 61.0045 71.1278 61.0045Z" fill="white"/>
<path d="M61.6522 74.034C61.3381 74.034 61.0368 73.9092 60.8147 73.6871C60.5926 73.4649 60.4678 73.1637 60.4678 72.8495V64.5582C60.4678 64.2441 60.5926 63.9428 60.8147 63.7207C61.0368 63.4986 61.3381 63.3738 61.6522 63.3738C61.9664 63.3738 62.2677 63.4986 62.4898 63.7207C62.7119 63.9428 62.8367 64.2441 62.8367 64.5582V72.8495C62.8367 73.1637 62.7119 73.4649 62.4898 73.6871C62.2677 73.9092 61.9664 74.034 61.6522 74.034Z" fill="white"/>
<path d="M67.5746 74.034H55.7299C55.4157 74.034 55.1145 73.9092 54.8923 73.6871C54.6702 73.4649 54.5454 73.1636 54.5454 72.8495C54.5454 72.5354 54.6702 72.2341 54.8923 72.012C55.1145 71.7898 55.4157 71.665 55.7299 71.665H67.5746C67.8887 71.665 68.19 71.7898 68.4121 72.012C68.6342 72.2341 68.759 72.5354 68.759 72.8495C68.759 73.1636 68.6342 73.4649 68.4121 73.6871C68.19 73.9092 67.8887 74.034 67.5746 74.034Z" fill="white"/>
<path d="M43.6745 74.0336C42.9678 74.0337 42.271 73.867 41.6409 73.5468C41.0108 73.2267 40.4653 72.7623 40.0487 72.1913C39.6322 71.6204 39.3564 70.9592 39.2438 70.2615C39.1312 69.5638 39.1851 68.8493 39.4009 68.1764L43.3831 55.7394C43.9807 54.161 45.0424 52.8006 46.4284 51.8375C47.8144 50.8744 49.4596 50.3538 51.1473 50.3442H55.7253V47.9752H47.434C46.4916 47.9752 45.5878 47.6009 44.9214 46.9345C44.255 46.2681 43.8806 45.3643 43.8806 44.4218C43.8806 43.4794 44.255 42.5756 44.9214 41.9092C45.5878 41.2428 46.4916 40.8684 47.434 40.8684H55.7253V36.1306C55.7253 35.3014 56.1517 32.5771 61.6476 32.5771C67.1436 32.5771 67.57 35.3014 67.57 36.1306V53.8976C67.5681 55.4677 66.9435 56.973 65.8333 58.0832C64.723 59.1935 63.2177 59.818 61.6476 59.8199H50.7327L48.0286 70.6341C47.7868 71.6056 47.2266 72.4682 46.4375 73.0843C45.6484 73.7005 44.6757 74.0346 43.6745 74.0336ZM51.1473 52.7131C49.9481 52.7175 48.7781 53.0839 47.7907 53.7645C46.8033 54.445 46.0444 55.408 45.6135 56.5271L41.6562 68.8989C41.5719 69.1688 41.5425 69.4528 41.5697 69.7343C41.5969 70.0157 41.6801 70.2889 41.8145 70.5376C41.9489 70.7864 42.1317 71.0058 42.3522 71.1828C42.5727 71.3598 42.8264 71.4909 43.0983 71.5684C43.3702 71.6459 43.6549 71.6681 43.9356 71.6339C44.2163 71.5996 44.4872 71.5095 44.7326 71.3689C44.9779 71.2283 45.1926 71.0401 45.364 70.8152C45.5354 70.5904 45.6601 70.3335 45.7307 70.0597L48.6599 58.3476C48.7241 58.0915 48.872 57.8641 49.0802 57.7017C49.2883 57.5392 49.5448 57.451 49.8089 57.451H61.6535C62.596 57.451 63.4998 57.0766 64.1662 56.4102C64.8326 55.7438 65.2069 54.84 65.2069 53.8976V36.1306C65.2069 35.5561 63.9609 34.9461 61.6535 34.9461C59.3462 34.9461 58.1001 35.5561 58.1001 36.1306V42.0529C58.1001 42.367 57.9753 42.6683 57.7532 42.8904C57.5311 43.1126 57.2298 43.2374 56.9157 43.2374H47.4399C47.1258 43.2374 46.8245 43.3622 46.6024 43.5843C46.3802 43.8064 46.2555 44.1077 46.2555 44.4218C46.2555 44.736 46.3802 45.0373 46.6024 45.2594C46.8245 45.4815 47.1258 45.6063 47.4399 45.6063H57.5434C58.2038 45.6087 58.8516 45.426 59.4133 45.0789C59.975 44.7318 60.4282 44.2341 60.7214 43.6425L61.7803 41.5234C61.8491 41.3831 61.945 41.2577 62.0624 41.1546C62.1799 41.0514 62.3166 40.9725 62.4647 40.9225C62.6128 40.8725 62.7694 40.8522 62.9253 40.863C63.0813 40.8737 63.2336 40.9152 63.3734 40.9851C63.5132 41.055 63.6378 41.1518 63.7401 41.2701C63.8423 41.3884 63.9201 41.5257 63.969 41.6742C64.0179 41.8227 64.0369 41.9794 64.0249 42.1352C64.013 42.2911 63.9703 42.4431 63.8993 42.5824L62.8404 44.7014C62.394 45.6024 61.7241 46.3741 60.8947 46.9427C60.0652 47.5112 59.1039 47.8578 58.1025 47.9492V51.5286C58.1025 51.8428 57.9777 52.1441 57.7556 52.3662C57.5335 52.5883 57.2322 52.7131 56.918 52.7131H51.1473Z" fill="white"/>
<path d="M48.6602 47.9756H27.3397C27.0256 47.9756 26.7243 47.8508 26.5022 47.6287C26.2801 47.4066 26.1553 47.1053 26.1553 46.7912C26.1553 46.477 26.2801 46.1757 26.5022 45.9536C26.7243 45.7315 27.0256 45.6067 27.3397 45.6067H48.6602C48.9743 45.6067 49.2756 45.7315 49.4977 45.9536C49.7199 46.1757 49.8446 46.477 49.8446 46.7912C49.8446 47.1053 49.7199 47.4066 49.4977 47.6287C49.2756 47.8508 48.9743 47.9756 48.6602 47.9756Z" fill="white"/>
<path d="M24.9708 19.5483C24.7366 19.5482 24.5077 19.4787 24.3129 19.3486C24.1182 19.2184 23.9664 19.0335 23.8768 18.8171C23.7871 18.6007 23.7637 18.3625 23.8094 18.1328C23.855 17.9031 23.9678 17.692 24.1334 17.5264L33.6092 8.05065C33.8313 7.8286 34.1325 7.70385 34.4466 7.70385C34.7607 7.70385 35.0619 7.8286 35.284 8.05065L40.3689 13.1356L50.1917 3.31278C50.301 3.19965 50.4317 3.10941 50.5762 3.04734C50.7207 2.98526 50.8761 2.95258 51.0334 2.95122C51.1907 2.94985 51.3466 2.97982 51.4922 3.03938C51.6378 3.09893 51.77 3.18688 51.8812 3.29809C51.9925 3.40931 52.0804 3.54156 52.14 3.68712C52.1995 3.83269 52.2295 3.98866 52.2281 4.14593C52.2268 4.30321 52.1941 4.45863 52.132 4.60314C52.0699 4.74765 51.9797 4.87835 51.8666 4.98761L41.2063 15.6478C40.9842 15.8699 40.683 15.9946 40.3689 15.9946C40.0548 15.9946 39.7536 15.8699 39.5315 15.6478L34.4466 10.5629L25.8083 19.2012C25.5862 19.4234 25.285 19.5482 24.9708 19.5483Z" fill="white"/>
<path d="M51.0292 12.4416C50.7151 12.4416 50.4138 12.3168 50.1916 12.0946C49.9695 11.8725 49.8447 11.5712 49.8447 11.2571V4.15029C49.8447 3.83615 49.9695 3.53487 50.1916 3.31274C50.4138 3.09061 50.7151 2.96582 51.0292 2.96582C51.3433 2.96582 51.6446 3.09061 51.8667 3.31274C52.0889 3.53487 52.2137 3.83615 52.2137 4.15029V11.2571C52.2137 11.5712 52.0889 11.8725 51.8667 12.0946C51.6446 12.3168 51.3433 12.4416 51.0292 12.4416Z" fill="white"/>
<path d="M51.0291 5.33476H43.9223C43.6081 5.33476 43.3068 5.20997 43.0847 4.98783C42.8626 4.7657 42.7378 4.46443 42.7378 4.15029C42.7378 3.83615 42.8626 3.53487 43.0847 3.31274C43.3068 3.09061 43.6081 2.96582 43.9223 2.96582H51.0291C51.3432 2.96582 51.6445 3.09061 51.8666 3.31274C52.0887 3.53487 52.2135 3.83615 52.2135 4.15029C52.2135 4.46443 52.0887 4.7657 51.8666 4.98783C51.6445 5.20997 51.3432 5.33476 51.0291 5.33476Z" fill="white"/>
</svg>
