<svg width="72" height="84" viewBox="0 0 72 84" fill="none" xmlns="http://www.w3.org/2000/svg">
<path d="M1.42969 53.2065V57.7055C1.42969 63.2755 6.0705 67.7909 11.7952 67.7909H24.7618" stroke="white" stroke-width="2.31036" stroke-miterlimit="10" stroke-linecap="round" stroke-linejoin="round"/>
<path d="M59.6665 41.7343V11.7172C59.6665 6.14722 55.0256 1.63184 49.3009 1.63184H11.7952C6.0705 1.63184 1.42969 6.14722 1.42969 11.7172V47.5208" stroke="white" stroke-width="2.31036" stroke-miterlimit="10" stroke-linecap="round" stroke-linejoin="round"/>
<path d="M42.2727 69.6174C50.6632 69.6174 57.4649 62.9994 57.4649 54.8358C57.4649 46.6721 50.6632 40.0542 42.2727 40.0542C33.8823 40.0542 27.0806 46.6721 27.0806 54.8358C27.0806 62.9994 33.8823 69.6174 42.2727 69.6174Z" stroke="white" stroke-width="2.31036" stroke-miterlimit="10" stroke-linecap="round" stroke-linejoin="round"/>
<path d="M45.5298 47.8107C45.5298 47.8107 43.6762 46.1473 40.8192 46.9847C38.1957 47.7536 37.5442 51.246 39.327 52.6065C40.3507 53.3877 41.8909 54.0299 43.9667 54.7438C48.6127 56.3417 46.8952 62.7166 42.1694 62.7471C40.3251 62.7591 39.463 62.6451 37.8428 61.6141" stroke="white" stroke-width="2.31036" stroke-miterlimit="10" stroke-linecap="round" stroke-linejoin="round"/>
<path d="M42.1689 44.5972V65.0743" stroke="white" stroke-width="2.31036" stroke-miterlimit="10" stroke-linecap="round" stroke-linejoin="round"/>
<path d="M26.5039 16.3997H46.1137" stroke="white" stroke-width="2.31036" stroke-miterlimit="10" stroke-linecap="round" stroke-linejoin="round"/>
<path d="M14.9829 15.0934L17.7012 17.8326L21.6813 13.6765" stroke="white" stroke-width="2.31036" stroke-miterlimit="10" stroke-linecap="round" stroke-linejoin="round"/>
<path d="M26.5039 25.9556H46.1137" stroke="white" stroke-width="2.31036" stroke-miterlimit="10" stroke-linecap="round" stroke-linejoin="round"/>
<path d="M14.9829 24.6486L17.7012 27.3877L21.6813 23.2317" stroke="white" stroke-width="2.31036" stroke-miterlimit="10" stroke-linecap="round" stroke-linejoin="round"/>
<path d="M32.1744 35.8177C25.1065 39.3777 20.2759 46.5574 20.2759 54.8356C20.2759 66.6559 30.1243 76.238 42.2728 76.238C54.4213 76.238 64.2698 66.6559 64.2698 54.8356C64.2698 43.0152 54.4213 33.4331 42.2728 33.4331C40.6967 33.4331 39.1599 33.5957 37.6776 33.9023" stroke="white" stroke-width="2.31036" stroke-miterlimit="10" stroke-linecap="round" stroke-linejoin="round"/>
<path d="M52.7686 73.6491L59.8989 80.5866C62.34 82.9617 66.298 82.9617 68.7391 80.5866C71.1802 78.2115 71.1802 74.3605 68.7391 71.9853L61.6089 65.0479" stroke="white" stroke-width="2.31036" stroke-miterlimit="10" stroke-linecap="round" stroke-linejoin="round"/>
</svg>
