<svg width="72" height="74" viewBox="0 0 72 74" fill="none" xmlns="http://www.w3.org/2000/svg">
<g clip-path="url(#clip0_184_722)">
<path d="M13.8379 54.614C13.8379 55.2437 13.3415 55.7542 12.7294 55.7542H2.89373C2.28156 55.7542 1.78523 55.2437 1.78523 54.614C1.78523 53.9844 2.28156 53.4739 2.89373 53.4739H12.7292C13.3415 53.4739 13.8379 53.9844 13.8379 54.614ZM22.565 47.6967H2.89373C2.28156 47.6967 1.78523 48.2072 1.78523 48.8369C1.78523 49.4666 2.28156 49.9771 2.89373 49.9771H22.565C23.1771 49.9771 23.6735 49.4666 23.6735 48.8369C23.6735 48.2072 23.1771 47.6967 22.565 47.6967ZM5.82628 33.7109C2.95234 30.2642 1.21338 25.7885 1.21338 20.9025C1.21338 10.0391 9.80595 1.20122 20.3674 1.20122C24.987 1.20122 29.2298 2.8921 32.5418 5.70391L37.5507 0.826955C37.7566 0.626427 38.0293 0.514832 38.3128 0.514832H43.2093C43.8215 0.514832 44.3178 1.02535 44.3178 1.65501C44.3178 2.28467 43.8215 2.79518 43.2093 2.79518H38.7544L34.1706 7.25812C37.4822 10.8012 39.5213 15.6113 39.5213 20.9026C39.5213 22.5487 39.3229 24.1478 38.9513 25.6772H40.2833L44.3455 18.4402C44.6515 17.895 45.3295 17.7078 45.8598 18.0229C46.3899 18.3378 46.5717 19.0351 46.2655 19.5804L41.8833 27.3875C41.6853 27.7402 41.3195 27.9576 40.9233 27.9576H38.2504C35.4858 35.3462 28.5129 40.6037 20.3674 40.6037C15.353 40.6037 10.7834 38.6105 7.36558 35.3553L4.00224 39.01V43.5922C4.00224 44.2219 3.5059 44.7324 2.89373 44.7324C2.28156 44.7324 1.78523 44.2219 1.78523 43.5922V38.5559C1.78523 38.2643 1.89386 37.9839 2.08868 37.7721L5.82628 33.7109ZM29.4054 26.8171C29.4054 26.1875 29.9017 25.6769 30.5139 25.6769H36.6575C36.9805 24.5128 37.1872 23.2991 37.2666 22.0502L22.3054 22.0433L29.8846 35.3053C32.4814 33.4841 34.562 30.9403 35.8516 27.9573H30.5139C29.9017 27.9573 29.4054 27.4469 29.4054 26.8171ZM26.1763 11.9015L30.918 7.28491C28.2923 5.12827 25.0321 3.75735 21.4759 3.51976V19.7627L37.2675 19.77C37.0018 15.5334 35.2579 11.7045 32.5612 8.825L27.7005 13.5577C27.4862 13.7664 27.2122 13.8699 26.9386 13.8699C26.6447 13.8699 26.3515 13.7504 26.1334 13.5135C25.7127 13.0561 25.7318 12.3343 26.1763 11.9015ZM7.35892 32.0454L12.8559 26.0724C13.2768 25.6149 13.9785 25.5954 14.423 26.0283C14.8675 26.4611 14.8868 27.1828 14.466 27.64L8.88894 33.6999C11.9092 36.568 15.9425 38.3232 20.3674 38.3232C23.1016 38.3232 25.6862 37.6525 27.975 36.4639L19.4118 21.4801C19.3116 21.3049 19.2589 21.1054 19.2589 20.9023V3.51976C10.4347 4.10909 3.43039 11.6796 3.43039 20.9023C3.43039 25.1369 4.90761 29.0229 7.35892 32.0454ZM50.0064 8.57203H59.8419C60.4541 8.57203 60.9504 8.06151 60.9504 7.43185C60.9504 6.80219 60.4541 6.29167 59.8419 6.29167H50.0064C49.3942 6.29167 48.8979 6.80219 48.8979 7.43185C48.8979 8.06151 49.3942 8.57203 50.0064 8.57203ZM50.0064 2.79476H69.6776C70.2898 2.79476 70.7861 2.28424 70.7861 1.65458C70.7861 1.02492 70.2898 0.514404 69.6776 0.514404H50.0064C49.3942 0.514404 48.8979 1.02492 48.8979 1.65458C48.8979 2.28424 49.3942 2.79476 50.0064 2.79476ZM69.6776 17.3893H50.0064C49.3942 17.3893 48.8979 17.8998 48.8979 18.5295C48.8979 19.1591 49.3942 19.6696 50.0064 19.6696H69.6776C70.2898 19.6696 70.7861 19.1591 70.7861 18.5295C70.7861 17.8998 70.2898 17.3893 69.6776 17.3893ZM59.8419 25.4469C60.4541 25.4469 60.9504 24.9364 60.9504 24.3067C60.9504 23.6771 60.4541 23.1666 59.8419 23.1666H50.0064C49.3942 23.1666 48.8979 23.6771 48.8979 24.3067C48.8979 24.9364 49.3942 25.4469 50.0064 25.4469H59.8419ZM67.1187 57.7804V70.0487C67.1187 71.9438 65.6197 73.4856 63.7772 73.4856H37.0666C35.2241 73.4856 33.7251 71.9438 33.7251 70.0487V57.7804C33.7251 54.1508 36.3664 51.4533 41.1628 50.185C43.3507 49.6064 45.5641 49.2387 47.7947 49.0795C44.6013 47.6477 42.2986 43.685 42.2986 39.0297C42.2986 33.6951 45.4112 30.3813 50.4218 30.3813C55.4325 30.3813 58.5452 33.6951 58.5452 39.0297C58.5452 43.6951 56.2325 47.6648 53.0283 49.0886C55.2351 49.2523 57.4521 49.6162 59.6717 50.1826C64.4043 51.3899 67.1187 54.1592 67.1187 57.7804ZM50.4218 47.3723C53.6786 47.3723 56.3282 43.6297 56.3282 39.0295C56.3282 33.4888 52.6277 32.6615 50.4218 32.6615C48.216 32.6615 44.5156 33.4888 44.5156 39.0295C44.5156 43.6299 47.165 47.3723 50.4218 47.3723ZM64.9016 57.7804C64.9016 54.3747 61.2904 52.945 59.138 52.3958C56.1928 51.6444 53.2538 51.2686 50.3419 51.2686C47.4326 51.2686 44.5503 51.6436 41.7148 52.3935C39.0813 53.09 35.9421 54.5899 35.9421 57.7804V70.0487C35.9421 70.6865 36.4466 71.2053 37.0666 71.2053H40.8085V61.1286C40.8085 60.4989 41.3048 59.9884 41.917 59.9884C42.5291 59.9884 43.0255 60.4989 43.0255 61.1286V71.2053H57.8182V61.1286C57.8182 60.4989 58.3145 59.9884 58.9267 59.9884C59.5388 59.9884 60.0352 60.4989 60.0352 61.1286V71.2053H63.7772C64.3973 71.2053 64.9016 70.6864 64.9016 70.0487V57.7804Z" fill="white"/>
</g>
<defs>
<clipPath id="clip0_184_722">
<rect width="70.9443" height="72.9712" fill="white" transform="translate(0.527832 0.514404)"/>
</clipPath>
</defs>
</svg>
