<svg width="80" height="82" viewBox="0 0 80 82" fill="none" xmlns="http://www.w3.org/2000/svg">
<path d="M3.75336 79.4629H11.7951C12.4944 79.4629 12.9605 78.9866 12.9605 78.2721C12.9605 77.5576 12.4944 77.0813 11.7951 77.0813H3.75336C3.05408 77.0813 2.58789 77.5576 2.58789 78.2721C2.58789 78.9866 3.05408 79.4629 3.75336 79.4629Z" fill="white"/>
<path d="M39.65 8.13379C36.8529 8.13379 34.522 10.5154 34.522 13.3733C34.522 16.2312 36.8529 18.6129 39.65 18.6129C42.4471 18.6129 44.7781 16.2312 44.7781 13.3733C44.7781 10.5154 42.4471 8.13379 39.65 8.13379ZM39.65 16.2312C38.1349 16.2312 36.8529 14.9214 36.8529 13.3733C36.8529 11.8253 38.1349 10.5154 39.65 10.5154C41.1651 10.5154 42.4471 11.8253 42.4471 13.3733C42.4471 14.9214 41.1651 16.2312 39.65 16.2312Z" fill="white"/>
<path d="M39.6512 2.53711C31.726 2.53711 25.3159 9.08652 25.3159 17.184C25.3159 25.4005 31.8425 31.8308 39.6512 31.8308C47.5763 31.9499 53.9864 25.2814 53.9864 17.184C53.9864 9.08652 47.5763 2.53711 39.6512 2.53711ZM39.6512 29.5683C36.854 29.5683 33.9404 28.4966 31.726 26.2341C36.2713 21.709 43.031 21.709 47.5763 26.2341C45.3619 28.3775 42.5648 29.5683 39.6512 29.5683ZM49.3245 24.567C43.8468 18.9702 35.572 18.9702 29.9778 24.567C28.4627 22.5426 27.6469 20.0419 27.6469 17.3031C27.6469 10.5155 33.008 5.03779 39.6512 5.03779C46.2943 4.91871 51.6555 10.3964 51.6555 17.184C51.6555 19.9228 50.7231 22.5426 49.3245 24.567Z" fill="white"/>
<path d="M65.64 72.0803C66.3393 72.0803 66.8055 71.6039 66.8055 70.8895V53.3847L69.7191 56.3617C70.1853 56.838 70.8846 56.838 71.3508 56.3617C71.817 55.8854 71.817 55.1709 71.3508 54.6945L66.4558 49.6932C65.9897 49.2169 65.2904 49.2169 64.8242 49.6932L59.9292 54.6945C59.463 55.1709 59.463 55.8854 59.9292 56.3617C60.3954 56.838 61.0947 56.838 61.5609 56.3617L64.4745 53.3847V70.8895C64.4745 71.6039 65.0573 72.0803 65.64 72.0803Z" fill="white"/>
<path d="M13.5439 71.723C14.0101 72.1993 14.7094 72.1993 15.1756 71.723L20.0705 66.7217C20.5367 66.2453 20.5367 65.5309 20.0705 65.0545C19.6043 64.5782 18.9051 64.5782 18.4389 65.0545L15.5252 68.0315V50.5267C15.5252 49.8123 15.059 49.3359 14.3597 49.3359C13.6605 49.3359 13.1943 49.8123 13.1943 50.5267V68.0315L10.2806 65.0545C9.81442 64.5782 9.11514 64.5782 8.64896 65.0545C8.18277 65.5309 8.18277 66.2453 8.64896 66.7217L13.5439 71.723Z" fill="white"/>
<path d="M14.3601 33.8553C16.8076 33.8553 18.6723 31.831 18.6723 29.4494C18.6723 27.0678 16.691 24.9243 14.3601 24.9243C12.0291 24.9243 10.0479 26.9487 10.0479 29.3303C10.0479 31.7119 11.9126 33.8553 14.3601 33.8553ZM14.3601 27.3059C15.5255 27.3059 16.3414 28.2586 16.3414 29.3303C16.3414 30.5211 15.409 31.3546 14.3601 31.3546C13.3112 31.3546 12.3788 30.402 12.3788 29.3303C12.3788 28.2586 13.1946 27.3059 14.3601 27.3059Z" fill="white"/>
<path d="M14.2426 44.5725C20.7692 44.6916 26.1303 39.2139 26.1303 32.5454C26.1303 25.8769 20.8857 20.5183 14.3591 20.5183C7.83249 20.5183 2.58789 25.8769 2.58789 32.5454C2.58789 39.0948 7.83249 44.4534 14.2426 44.5725ZM14.3591 42.1909C12.1447 42.1909 10.0469 41.3574 8.29868 39.6902C11.7951 36.356 16.9231 36.356 20.4195 39.6902C18.6713 41.3574 16.5735 42.1909 14.3591 42.1909ZM14.3591 22.7808C19.6037 22.7808 23.7994 27.0677 23.7994 32.4263C23.7994 34.4507 23.2166 36.356 22.0512 38.0231C17.6224 33.7362 10.9792 33.7362 6.55048 38.0231C5.50156 36.4751 4.80228 34.5698 4.80228 32.4263C4.91882 27.1868 9.1145 22.7808 14.3591 22.7808Z" fill="white"/>
<path d="M65.6404 24.9243C63.1929 24.9243 61.3281 26.9487 61.3281 29.3303C61.3281 31.7119 63.3094 33.8553 65.6404 33.8553C67.9713 33.8553 69.9526 31.831 69.9526 29.4494C69.9526 27.0678 68.0878 24.9243 65.6404 24.9243ZM65.6404 31.4737C64.4749 31.4737 63.6591 30.5211 63.6591 29.4494C63.6591 28.2586 64.5914 27.425 65.6404 27.425C66.8058 27.425 67.6216 28.3776 67.6216 29.4494C67.6216 30.5211 66.8058 31.4737 65.6404 31.4737Z" fill="white"/>
<path d="M65.6399 20.3992C59.1132 20.3992 53.8687 25.7578 53.8687 32.4263C53.8687 39.0948 59.1133 44.4534 65.5233 44.4534C72.0499 44.5725 77.4111 39.0948 77.4111 32.4263C77.4111 25.8769 72.1665 20.3992 65.6399 20.3992ZM65.6399 42.1909C63.542 42.1909 61.3276 41.3573 59.5794 39.6902C63.0758 36.3559 68.2039 36.3559 71.7003 39.6902C69.9521 41.3573 67.8542 42.1909 65.6399 42.1909ZM73.4485 38.023C69.0197 33.7362 62.3766 33.7362 57.9478 38.023C56.8989 36.475 56.1996 34.5697 56.1996 32.4263C56.1996 27.0677 60.3953 22.7808 65.6399 22.7808C70.8845 22.7808 75.0801 27.0677 75.0801 32.4263C75.0801 34.5697 74.4974 36.475 73.4485 38.023Z" fill="white"/>
<path d="M46.5267 57.5524C46.0605 57.1952 45.5943 56.5998 45.2447 56.0044C46.8763 54.6945 48.0418 52.6701 48.508 50.4076L49.5569 43.7391C50.3727 38.6187 46.5267 34.8081 42.0979 34.8081H37.4361C34.0562 34.8081 31.1425 36.9516 30.2102 40.2858C29.5109 42.7865 30.3267 44.8108 31.1425 50.5267C31.4922 52.7892 32.6577 54.6945 34.4059 56.1235C34.0562 56.5998 33.59 57.1952 33.1238 57.5524C27.8792 57.9097 23.6836 62.4347 23.6836 67.9124V77.0816H19.6044C18.9052 77.0816 18.439 77.5579 18.439 78.2724C18.439 78.9869 18.9052 79.4632 19.6044 79.4632H76.013C76.7123 79.4632 77.1785 78.9869 77.1785 78.2724C77.1785 77.5579 76.7123 77.0816 76.013 77.0816H56.0835V67.9124C56.0835 62.4347 51.8878 57.9097 46.5267 57.5524ZM32.4246 41.0003C33.1238 38.7378 35.1051 37.1897 37.4361 37.1897H42.0979C44.7785 37.1897 46.8763 39.2141 47.226 41.4766C46.1771 42.5483 45.1281 43.0246 44.0792 42.9056C42.5641 42.6674 41.3987 41.0003 41.049 40.2858C40.8159 39.8095 40.3497 39.5713 39.8835 39.6904C39.4174 39.6904 39.0677 40.0476 38.8346 40.524C38.8346 40.524 38.0188 43.1437 36.0375 44.2154C34.9886 44.8108 33.8231 44.9299 32.4246 44.5727C32.5411 43.8582 32.0749 42.4292 32.4246 41.0003ZM33.4735 50.0504L33.0073 47.1925C36.2706 47.6688 38.8346 46.1207 40.4663 43.2628C42.331 45.2872 44.662 46.0016 47.1094 44.6918L46.1771 50.0504C45.7109 53.2655 43.0303 55.5281 39.767 55.5281C36.5037 55.5281 34.0562 53.2655 33.4735 50.0504ZM42.0979 61.1248C41.9814 61.1248 41.9814 61.1248 41.8648 61.1248H37.7857C37.6692 61.1248 37.6692 61.1248 37.5526 61.1248L35.2217 58.7432C35.5713 58.386 36.0375 57.7906 36.3871 57.3143C37.4361 57.7906 38.6015 58.0288 39.767 58.0288C40.9325 58.0288 42.0979 57.7906 43.2634 57.3143C43.613 57.9097 43.9627 58.386 44.4289 58.7432L42.0979 61.1248ZM42.4476 69.4605L39.8835 72.5565L37.3195 69.4605L38.7181 63.5065H40.9325L42.4476 69.4605ZM53.7526 77.0816H26.0145V67.9124C26.0145 63.7446 29.1613 60.2913 33.1238 59.934L36.3871 63.2683L34.872 69.4605C34.7555 69.8177 34.872 70.1749 35.1051 70.5322L38.9512 75.2954C39.4174 75.8908 40.2332 75.8908 40.6994 75.2954L44.5454 70.5322C44.7785 70.294 44.895 69.8177 44.7785 69.4605L43.2634 63.2683L46.5267 59.934C50.6058 60.2913 53.636 63.7446 53.636 67.9124V77.0816H53.7526Z" fill="white"/>
</svg>
