<svg width="88" height="88" viewBox="0 0 88 88" fill="none" xmlns="http://www.w3.org/2000/svg">
<path d="M77.3483 15.3808L63.9651 1.99751C63.7399 1.77237 63.4345 1.646 63.1163 1.646H11.5016C10.8387 1.646 10.3013 2.18339 10.3013 2.8463V85.153C10.3013 85.8159 10.8387 86.3533 11.5016 86.3533H76.4997C77.1626 86.3533 77.7 85.8159 77.7 85.153V16.2295C77.6998 15.9111 77.5734 15.6059 77.3483 15.3808ZM64.3166 5.74401L73.6018 15.0291H64.3166V5.74401ZM12.7019 83.9527V4.04661H61.916V16.2295C61.916 16.8925 62.4534 17.4298 63.1163 17.4298H75.2992V83.9527H12.7019ZM62.1646 53.4769C60.639 53.4769 59.6855 52.487 59.3017 51.5606C58.9179 50.6341 58.8922 49.2596 59.971 48.1808C60.4389 47.7129 60.6965 47.091 60.6965 46.4289C60.6965 45.7672 60.4389 45.1451 59.971 44.6771L57.2216 41.9279C56.7536 41.46 56.1315 41.2024 55.4698 41.2024C54.8081 41.2024 54.1858 41.46 53.718 41.9278C52.6391 43.0067 51.2646 42.9811 50.3383 42.597C49.4119 42.2134 48.422 41.2597 48.422 39.7341C48.422 38.3682 47.3106 37.2568 45.9447 37.2568H42.0567C40.6908 37.2568 39.5795 38.3682 39.5795 39.7341C39.5795 41.2597 38.5896 42.2134 37.6631 42.597C36.7366 42.9809 35.3623 43.0067 34.2836 41.9279C33.8156 41.46 33.1935 41.2024 32.5318 41.2024C31.8701 41.2024 31.2478 41.46 30.78 41.9279L28.0308 44.6771C27.5629 45.1449 27.3051 45.767 27.3051 46.4289C27.3051 47.0908 27.5629 47.7131 28.0306 48.1807C29.1095 49.2596 29.0838 50.6341 28.6999 51.5606C28.3161 52.4868 27.3626 53.4769 25.837 53.4769C24.4711 53.4769 23.3596 54.5882 23.3596 55.9542V59.8421C23.3596 61.2081 24.4709 62.3194 25.837 62.3194C27.3626 62.3194 28.3161 63.3093 28.6999 64.2358C29.0837 65.1623 29.1094 66.5368 28.0306 67.6155C27.0647 68.5816 27.0647 70.1531 28.0306 71.119L30.78 73.8686C31.248 74.3365 31.8701 74.5939 32.5318 74.5939C33.1935 74.5939 33.8158 74.3364 34.2836 73.8686C35.3643 72.7878 36.7385 72.8125 37.6645 73.1961C38.5903 73.5795 39.5795 74.5339 39.5795 76.0622C39.5795 77.4282 40.6908 78.5395 42.0567 78.5395H45.9447C47.3106 78.5395 48.422 77.4282 48.422 76.0622C48.422 74.5366 49.4119 73.5829 50.3383 73.1993C51.2648 72.8156 52.6393 72.7895 53.718 73.8686C54.186 74.3365 54.8081 74.5939 55.4698 74.5939C56.1315 74.5939 56.7538 74.3364 57.2216 73.8686L59.9711 71.119C60.9369 70.1531 60.9369 68.5816 59.9711 67.6157C58.8922 66.5368 58.9179 65.1623 59.3019 64.2358C59.6856 63.3095 60.6392 62.3194 62.1648 62.3194C63.5307 62.3194 64.642 61.2081 64.642 59.8421V55.9542C64.6419 54.5882 63.5305 53.4769 62.1646 53.4769ZM62.2413 59.8421C62.2413 59.8845 62.2068 59.9188 62.1646 59.9188C59.8989 59.9188 57.952 61.221 57.0837 63.317C56.2154 65.4133 56.6713 67.7107 58.2734 69.3129C58.3034 69.3429 58.3034 69.3916 58.2734 69.4215L55.5238 72.171C55.5183 72.1765 55.5015 72.1933 55.4696 72.1933C55.4377 72.1933 55.4208 72.1765 55.4153 72.1708C53.813 70.5688 51.5155 70.113 49.4194 70.9812C47.3232 71.8493 46.0212 73.7962 46.0212 76.0621C46.0212 76.1044 45.9867 76.1387 45.9445 76.1387H42.0566C42.0142 76.1387 41.9799 76.1044 41.9799 76.0621C41.9799 73.794 40.6783 71.8459 38.5829 70.9781C37.8807 70.6873 37.1559 70.5453 36.442 70.5453C35.0255 70.5453 33.6522 71.1048 32.5858 72.171C32.5803 72.1765 32.5635 72.1933 32.5316 72.1933C32.4997 72.1933 32.4828 72.1765 32.4773 72.171L29.7279 69.4215C29.698 69.3916 29.698 69.3429 29.7279 69.3129C31.3301 67.7107 31.7859 65.4133 30.9176 63.317C30.0494 61.2208 28.1025 59.9188 25.8367 59.9188C25.7943 59.9188 25.7598 59.8845 25.7598 59.8421V55.9542C25.7598 55.9118 25.7943 55.8775 25.8367 55.8775C28.1023 55.8775 30.0492 54.5754 30.9176 52.4793C31.7859 50.3831 31.3299 48.0857 29.7277 46.4833C29.7222 46.4778 29.7054 46.4608 29.7054 46.4291C29.7054 46.3974 29.7222 46.3805 29.7279 46.3749L32.4773 43.6257C32.4828 43.62 32.4997 43.6032 32.5316 43.6032C32.5635 43.6032 32.5803 43.62 32.5858 43.6257C34.188 45.2276 36.4853 45.6832 38.5817 44.8153C40.6779 43.9472 41.9799 42.0003 41.9799 39.7345C41.9799 39.6921 42.0144 39.6578 42.0566 39.6578H45.9445C45.9869 39.6578 46.0212 39.6921 46.0212 39.7345C46.0212 42.0003 47.3233 43.947 49.4194 44.8153C51.5153 45.6833 53.813 45.2279 55.4153 43.6257C55.4208 43.62 55.4377 43.6032 55.4696 43.6032C55.5015 43.6032 55.5183 43.62 55.5238 43.6257L58.2734 46.3751C58.2789 46.3805 58.2957 46.3974 58.2957 46.4291C58.2957 46.4611 58.2789 46.4778 58.2734 46.4834C56.6711 48.0857 56.2154 50.3831 57.0837 52.4793C57.9519 54.5756 59.8988 55.8775 62.1646 55.8775C62.207 55.8775 62.2413 55.9118 62.2413 55.9542V59.8421ZM38.9567 54.9118L35.9702 57.8982L38.9567 60.8845C39.4255 61.3533 39.4255 62.1133 38.9567 62.5821C38.7223 62.8163 38.4152 62.9336 38.1079 62.9336C37.8006 62.9336 37.4935 62.8163 37.2591 62.5821L33.4238 58.747C33.1986 58.5218 33.0723 58.2164 33.0723 57.8982C33.0723 57.5799 33.1986 57.2745 33.4238 57.0494L37.2591 53.2142C37.7279 52.7458 38.4881 52.7459 38.9565 53.2142C39.4255 53.683 39.4255 54.4428 38.9567 54.9118ZM47.1443 51.0909L43.3299 65.3263C43.1862 65.8627 42.7011 66.2163 42.1713 66.2163C42.0684 66.2163 41.964 66.2029 41.8599 66.1751C41.2196 66.0035 40.8395 65.3454 41.0111 64.7051L44.8255 50.4696C44.997 49.8294 45.6551 49.4499 46.2955 49.6209C46.9358 49.7925 47.3158 50.4506 47.1443 51.0909ZM54.5773 57.0494C54.8023 57.2745 54.9288 57.5799 54.9288 57.8982C54.9288 58.2164 54.8023 58.5218 54.5773 58.747L50.742 62.5821C50.5076 62.8163 50.2003 62.9336 49.8932 62.9336C49.5859 62.9336 49.2788 62.8163 49.0444 62.5819C48.5756 62.1133 48.5756 61.3533 49.0444 60.8845L52.0309 57.8982L49.0444 54.9118C48.5756 54.443 48.5756 53.683 49.0444 53.2144C49.513 52.7456 50.273 52.7458 50.7418 53.2142L54.5773 57.0494ZM67.5979 23.5706C67.5979 24.2335 67.0605 24.7709 66.3976 24.7709H21.6035C20.9406 24.7709 20.4032 24.2335 20.4032 23.5706C20.4032 22.9077 20.9406 22.3703 21.6035 22.3703H66.3974C67.0603 22.3703 67.5979 22.9077 67.5979 23.5706ZM20.4032 16.616C20.4032 15.9531 20.9406 15.4157 21.6035 15.4157H44.0005C44.6635 15.4157 45.2009 15.9531 45.2009 16.616C45.2009 17.279 44.6635 17.8163 44.0005 17.8163H21.6035C20.9408 17.8163 20.4032 17.279 20.4032 16.616ZM67.5979 30.525C67.5979 31.1879 67.0605 31.7253 66.3976 31.7253H21.6035C20.9406 31.7253 20.4032 31.1879 20.4032 30.525C20.4032 29.8621 20.9406 29.3247 21.6035 29.3247H66.3974C67.0603 29.3247 67.5979 29.8623 67.5979 30.525Z" fill="white"/>
</svg>
